KumbhSans-Bold.ufo
<glyph name="exclam" format="1">
  <unicode hex="0021"/>
  <advance width="580" height="1660"/>
  <outline>
    <contour>
      <point x="179" y="380" type="line"/>
      <point x="400" y="380" type="line"/>
      <point x="440" y="1500" type="line" name="at01"/>
      <point x="139" y="1500" type="line"/>
    </contour>
    <contour>
      <point x="130" y="140" type="curve" smooth="yes"/>
      <point x="130" y="44"/>
      <point x="194" y="-20"/>
      <point x="290" y="-20" type="curve" smooth="yes"/>
      <point x="386" y="-20"/>
      <point x="450" y="44"/>
      <point x="450" y="140" type="curve" smooth="yes"/>
      <point x="450" y="236"/>
      <point x="386" y="300"/>
      <point x="290" y="300" type="curve" smooth="yes"/>
      <point x="194" y="300"/>
      <point x="130" y="236"/>
    </contour>
  </outline>
</glyph>
<glyph name="quotedbl" format="1">
  <unicode hex="0022"/>
  <advance width="927" height="1563.91"/>
  <outline>
    <contour>
      <point x="797" y="1520" type="line"/>
      <point x="763" y="1007" type="line"/>
      <point x="546" y="1007" type="line"/>
      <point x="511" y="1520" type="line"/>
    </contour>
    <contour>
      <point x="130" y="1520" type="line"/>
      <point x="416" y="1520" type="line"/>
      <point x="382" y="1007" type="line"/>
      <point x="165" y="1007" type="line"/>
    </contour>
  </outline>
</glyph>
<glyph name="numbersign" format="1">
  <unicode hex="0023"/>
  <advance width="1476" height="1576.08"/>
  <outline>
    <contour>
      <point x="1025" y="440" type="line"/>
      <point x="945" y="0" type="line"/>
      <point x="712" y="0" type="line"/>
      <point x="792" y="440" type="line"/>
      <point x="598" y="440" type="line"/>
      <point x="518" y="0" type="line"/>
      <point x="285" y="0" type="line"/>
      <point x="365" y="440" type="line"/>
      <point x="130" y="440" type="line"/>
      <point x="152" y="630" type="line"/>
      <point x="400" y="630" type="line"/>
      <point x="440" y="853" type="line"/>
      <point x="198" y="853" type="line"/>
      <point x="221" y="1043" type="line"/>
      <point x="475" y="1043" type="line"/>
      <point x="558" y="1502" type="line"/>
      <point x="791" y="1502" type="line"/>
      <point x="708" y="1043" type="line"/>
      <point x="902" y="1043" type="line"/>
      <point x="985" y="1502" type="line"/>
      <point x="1218" y="1502" type="line"/>
      <point x="1135" y="1043" type="line"/>
      <point x="1346" y="1043" type="line"/>
      <point x="1324" y="853" type="line"/>
      <point x="1100" y="853" type="line"/>
      <point x="1060" y="630" type="line"/>
      <point x="1278" y="630" type="line"/>
      <point x="1256" y="440" type="line"/>
    </contour>
    <contour>
      <point x="827" y="630" type="line"/>
      <point x="867" y="853" type="line"/>
      <point x="673" y="853" type="line"/>
      <point x="633" y="630" type="line"/>
    </contour>
  </outline>
</glyph>
<glyph name="dollar" format="1">
  <unicode hex="0024"/>
  <advance width="1207" height="1548.97"/>
  <outline>
    <contour>
      <point x="100" y="233" type="curve"/>
      <point x="242" y="485" type="line"/>
      <point x="361" y="380"/>
      <point x="454" y="300"/>
      <point x="622" y="300" type="curve" smooth="yes"/>
      <point x="729" y="300"/>
      <point x="804" y="367"/>
      <point x="804" y="453" type="curve" smooth="yes"/>
      <point x="804" y="706"/>
      <point x="147" y="650"/>
      <point x="147" y="1064" type="curve" smooth="yes"/>
      <point x="147" y="1249"/>
      <point x="277" y="1398"/>
      <point x="507" y="1437" type="curve"/>
      <point x="496" y="1612" type="line"/>
      <point x="736" y="1612" type="line"/>
      <point x="725" y="1441" type="line"/>
      <point x="843" y="1427"/>
      <point x="948" y="1386"/>
      <point x="1064" y="1330" type="curve"/>
      <point x="929" y="1099" type="line"/>
      <point x="821" y="1161"/>
      <point x="748" y="1201"/>
      <point x="620" y="1201" type="curve" smooth="yes"/>
      <point x="518" y="1201"/>
      <point x="451" y="1152"/>
      <point x="451" y="1080" type="curve" smooth="yes"/>
      <point x="451" y="854"/>
      <point x="1107" y="893"/>
      <point x="1107" y="481" type="curve" smooth="yes"/>
      <point x="1107" y="297"/>
      <point x="977" y="104"/>
      <point x="725" y="63" type="curve"/>
      <point x="736" y="-111" type="line"/>
      <point x="496" y="-111" type="line"/>
      <point x="507" y="62" type="line"/>
      <point x="358" y="81"/>
      <point x="227" y="139"/>
    </contour>
  </outline>
</glyph>
<glyph name="ampersand" format="1">
  <unicode hex="0026"/>
  <advance width="1610" height="1542.88"/>
  <outline>
    <contour>
      <point x="1354" y="-61" type="line"/>
      <point x="1296" y="-23" type="line" smooth="yes"/>
      <point x="1220" y="27"/>
      <point x="1147" y="81"/>
      <point x="1074" y="135" type="curve"/>
      <point x="950" y="33"/>
      <point x="811" y="-20"/>
      <point x="661" y="-20" type="curve" smooth="yes"/>
      <point x="367" y="-20"/>
      <point x="130" y="182"/>
      <point x="130" y="435" type="curve" smooth="yes"/>
      <point x="130" y="589"/>
      <point x="217" y="715"/>
      <point x="389" y="814" type="curve"/>
      <point x="312" y="936"/>
      <point x="261" y="1062"/>
      <point x="261" y="1171" type="curve" smooth="yes"/>
      <point x="261" y="1370"/>
      <point x="430" y="1520"/>
      <point x="663" y="1520" type="curve" smooth="yes"/>
      <point x="872" y="1520"/>
      <point x="1024" y="1374"/>
      <point x="1024" y="1185" type="curve" smooth="yes"/>
      <point x="1024" y="1025"/>
      <point x="915" y="874"/>
      <point x="732" y="775" type="curve"/>
      <point x="817" y="676"/>
      <point x="932" y="577"/>
      <point x="1038" y="487" type="curve"/>
      <point x="1103" y="590"/>
      <point x="1149" y="701"/>
      <point x="1185" y="814" type="curve"/>
      <point x="1450" y="746" type="line"/>
      <point x="1390" y="578"/>
      <point x="1324" y="439"/>
      <point x="1242" y="322" type="curve"/>
      <point x="1314" y="269"/>
      <point x="1385" y="212"/>
      <point x="1463" y="164" type="curve" smooth="yes"/>
      <point x="1500" y="141" type="line"/>
    </contour>
    <contour>
      <point x="760" y="1161" type="curve" smooth="yes"/>
      <point x="760" y="1232"/>
      <point x="719" y="1289"/>
      <point x="663" y="1289" type="curve" smooth="yes"/>
      <point x="600" y="1289"/>
      <point x="545" y="1218"/>
      <point x="545" y="1136" type="curve" smooth="yes"/>
      <point x="545" y="1083"/>
      <point x="567" y="1016"/>
      <point x="610" y="942" type="curve"/>
      <point x="711" y="1013"/>
      <point x="760" y="1083"/>
    </contour>
    <contour>
      <point x="505" y="656" type="curve"/>
      <point x="436" y="598"/>
      <point x="399" y="533"/>
      <point x="399" y="453" type="curve" smooth="yes"/>
      <point x="399" y="312"/>
      <point x="515" y="216"/>
      <point x="653" y="216" type="curve" smooth="yes"/>
      <point x="734" y="216"/>
      <point x="808" y="250"/>
      <point x="872" y="300" type="curve"/>
      <point x="741" y="411"/>
      <point x="615" y="529"/>
    </contour>
  </outline>
</glyph>
<glyph name="quotesingle" format="1">
  <unicode hex="0027"/>
  <advance width="546" height="1563.91"/>
  <outline>
    <contour>
      <point x="130" y="1520" type="line"/>
      <point x="416" y="1520" type="line"/>
      <point x="382" y="1021" type="line"/>
      <point x="165" y="1021" type="line"/>
    </contour>
  </outline>
</glyph>
<glyph name="parenleft" format="1">
  <unicode hex="0028"/>
  <advance width="751" height="1660"/>
  <outline>
    <contour>
      <point x="691" y="-289" type="line" name="av02"/>
      <point x="484" y="-17"/>
      <point x="380" y="305"/>
      <point x="380" y="627" type="curve" smooth="yes"/>
      <point x="380" y="948"/>
      <point x="484" y="1270"/>
      <point x="691" y="1540" type="curve" name="av01"/>
      <point x="431" y="1540" type="line"/>
      <point x="231" y="1268"/>
      <point x="130" y="946"/>
      <point x="130" y="624" type="curve" smooth="yes"/>
      <point x="130" y="303"/>
      <point x="231" y="-19"/>
      <point x="431" y="-289" type="curve"/>
    </contour>
  </outline>
</glyph>
<glyph name="parenright" format="1">
  <unicode hex="0029"/>
  <advance width="751" height="1660"/>
  <outline>
    <contour>
      <point x="60" y="-289" type="line" name="av02"/>
      <point x="267" y="-17"/>
      <point x="371" y="305"/>
      <point x="371" y="627" type="curve" smooth="yes"/>
      <point x="371" y="948"/>
      <point x="267" y="1270"/>
      <point x="60" y="1540" type="curve" name="av01"/>
      <point x="320" y="1540" type="line"/>
      <point x="520" y="1268"/>
      <point x="621" y="946"/>
      <point x="621" y="624" type="curve" smooth="yes"/>
      <point x="621" y="303"/>
      <point x="520" y="-19"/>
      <point x="320" y="-289" type="curve"/>
    </contour>
  </outline>
</glyph>
<glyph name="asterisk" format="1">
  <unicode hex="002A"/>
  <advance width="1276" height="1660"/>
  <outline>
    <contour>
      <point x="130" y="1074" type="line"/>
      <point x="213" y="1330" type="line"/>
      <point x="543" y="1181" type="line"/>
      <point x="503" y="1541" type="line"/>
      <point x="773" y="1541" type="line"/>
      <point x="733" y="1181" type="line"/>
      <point x="1063" y="1330" type="line"/>
      <point x="1146" y="1074" type="line"/>
      <point x="792" y="1000" type="line"/>
      <point x="1036" y="733" type="line"/>
      <point x="817" y="574" type="line"/>
      <point x="638" y="889" type="line"/>
      <point x="459" y="574" type="line"/>
      <point x="240" y="733" type="line"/>
      <point x="484" y="1000" type="line"/>
    </contour>
  </outline>
</glyph>
<glyph name="plus" format="1">
  <unicode hex="002B"/>
  <advance width="1166" height="1573.02"/>
  <outline>
    <component base="minus"/>
    <contour>
      <point x="460" y="953" type="line"/>
      <point x="705" y="953" type="line"/>
      <point x="705" y="94" type="line"/>
      <point x="460" y="94" type="line"/>
    </contour>
  </outline>
</glyph>
<glyph name="comma" format="1">
  <unicode hex="002C"/>
  <advance width="594" height="1579.15"/>
  <outline>
    <contour>
      <point x="196" y="289" type="line"/>
      <point x="464" y="289" type="line"/>
      <point x="282" y="-214" type="line"/>
      <point x="80" y="-214" type="line"/>
    </contour>
  </outline>
</glyph>
<glyph name="hyphen" format="1">
  <unicode hex="002D"/>
  <advance width="1060" height="1573.02"/>
  <outline>
    <contour>
      <point x="130" y="380" type="line" name="dv01"/>
      <point x="130" y="584" type="line" name="dv02"/>
      <point x="930" y="584" type="line"/>
      <point x="930" y="380" type="line"/>
    </contour>
  </outline>
</glyph>
<glyph name="period" format="1">
  <unicode hex="002E"/>
  <advance width="580" height="1660"/>
  <outline>
    <contour>
      <point x="130" y="140" type="curve" smooth="yes"/>
      <point x="130" y="236"/>
      <point x="194" y="300"/>
      <point x="290" y="300" type="curve" smooth="yes"/>
      <point x="386" y="300"/>
      <point x="450" y="236"/>
      <point x="450" y="140" type="curve" smooth="yes"/>
      <point x="450" y="44"/>
      <point x="386" y="-20"/>
      <point x="290" y="-20" type="curve" smooth="yes"/>
      <point x="194" y="-20"/>
      <point x="130" y="44"/>
    </contour>
  </outline>
</glyph>
<glyph name="slash" format="1">
  <unicode hex="002F"/>
  <advance width="895" height="1573.02"/>
  <outline>
    <contour>
      <point x="905" y="1520" type="line"/>
      <point x="250" y="-20" type="line"/>
      <point x="-10" y="-20" type="line"/>
      <point x="645" y="1520" type="line"/>
    </contour>
  </outline>
</glyph>
<glyph name="zero" format="1">
  <unicode hex="0030"/>
  <advance width="1244" height="1660"/>
  <outline>
    <contour>
      <point x="386" y="750" type="curve" smooth="yes" name="sh02"/>
      <point x="386" y="436"/>
      <point x="467" y="240"/>
      <point x="622" y="240" type="curve" smooth="yes" name="dv02"/>
      <point x="777" y="240"/>
      <point x="858" y="436"/>
      <point x="858" y="750" type="curve" smooth="yes" name="ah01"/>
      <point x="858" y="1064"/>
      <point x="777" y="1260"/>
      <point x="622" y="1260" type="curve" smooth="yes" name="sv01"/>
      <point x="467" y="1260"/>
      <point x="386" y="1064"/>
    </contour>
    <contour>
      <point x="80" y="750" type="curve" smooth="yes" name="sh01"/>
      <point x="80" y="1230"/>
      <point x="267" y="1530"/>
      <point x="622" y="1530" type="curve" smooth="yes" name="at01"/>
      <point x="977" y="1530"/>
      <point x="1164" y="1230"/>
      <point x="1164" y="750" type="curve" smooth="yes" name="sh03"/>
      <point x="1164" y="270"/>
      <point x="977" y="-30"/>
      <point x="622" y="-30" type="curve" smooth="yes" name="dv01"/>
      <point x="267" y="-30"/>
      <point x="80" y="270"/>
    </contour>
  </outline>
</glyph>
<glyph name="one" format="1">
  <unicode hex="0031"/>
  <advance width="943" height="1660"/>
  <outline>
    <contour>
      <point x="575" y="1500" type="line"/>
      <point x="743" y="1500" type="line" name="dh02"/>
      <point x="743" y="0" type="line" name="ab01"/>
      <point x="437" y="0" type="line"/>
      <point x="437" y="1146" type="line"/>
      <point x="148" y="1041" type="line"/>
      <point x="50" y="1309" type="line"/>
    </contour>
  </outline>
</glyph>
<glyph name="two" format="1">
  <unicode hex="0032"/>
  <advance width="1330" height="1551.94"/>
  <outline>
    <contour>
      <point x="130" y="1187" type="line"/>
      <point x="258" y="1413"/>
      <point x="444" y="1531"/>
      <point x="676" y="1531" type="curve" smooth="yes"/>
      <point x="968" y="1531"/>
      <point x="1167" y="1344"/>
      <point x="1167" y="1082" type="curve" smooth="yes"/>
      <point x="1167" y="839"/>
      <point x="997" y="564"/>
      <point x="647" y="270" type="curve"/>
      <point x="1220" y="270" type="line"/>
      <point x="1220" y="0" type="line"/>
      <point x="192" y="0" type="line"/>
      <point x="192" y="197" type="line"/>
      <point x="590" y="522"/>
      <point x="867" y="882"/>
      <point x="867" y="1078" type="curve" smooth="yes"/>
      <point x="867" y="1184"/>
      <point x="785" y="1261"/>
      <point x="669" y="1261" type="curve" smooth="yes"/>
      <point x="554" y="1261"/>
      <point x="455" y="1188"/>
      <point x="349" y="1025" type="curve"/>
    </contour>
  </outline>
</glyph>
<glyph name="three" format="1">
  <unicode hex="0033"/>
  <advance width="1283" height="1551.94"/>
  <outline>
    <contour>
      <point x="905" y="784" type="line"/>
      <point x="1088" y="743"/>
      <point x="1213" y="621"/>
      <point x="1213" y="432" type="curve" smooth="yes"/>
      <point x="1213" y="150"/>
      <point x="994" y="-30"/>
      <point x="650" y="-30" type="curve" smooth="yes"/>
      <point x="421" y="-30"/>
      <point x="245" y="50"/>
      <point x="90" y="225" type="curve"/>
      <point x="300" y="421" type="line"/>
      <point x="399" y="313"/>
      <point x="473" y="240"/>
      <point x="641" y="240" type="curve" smooth="yes"/>
      <point x="796" y="240"/>
      <point x="903" y="320"/>
      <point x="903" y="447" type="curve" smooth="yes"/>
      <point x="903" y="586"/>
      <point x="771" y="654"/>
      <point x="561" y="654" type="curve" smooth="yes"/>
      <point x="435" y="654" type="line"/>
      <point x="435" y="904" type="line"/>
      <point x="598" y="904" type="line" smooth="yes"/>
      <point x="772" y="904"/>
      <point x="838" y="998"/>
      <point x="838" y="1092" type="curve" smooth="yes"/>
      <point x="838" y="1213"/>
      <point x="727" y="1259"/>
      <point x="632" y="1259" type="curve" smooth="yes"/>
      <point x="528" y="1259"/>
      <point x="423" y="1202"/>
      <point x="339" y="1100" type="curve"/>
      <point x="146" y="1280" type="line"/>
      <point x="288" y="1452"/>
      <point x="447" y="1530"/>
      <point x="657" y="1530" type="curve" smooth="yes"/>
      <point x="895" y="1530"/>
      <point x="1148" y="1380"/>
      <point x="1148" y="1121" type="curve" smooth="yes"/>
      <point x="1148" y="960"/>
      <point x="1051" y="846"/>
      <point x="905" y="798" type="curve"/>
    </contour>
  </outline>
</glyph>
<glyph name="four" format="1">
  <unicode hex="0034"/>
  <advance width="1342" height="1660"/>
  <outline>
    <contour>
      <point x="70" y="500" type="line" name="dv02"/>
      <point x="70" y="284" type="line" name="dv01"/>
      <point x="824" y="284" type="line"/>
      <point x="824" y="0" type="line"/>
      <point x="1110" y="0" type="line"/>
      <point x="1110" y="284" type="line"/>
      <point x="1312" y="284" type="line"/>
      <point x="1312" y="544" type="line"/>
      <point x="1110" y="544" type="line"/>
      <point x="1110" y="1500" type="line" name="at01"/>
      <point x="819" y="1500" type="line"/>
    </contour>
    <contour>
      <point x="400" y="544" type="line"/>
      <point x="843" y="1136" type="line"/>
      <point x="826" y="937"/>
      <point x="824" y="756"/>
      <point x="824" y="567" type="curve" smooth="yes"/>
      <point x="824" y="544" type="line"/>
    </contour>
  </outline>
</glyph>
<glyph name="five" format="1">
  <unicode hex="0035"/>
  <advance width="1213" height="1551.94"/>
  <outline>
    <contour>
      <point x="100" y="116" type="curve"/>
      <point x="257" y="338" type="line"/>
      <point x="349" y="272"/>
      <point x="433" y="222"/>
      <point x="557" y="222" type="curve" smooth="yes"/>
      <point x="719" y="222"/>
      <point x="813" y="341"/>
      <point x="813" y="476" type="curve" smooth="yes"/>
      <point x="813" y="617"/>
      <point x="713" y="731"/>
      <point x="541" y="731" type="curve" smooth="yes"/>
      <point x="485" y="731"/>
      <point x="433" y="719"/>
      <point x="389" y="693" type="curve" smooth="yes"/>
      <point x="339" y="664" type="line"/>
      <point x="188" y="838" type="line"/>
      <point x="259" y="1503" type="line"/>
      <point x="1050" y="1503" type="line"/>
      <point x="1050" y="1233" type="line"/>
      <point x="501" y="1233" type="line"/>
      <point x="473" y="972" type="line"/>
      <point x="508" y="978"/>
      <point x="543" y="981"/>
      <point x="579" y="981" type="curve" smooth="yes"/>
      <point x="883" y="981"/>
      <point x="1123" y="778"/>
      <point x="1123" y="475" type="curve" smooth="yes"/>
      <point x="1123" y="165"/>
      <point x="871" y="-28"/>
      <point x="557" y="-28" type="curve" smooth="yes"/>
      <point x="390" y="-28"/>
      <point x="246" y="27"/>
    </contour>
  </outline>
</glyph>
<glyph name="six" format="1">
  <unicode hex="0036"/>
  <advance width="1263" height="1551.94"/>
  <outline>
    <contour>
      <point x="656" y="930" type="curve" smooth="yes"/>
      <point x="957" y="930"/>
      <point x="1173" y="726"/>
      <point x="1173" y="442" type="curve" smooth="yes"/>
      <point x="1173" y="151"/>
      <point x="947" y="-56"/>
      <point x="635" y="-56" type="curve" smooth="yes"/>
      <point x="311" y="-56"/>
      <point x="100" y="166"/>
      <point x="100" y="504" type="curve" smooth="yes"/>
      <point x="100" y="886"/>
      <point x="369" y="1294"/>
      <point x="779" y="1530" type="curve"/>
      <point x="963" y="1321" type="line"/>
      <point x="773" y="1211"/>
      <point x="618" y="1068"/>
      <point x="524" y="915" type="curve"/>
      <point x="562" y="924"/>
      <point x="604" y="930"/>
    </contour>
    <contour>
      <point x="640" y="694" type="curve" smooth="yes"/>
      <point x="509" y="694"/>
      <point x="413" y="593"/>
      <point x="413" y="454" type="curve" smooth="yes"/>
      <point x="413" y="315"/>
      <point x="508" y="214"/>
      <point x="638" y="214" type="curve" smooth="yes"/>
      <point x="768" y="214"/>
      <point x="863" y="316"/>
      <point x="863" y="456" type="curve" smooth="yes"/>
      <point x="863" y="595"/>
      <point x="770" y="694"/>
    </contour>
  </outline>
</glyph>
<glyph name="seven" format="1">
  <unicode hex="0037"/>
  <advance width="1202" height="1660"/>
  <outline>
    <contour>
      <point x="130" y="1230" type="line"/>
      <point x="130" y="1500" type="line"/>
      <point x="1102" y="1500" type="line"/>
      <point x="1102" y="1288" type="line"/>
      <point x="591" y="0" type="line" name="ab01"/>
      <point x="261" y="0" type="line"/>
      <point x="747" y="1230" type="line"/>
    </contour>
  </outline>
</glyph>
<glyph name="eight" format="1">
  <unicode hex="0038"/>
  <advance width="1260" height="1573.02"/>
  <outline>
    <contour>
      <point x="365" y="800" type="curve"/>
      <point x="229" y="865"/>
      <point x="148" y="984"/>
      <point x="148" y="1137" type="curve" smooth="yes" name="ih01"/>
      <point x="148" y="1373"/>
      <point x="340" y="1530"/>
      <point x="630" y="1530" type="curve" smooth="yes" name="at01"/>
      <point x="918" y="1530"/>
      <point x="1110" y="1373"/>
      <point x="1110" y="1137" type="curve" smooth="yes" name="dh04"/>
      <point x="1110" y="985"/>
      <point x="1029" y="865"/>
      <point x="894" y="800" type="curve"/>
      <point x="1060" y="730"/>
      <point x="1160" y="590"/>
      <point x="1160" y="409" type="curve" smooth="yes" name="sh02"/>
      <point x="1160" y="146"/>
      <point x="948" y="-30"/>
      <point x="630" y="-30" type="curve" smooth="yes" name="dv01"/>
      <point x="312" y="-30"/>
      <point x="100" y="146"/>
      <point x="100" y="409" type="curve" smooth="yes" name="dh01"/>
      <point x="100" y="590"/>
      <point x="200" y="730"/>
    </contour>
    <contour>
      <point x="630" y="240" type="curve" smooth="yes" name="dv02"/>
      <point x="774" y="240"/>
      <point x="869" y="324"/>
      <point x="869" y="450" type="curve" smooth="yes" name="ih02"/>
      <point x="869" y="576"/>
      <point x="774" y="660"/>
      <point x="630" y="660" type="curve" smooth="yes" name="dv03"/>
      <point x="486" y="660"/>
      <point x="391" y="576"/>
      <point x="391" y="450" type="curve" smooth="yes" name="dh02"/>
      <point x="391" y="324"/>
      <point x="486" y="240"/>
    </contour>
    <contour>
      <point x="440" y="1110" type="curve" smooth="yes" name="sh01"/>
      <point x="440" y="1002"/>
      <point x="516" y="930"/>
      <point x="630" y="930" type="curve" smooth="yes" name="dv04"/>
      <point x="742" y="930"/>
      <point x="819" y="1002"/>
      <point x="819" y="1110" type="curve" smooth="yes" name="dh03"/>
      <point x="819" y="1219"/>
      <point x="742" y="1290"/>
      <point x="630" y="1290" type="curve" smooth="yes" name="sv01"/>
      <point x="516" y="1290"/>
      <point x="440" y="1219"/>
    </contour>
  </outline>
</glyph>
<glyph name="nine" format="1">
  <unicode hex="0039"/>
  <advance width="1263" height="1573.02"/>
  <outline>
    <contour>
      <point x="607" y="544" type="curve" smooth="yes"/>
      <point x="306" y="544"/>
      <point x="90" y="748"/>
      <point x="90" y="1032" type="curve" smooth="yes"/>
      <point x="90" y="1323"/>
      <point x="316" y="1530"/>
      <point x="628" y="1530" type="curve" smooth="yes"/>
      <point x="952" y="1530"/>
      <point x="1163" y="1308"/>
      <point x="1163" y="970" type="curve" smooth="yes"/>
      <point x="1163" y="588"/>
      <point x="894" y="180"/>
      <point x="484" y="-56" type="curve"/>
      <point x="300" y="153" type="line"/>
      <point x="490" y="263"/>
      <point x="645" y="406"/>
      <point x="739" y="559" type="curve"/>
      <point x="701" y="550"/>
      <point x="659" y="544"/>
    </contour>
    <contour>
      <point x="623" y="780" type="curve" smooth="yes"/>
      <point x="754" y="780"/>
      <point x="850" y="881"/>
      <point x="850" y="1020" type="curve" smooth="yes"/>
      <point x="850" y="1159"/>
      <point x="755" y="1260"/>
      <point x="625" y="1260" type="curve" smooth="yes"/>
      <point x="495" y="1260"/>
      <point x="400" y="1158"/>
      <point x="400" y="1018" type="curve" smooth="yes"/>
      <point x="400" y="879"/>
      <point x="493" y="780"/>
    </contour>
  </outline>
</glyph>
<glyph name="colon" format="1">
  <unicode hex="003A"/>
  <advance width="580" height="1660"/>
  <outline>
    <contour>
      <point x="130" y="820" type="curve" smooth="yes"/>
      <point x="130" y="916"/>
      <point x="194" y="980"/>
      <point x="290" y="980" type="curve" smooth="yes"/>
      <point x="386" y="980"/>
      <point x="450" y="916"/>
      <point x="450" y="820" type="curve" smooth="yes"/>
      <point x="450" y="724"/>
      <point x="386" y="660"/>
      <point x="290" y="660" type="curve" smooth="yes"/>
      <point x="194" y="660"/>
      <point x="130" y="724"/>
    </contour>
    <contour>
      <point x="130" y="140" type="curve" smooth="yes"/>
      <point x="130" y="236"/>
      <point x="194" y="300"/>
      <point x="290" y="300" type="curve" smooth="yes"/>
      <point x="386" y="300"/>
      <point x="450" y="236"/>
      <point x="450" y="140" type="curve" smooth="yes"/>
      <point x="450" y="44"/>
      <point x="386" y="-20"/>
      <point x="290" y="-20" type="curve" smooth="yes"/>
      <point x="194" y="-20"/>
      <point x="130" y="44"/>
    </contour>
  </outline>
</glyph>
<glyph name="semicolon" format="1">
  <unicode hex="003B"/>
  <advance width="670" height="1660"/>
  <outline>
    <contour>
      <point x="220" y="820" type="curve" smooth="yes"/>
      <point x="220" y="916"/>
      <point x="284" y="980"/>
      <point x="380" y="980" type="curve" smooth="yes"/>
      <point x="476" y="980"/>
      <point x="540" y="916"/>
      <point x="540" y="820" type="curve" smooth="yes"/>
      <point x="540" y="724"/>
      <point x="476" y="660"/>
      <point x="380" y="660" type="curve" smooth="yes"/>
      <point x="284" y="660"/>
      <point x="220" y="724"/>
    </contour>
    <contour>
      <point x="246" y="289" type="line"/>
      <point x="514" y="289" type="line"/>
      <point x="332" y="-214" type="line"/>
      <point x="130" y="-214" type="line"/>
    </contour>
  </outline>
</glyph>
<glyph name="less" format="1">
  <unicode hex="003C"/>
  <advance width="1300" height="1573.02"/>
  <outline>
    <contour>
      <point x="1170" y="1094" type="line"/>
      <point x="1170" y="853" type="line"/>
      <point x="398" y="522" type="line"/>
      <point x="1170" y="190" type="line"/>
      <point x="1170" y="-51" type="line"/>
      <point x="120" y="426" type="line"/>
      <point x="120" y="617" type="line"/>
    </contour>
  </outline>
</glyph>
<glyph name="equal" format="1">
  <unicode hex="003D"/>
  <advance width="1312" height="1573.02"/>
  <outline>
    <contour>
      <point x="130" y="823" type="line"/>
      <point x="1182" y="823" type="line"/>
      <point x="1182" y="618" type="line"/>
      <point x="130" y="618" type="line"/>
    </contour>
    <contour>
      <point x="130" y="369" type="line"/>
      <point x="1182" y="369" type="line"/>
      <point x="1182" y="164" type="line"/>
      <point x="130" y="164" type="line"/>
    </contour>
  </outline>
</glyph>
<glyph name="greater" format="1">
  <unicode hex="003E"/>
  <advance width="1300" height="1660"/>
  <outline>
    <contour>
      <point x="1180" y="426" type="line"/>
      <point x="1180" y="617" type="line"/>
      <point x="130" y="1094" type="line"/>
      <point x="130" y="853" type="line"/>
      <point x="902" y="522" type="line"/>
      <point x="130" y="190" type="line"/>
      <point x="130" y="-51" type="line"/>
    </contour>
  </outline>
</glyph>
<glyph name="question" format="1">
  <unicode hex="003F"/>
  <advance width="1120" height="1573.02"/>
  <outline>
    <contour>
      <point x="130" y="1383" type="line"/>
      <point x="239" y="1464"/>
      <point x="387" y="1531"/>
      <point x="559" y="1531" type="curve" smooth="yes"/>
      <point x="859" y="1531"/>
      <point x="990" y="1329"/>
      <point x="990" y="1136" type="curve" smooth="yes"/>
      <point x="990" y="810"/>
      <point x="616" y="803"/>
      <point x="616" y="391" type="curve"/>
      <point x="373" y="391" type="line"/>
      <point x="373" y="877"/>
      <point x="722" y="932"/>
      <point x="722" y="1141" type="curve" smooth="yes"/>
      <point x="722" y="1231"/>
      <point x="657" y="1307"/>
      <point x="536" y="1307" type="curve" smooth="yes"/>
      <point x="427" y="1307"/>
      <point x="335" y="1244"/>
      <point x="251" y="1182" type="curve"/>
    </contour>
    <contour>
      <point x="334" y="140" type="curve" smooth="yes"/>
      <point x="334" y="236"/>
      <point x="398" y="300"/>
      <point x="494" y="300" type="curve" smooth="yes"/>
      <point x="590" y="300"/>
      <point x="654" y="236"/>
      <point x="654" y="140" type="curve" smooth="yes"/>
      <point x="654" y="44"/>
      <point x="590" y="-20"/>
      <point x="494" y="-20" type="curve" smooth="yes"/>
      <point x="398" y="-20"/>
      <point x="334" y="44"/>
    </contour>
  </outline>
</glyph>
<glyph name="at" format="1">
  <unicode hex="0040"/>
  <advance width="1998" height="1489.96"/>
  <outline>
    <contour>
      <point x="893" y="-263" type="curve" smooth="yes"/>
      <point x="1069" y="-263"/>
      <point x="1248" y="-220"/>
      <point x="1417" y="-132" type="curve"/>
      <point x="1339" y="33" type="line"/>
      <point x="1193" y="-49"/>
      <point x="1046" y="-87"/>
      <point x="904" y="-87" type="curve" smooth="yes"/>
      <point x="509" y="-87"/>
      <point x="314" y="206"/>
      <point x="314" y="517" type="curve" smooth="yes"/>
      <point x="314" y="870"/>
      <point x="565" y="1247"/>
      <point x="1064" y="1247" type="curve" smooth="yes"/>
      <point x="1385" y="1247"/>
      <point x="1688" y="1051"/>
      <point x="1688" y="637" type="curve" smooth="yes"/>
      <point x="1688" y="453"/>
      <point x="1591" y="269"/>
      <point x="1512" y="269" type="curve" smooth="yes"/>
      <point x="1463" y="269"/>
      <point x="1446" y="342"/>
      <point x="1446" y="386" type="curve" smooth="yes"/>
      <point x="1446" y="580"/>
      <point x="1472" y="792"/>
      <point x="1506" y="984" type="curve"/>
      <point x="1307" y="984" type="line"/>
      <point x="1299" y="858" type="line"/>
      <point x="1239" y="979"/>
      <point x="1106" y="1044"/>
      <point x="974" y="1044" type="curve" smooth="yes"/>
      <point x="726" y="1044"/>
      <point x="492" y="817"/>
      <point x="492" y="533" type="curve" smooth="yes"/>
      <point x="492" y="276"/>
      <point x="683" y="82"/>
      <point x="943" y="82" type="curve" smooth="yes"/>
      <point x="1063" y="82"/>
      <point x="1201" y="146"/>
      <point x="1273" y="264" type="curve"/>
      <point x="1321" y="123"/>
      <point x="1401" y="82"/>
      <point x="1493" y="82" type="curve" smooth="yes"/>
      <point x="1714" y="82"/>
      <point x="1878" y="321"/>
      <point x="1878" y="635" type="curve" smooth="yes"/>
      <point x="1878" y="1162"/>
      <point x="1485" y="1413"/>
      <point x="1071" y="1413" type="curve" smooth="yes"/>
      <point x="442" y="1413"/>
      <point x="120" y="944"/>
      <point x="120" y="502" type="curve" smooth="yes"/>
      <point x="120" y="108"/>
      <point x="375" y="-263"/>
    </contour>
    <contour>
      <point x="721" y="543" type="curve" smooth="yes"/>
      <point x="721" y="709"/>
      <point x="854" y="846"/>
      <point x="1015" y="846" type="curve" smooth="yes"/>
      <point x="1158" y="846"/>
      <point x="1273" y="740"/>
      <point x="1273" y="608" type="curve" smooth="yes"/>
      <point x="1273" y="430"/>
      <point x="1143" y="293"/>
      <point x="973" y="293" type="curve" smooth="yes"/>
      <point x="825" y="293"/>
      <point x="721" y="397"/>
    </contour>
  </outline>
</glyph>
<glyph name="A" format="1">
  <unicode hex="0041"/>
  <advance width="1513" height="1660"/>
  <outline>
    <contour>
      <point x="0" y="0" type="line" name="ab01"/>
      <point x="585" y="1500" type="line"/>
      <point x="928" y="1500" type="line" name="at02"/>
      <point x="1513" y="0" type="line"/>
      <point x="1186" y="0" type="line" name="ab02"/>
      <point x="1060" y="336" type="line"/>
      <point x="453" y="336" type="line"/>
      <point x="327" y="0" type="line"/>
    </contour>
    <contour>
      <point x="960" y="606" type="line"/>
      <point x="880" y="840"/>
      <point x="822" y="1010"/>
      <point x="757" y="1208" type="curve"/>
      <point x="691" y="1010"/>
      <point x="633" y="840"/>
      <point x="553" y="606" type="curve"/>
    </contour>
    <contour>
      <point x="1374" y="0" type="move" name="bottom"/>
    </contour>
    <contour>
      <point x="757" y="1520" type="move" name="top"/>
    </contour>
  </outline>
</glyph>
<glyph name="B" format="1">
  <unicode hex="0042"/>
  <advance width="1319" height="1660"/>
  <outline>
    <contour>
      <point x="130" y="0" type="line"/>
      <point x="697" y="0" type="line" smooth="yes" name="ab02"/>
      <point x="1042" y="0"/>
      <point x="1244" y="145"/>
      <point x="1244" y="415" type="curve" smooth="yes" name="sh02"/>
      <point x="1244" y="602"/>
      <point x="1146" y="729"/>
      <point x="970" y="789" type="curve"/>
      <point x="1109" y="849"/>
      <point x="1186" y="960"/>
      <point x="1186" y="1119" type="curve" smooth="yes" name="dh03"/>
      <point x="1186" y="1367"/>
      <point x="999" y="1500"/>
      <point x="678" y="1500" type="curve" smooth="yes"/>
      <point x="130" y="1500" type="line" name="at01"/>
    </contour>
    <contour>
      <point x="436" y="270" type="line"/>
      <point x="436" y="660" type="line"/>
      <point x="686" y="660" type="line" smooth="yes" name="dv01"/>
      <point x="843" y="660"/>
      <point x="934" y="592"/>
      <point x="934" y="466" type="curve" smooth="yes" name="ih01"/>
      <point x="934" y="339"/>
      <point x="843" y="270"/>
      <point x="686" y="270" type="curve" smooth="yes" name="sv05"/>
    </contour>
    <contour>
      <point x="666" y="1230" type="line" smooth="yes" name="sv03"/>
      <point x="799" y="1230"/>
      <point x="876" y="1172"/>
      <point x="876" y="1065" type="curve" smooth="yes" name="dh02"/>
      <point x="876" y="958"/>
      <point x="799" y="900"/>
      <point x="666" y="900" type="curve" smooth="yes" name="sv02"/>
      <point x="436" y="900" type="line"/>
      <point x="436" y="1230" type="line"/>
    </contour>
  </outline>
</glyph>
<glyph name="C" format="1">
  <unicode hex="0043"/>
  <advance width="1459" height="1660"/>
  <outline>
    <contour>
      <point x="1389" y="191" type="line"/>
      <point x="1250" y="53"/>
      <point x="1055" y="-30"/>
      <point x="830" y="-30" type="curve" smooth="yes" name="dv01"/>
      <point x="379" y="-30"/>
      <point x="50" y="300"/>
      <point x="50" y="750" type="curve" smooth="yes" name="sh01"/>
      <point x="50" y="1200"/>
      <point x="379" y="1530"/>
      <point x="830" y="1530" type="curve" smooth="yes" name="at01"/>
      <point x="1055" y="1530"/>
      <point x="1250" y="1448"/>
      <point x="1389" y="1309" type="curve"/>
      <point x="1180" y="1100" type="line"/>
      <point x="1096" y="1200"/>
      <point x="973" y="1260"/>
      <point x="830" y="1260" type="curve" smooth="yes" name="sv01"/>
      <point x="558" y="1260"/>
      <point x="360" y="1044"/>
      <point x="360" y="750" type="curve" smooth="yes" name="sh02"/>
      <point x="360" y="456"/>
      <point x="558" y="240"/>
      <point x="830" y="240" type="curve" smooth="yes" name="dv02"/>
      <point x="973" y="240"/>
      <point x="1096" y="300"/>
      <point x="1180" y="400" type="curve"/>
    </contour>
    <contour>
      <point x="864" y="-20" type="move" name="bottom"/>
    </contour>
    <contour>
      <point x="864" y="1520" type="move" name="top"/>
    </contour>
  </outline>
</glyph>
<glyph name="D" format="1">
  <unicode hex="0044"/>
  <advance width="1568" height="1660"/>
  <outline>
    <contour>
      <point x="602" y="-2" type="line" smooth="yes" name="ab01"/>
      <point x="1191" y="-2"/>
      <point x="1518" y="272"/>
      <point x="1518" y="750" type="curve" smooth="yes" name="sh01"/>
      <point x="1518" y="1226"/>
      <point x="1191" y="1498"/>
      <point x="602" y="1498" type="curve" smooth="yes" name="at01"/>
      <point x="130" y="1498" type="line" name="sh02"/>
      <point x="130" y="-2" type="line"/>
    </contour>
    <contour>
      <point x="609" y="268" type="curve" smooth="yes" name="sv01"/>
      <point x="436" y="268" type="line"/>
      <point x="436" y="1228" type="line" name="sv02"/>
      <point x="609" y="1228" type="line" smooth="yes"/>
      <point x="996" y="1228"/>
      <point x="1208" y="1054"/>
      <point x="1208" y="750" type="curve" smooth="yes" name="ah01"/>
      <point x="1208" y="444"/>
      <point x="996" y="268"/>
    </contour>
    <contour>
      <point x="824" y="1520" type="move" name="top"/>
    </contour>
  </outline>
</glyph>
<glyph name="E" format="1">
  <unicode hex="0045"/>
  <advance width="1174" height="1660"/>
  <outline>
    <contour>
      <point x="130" y="1500" type="line"/>
      <point x="130" y="0" type="line" name="ab01"/>
      <point x="1054" y="0" type="line"/>
      <point x="1054" y="270" type="line" name="sv01"/>
      <point x="406" y="270" type="line" name="dh01"/>
      <point x="406" y="636" type="line" name="dv01"/>
      <point x="984" y="636" type="line"/>
      <point x="984" y="906" type="line"/>
      <point x="406" y="906" type="line" name="dv02"/>
      <point x="406" y="1230" type="line" name="sv02"/>
      <point x="1024" y="1230" type="line"/>
      <point x="1024" y="1500" type="line" name="at01"/>
    </contour>
    <contour>
      <point x="607" y="1520" type="move" name="top"/>
    </contour>
    <contour>
      <point x="887" y="0" type="move" name="bottom"/>
    </contour>
  </outline>
</glyph>
<glyph name="F" format="1">
  <unicode hex="0046"/>
  <advance width="1154" height="1660"/>
  <outline>
    <contour>
      <point x="130" y="1500" type="line"/>
      <point x="130" y="0" type="line" name="ab01"/>
      <point x="436" y="0" type="line" name="dh01"/>
      <point x="436" y="636" type="line" name="dv01"/>
      <point x="1014" y="636" type="line"/>
      <point x="1014" y="906" type="line"/>
      <point x="436" y="906" type="line" name="dv02"/>
      <point x="436" y="1230" type="line" name="sv02"/>
      <point x="1054" y="1230" type="line"/>
      <point x="1054" y="1500" type="line" name="at01"/>
    </contour>
  </outline>
</glyph>
<glyph name="G" format="1">
  <unicode hex="0047"/>
  <advance width="1603" height="1660"/>
  <outline>
    <contour>
      <point x="830" y="1530" type="curve" smooth="yes" name="at01"/>
      <point x="1049" y="1530"/>
      <point x="1246" y="1452"/>
      <point x="1389" y="1309" type="curve"/>
      <point x="1160" y="1109" type="line"/>
      <point x="1080" y="1205"/>
      <point x="961" y="1260"/>
      <point x="818" y="1260" type="curve" smooth="yes"/>
      <point x="543" y="1260"/>
      <point x="360" y="1056"/>
      <point x="360" y="750" type="curve" smooth="yes"/>
      <point x="360" y="444"/>
      <point x="543" y="240"/>
      <point x="818" y="240" type="curve" smooth="yes"/>
      <point x="1042" y="240"/>
      <point x="1206" y="375"/>
      <point x="1259" y="589" type="curve"/>
      <point x="816" y="589" type="line"/>
      <point x="816" y="859" type="line"/>
      <point x="1538" y="859" type="line" name="dv04"/>
      <point x="1546" y="804" type="line" name="sv01"/>
      <point x="1550" y="768"/>
      <point x="1553" y="731"/>
      <point x="1553" y="690" type="curve" smooth="yes" name="sh01"/>
      <point x="1553" y="273"/>
      <point x="1245" y="-30"/>
      <point x="822" y="-30" type="curve" smooth="yes" name="dv01"/>
      <point x="378" y="-30"/>
      <point x="50" y="302"/>
      <point x="50" y="750" type="curve" smooth="yes" name="sh02"/>
      <point x="50" y="1201"/>
      <point x="380" y="1530"/>
    </contour>
    <contour>
      <point x="802" y="1520" type="move" name="top"/>
    </contour>
    <contour>
      <point x="802" y="-20" type="move" name="bottom"/>
    </contour>
  </outline>
</glyph>
<glyph name="H" format="1">
  <unicode hex="0048"/>
  <advance width="1529" height="1660"/>
  <outline>
    <contour>
      <point x="130" y="1500" type="line" name="sh01"/>
      <point x="130" y="0" type="line"/>
      <point x="436" y="0" type="line" name="ab01"/>
      <point x="436" y="605" type="line" name="dv01"/>
      <point x="1093" y="605" type="line"/>
      <point x="1093" y="0" type="line" name="ab02"/>
      <point x="1399" y="0" type="line" name="sh02"/>
      <point x="1399" y="1500" type="line" name="at01"/>
      <point x="1093" y="1500" type="line" name="sh03"/>
      <point x="1093" y="875" type="line"/>
      <point x="436" y="875" type="line" name="dv02"/>
      <point x="436" y="1500" type="line" name="at02"/>
    </contour>
    <contour>
      <point x="765" y="1520" type="move" name="top"/>
    </contour>
  </outline>
</glyph>
<glyph name="J" format="1">
  <unicode hex="004A"/>
  <advance width="586" height="1660"/>
  <outline>
    <contour>
      <point x="-125" y="-360" type="line"/>
      <point x="275" y="-360"/>
      <point x="456" y="-195"/>
      <point x="456" y="170" type="curve" smooth="yes"/>
      <point x="456" y="1500" type="line"/>
      <point x="150" y="1500" type="line"/>
      <point x="150" y="151" type="line" smooth="yes"/>
      <point x="150" y="-17"/>
      <point x="52" y="-100"/>
      <point x="-145" y="-100" type="curve"/>
    </contour>
    <contour>
      <point x="303" y="1466" type="move" name="top"/>
    </contour>
  </outline>
</glyph>
<glyph name="K" format="1">
  <unicode hex="004B"/>
  <advance width="1433"/>
  <outline>
    <contour>
      <point x="436" y="0" type="line" name="ab01"/>
      <point x="436" y="413" type="line"/>
      <point x="592" y="599" type="line"/>
      <point x="1023" y="0" type="line"/>
      <point x="1433" y="0" type="line" name="ab02"/>
      <point x="813" y="862" type="line"/>
      <point x="1351" y="1500" type="line"/>
      <point x="959" y="1500" type="line" name="at02"/>
      <point x="595" y="1068" type="line"/>
      <point x="531" y="979"/>
      <point x="482" y="904"/>
      <point x="436" y="831" type="curve"/>
      <point x="436" y="1500" type="line" name="dh01"/>
      <point x="130" y="1500" type="line" name="at01"/>
      <point x="130" y="0" type="line"/>
    </contour>
  </outline>
</glyph>
<glyph name="L" format="1">
  <unicode hex="004C"/>
  <advance width="1154" height="1660"/>
  <outline>
    <contour>
      <point x="1074" y="0" type="line" name="ab01"/>
      <point x="1074" y="270" type="line" name="sv01"/>
      <point x="436" y="270" type="line"/>
      <point x="436" y="1500" type="line" name="at01"/>
      <point x="130" y="1500" type="line" name="dh01"/>
      <point x="130" y="0" type="line"/>
    </contour>
    <contour>
      <point x="250" y="1520" type="move" name="top"/>
    </contour>
    <contour>
      <point x="602" y="-20" type="move" name="bottom"/>
    </contour>
  </outline>
</glyph>
<glyph name="M" format="1">
  <unicode hex="004D"/>
  <advance width="1889" height="1660"/>
  <outline>
    <contour>
      <point x="130" y="0" type="line"/>
      <point x="130" y="1500" type="line" name="at01"/>
      <point x="528" y="1500" type="line"/>
      <point x="858" y="793" type="line"/>
      <point x="889" y="716"/>
      <point x="919" y="638"/>
      <point x="947" y="559" type="curve"/>
      <point x="975" y="640"/>
      <point x="1007" y="722"/>
      <point x="1040" y="793" type="curve" smooth="yes"/>
      <point x="1369" y="1500" type="line"/>
      <point x="1759" y="1500" type="line" name="at03"/>
      <point x="1759" y="0" type="line" name="ab02"/>
      <point x="1453" y="0" type="line" name="ah01"/>
      <point x="1453" y="365"/>
      <point x="1458" y="708"/>
      <point x="1479" y="1058" type="curve"/>
      <point x="1444" y="966"/>
      <point x="1406" y="875"/>
      <point x="1365" y="787" type="curve" smooth="yes"/>
      <point x="1112" y="245" type="line"/>
      <point x="776" y="245" type="line"/>
      <point x="524" y="785" type="line"/>
      <point x="483" y="886"/>
      <point x="444" y="983"/>
      <point x="407" y="1082" type="curve"/>
      <point x="429" y="734"/>
      <point x="436" y="449"/>
      <point x="436" y="0" type="curve" name="ab01"/>
    </contour>
  </outline>
</glyph>
<glyph name="O" format="1">
  <unicode hex="004F"/>
  <advance width="1660" height="1660"/>
  <outline>
    <contour>
      <point x="360" y="750" type="curve" smooth="yes" name="sh02"/>
      <point x="360" y="456"/>
      <point x="558" y="240"/>
      <point x="830" y="240" type="curve" smooth="yes" name="dv02"/>
      <point x="1101" y="240"/>
      <point x="1300" y="456"/>
      <point x="1300" y="750" type="curve" smooth="yes" name="ah01"/>
      <point x="1300" y="1044"/>
      <point x="1101" y="1260"/>
      <point x="830" y="1260" type="curve" smooth="yes" name="sv01"/>
      <point x="558" y="1260"/>
      <point x="360" y="1044"/>
    </contour>
    <contour>
      <point x="50" y="750" type="curve" smooth="yes" name="sh01"/>
      <point x="50" y="1200"/>
      <point x="379" y="1530"/>
      <point x="830" y="1530" type="curve" smooth="yes" name="at01"/>
      <point x="1280" y="1530"/>
      <point x="1610" y="1200"/>
      <point x="1610" y="750" type="curve" smooth="yes" name="sh03"/>
      <point x="1610" y="300"/>
      <point x="1280" y="-30"/>
      <point x="830" y="-30" type="curve" smooth="yes" name="dv01"/>
      <point x="379" y="-30"/>
      <point x="50" y="300"/>
    </contour>
    <contour>
      <point x="830" y="1520" type="move" name="top"/>
    </contour>
  </outline>
</glyph>
<glyph name="P" format="1">
  <unicode hex="0050"/>
  <advance width="1271" height="1660"/>
  <outline>
    <contour>
      <point x="130" y="0" type="line"/>
      <point x="435" y="0" type="line"/>
      <point x="435" y="513" type="line"/>
      <point x="648" y="513" type="line" smooth="yes"/>
      <point x="1019" y="513"/>
      <point x="1241" y="706"/>
      <point x="1241" y="1008" type="curve" smooth="yes"/>
      <point x="1241" y="1310"/>
      <point x="1020" y="1500"/>
      <point x="648" y="1500" type="curve" smooth="yes"/>
      <point x="130" y="1500" type="line"/>
    </contour>
    <contour>
      <point x="617" y="1245" type="line" smooth="yes"/>
      <point x="822" y="1245"/>
      <point x="931" y="1145"/>
      <point x="931" y="1007" type="curve" smooth="yes"/>
      <point x="931" y="868"/>
      <point x="822" y="767"/>
      <point x="617" y="767" type="curve" smooth="yes"/>
      <point x="435" y="767" type="line"/>
      <point x="435" y="1245" type="line"/>
    </contour>
  </outline>
</glyph>
<glyph name="Q" format="1">
  <unicode hex="0051"/>
  <advance width="1660" height="1660"/>
  <outline>
    <contour>
      <point x="830" y="1530" type="curve" smooth="yes" name="at01"/>
      <point x="1280" y="1530"/>
      <point x="1610" y="1200"/>
      <point x="1610" y="750" type="curve" smooth="yes" name="sh03"/>
      <point x="1610" y="446"/>
      <point x="1459" y="196"/>
      <point x="1222" y="67" type="curve"/>
      <point x="1272" y="64"/>
      <point x="1322" y="62"/>
      <point x="1379" y="62" type="curve" smooth="yes"/>
      <point x="1449" y="62"/>
      <point x="1523" y="65"/>
      <point x="1605" y="70" type="curve" name="sv02"/>
      <point x="1548" y="-210" type="line"/>
      <point x="1266" y="-173"/>
      <point x="1115" y="-133"/>
      <point x="868" y="-29" type="curve"/>
      <point x="855" y="-30"/>
      <point x="843" y="-30"/>
      <point x="830" y="-30" type="curve" smooth="yes" name="dv01"/>
      <point x="379" y="-30"/>
      <point x="50" y="300"/>
      <point x="50" y="750" type="curve" smooth="yes" name="sh01"/>
      <point x="50" y="1200"/>
      <point x="379" y="1530"/>
    </contour>
    <contour>
      <point x="830" y="240" type="curve" smooth="yes" name="dv02"/>
      <point x="1101" y="240"/>
      <point x="1300" y="456"/>
      <point x="1300" y="750" type="curve" smooth="yes" name="ah01"/>
      <point x="1300" y="1044"/>
      <point x="1101" y="1260"/>
      <point x="830" y="1260" type="curve" smooth="yes" name="sv01"/>
      <point x="558" y="1260"/>
      <point x="360" y="1044"/>
      <point x="360" y="750" type="curve" smooth="yes" name="sh02"/>
      <point x="360" y="456"/>
      <point x="558" y="240"/>
    </contour>
  </outline>
</glyph>
<glyph name="R" format="1">
  <unicode hex="0052"/>
  <advance width="1310" height="1660"/>
  <outline>
    <contour>
      <point x="130" y="1500" type="line"/>
      <point x="640" y="1500" type="line" smooth="yes"/>
      <point x="1005" y="1500"/>
      <point x="1222" y="1322"/>
      <point x="1222" y="1039" type="curve" smooth="yes"/>
      <point x="1222" y="837"/>
      <point x="1110" y="686"/>
      <point x="914" y="617" type="curve"/>
      <point x="1270" y="0" type="line" name="ab01"/>
      <point x="927" y="0" type="line"/>
      <point x="595" y="575" type="line"/>
      <point x="436" y="575" type="line"/>
      <point x="436" y="0" type="line"/>
      <point x="130" y="0" type="line"/>
    </contour>
    <contour>
      <point x="604" y="829" type="line" smooth="yes"/>
      <point x="805" y="829"/>
      <point x="912" y="908"/>
      <point x="912" y="1038" type="curve" smooth="yes"/>
      <point x="912" y="1167"/>
      <point x="805" y="1245"/>
      <point x="604" y="1245" type="curve" smooth="yes"/>
      <point x="436" y="1245" type="line"/>
      <point x="436" y="829" type="line"/>
    </contour>
    <contour>
      <point x="622" y="1520" type="move" name="top"/>
    </contour>
    <contour>
      <point x="622" y="-20" type="move" name="bottom"/>
    </contour>
  </outline>
</glyph>
<glyph name="S" format="1">
  <unicode hex="0053"/>
  <advance width="1215" height="1507.6"/>
  <outline>
    <contour>
      <point x="598" y="240" type="curve"/>
      <point x="721" y="240"/>
      <point x="815" y="317"/>
      <point x="815" y="417" type="curve" smooth="yes"/>
      <point x="815" y="537"/>
      <point x="679" y="595"/>
      <point x="525" y="660" type="curve" smooth="yes"/>
      <point x="323" y="746"/>
      <point x="90" y="845"/>
      <point x="90" y="1114" type="curve" smooth="yes"/>
      <point x="90" y="1364"/>
      <point x="292" y="1530"/>
      <point x="595" y="1530" type="curve" smooth="yes"/>
      <point x="750" y="1530"/>
      <point x="915" y="1487"/>
      <point x="1057" y="1410" type="curve"/>
      <point x="931" y="1154" type="line"/>
      <point x="800" y="1236"/>
      <point x="675" y="1260"/>
      <point x="596" y="1260" type="curve" smooth="yes"/>
      <point x="477" y="1260"/>
      <point x="400" y="1206"/>
      <point x="400" y="1123" type="curve" smooth="yes"/>
      <point x="400" y="1017"/>
      <point x="527" y="964"/>
      <point x="675" y="903" type="curve" smooth="yes"/>
      <point x="880" y="818"/>
      <point x="1125" y="716"/>
      <point x="1125" y="433" type="curve" smooth="yes"/>
      <point x="1125" y="162"/>
      <point x="902" y="-30"/>
      <point x="588" y="-30" type="curve" smooth="yes"/>
      <point x="395" y="-30"/>
      <point x="191" y="42"/>
      <point x="30" y="167" type="curve"/>
      <point x="174" y="411" type="line"/>
      <point x="285" y="312"/>
      <point x="463" y="240"/>
    </contour>
    <contour>
      <point x="595" y="1520" type="move" name="top"/>
    </contour>
    <contour>
      <point x="595" y="-20" type="move" name="bottom"/>
    </contour>
  </outline>
</glyph>
<glyph name="T" format="1">
  <unicode hex="0054"/>
  <advance width="1184" height="1660"/>
  <outline>
    <contour>
      <point x="10" y="1230" type="line"/>
      <point x="10" y="1500" type="line" name="at01"/>
      <point x="1174" y="1500" type="line"/>
      <point x="1174" y="1230" type="line" name="sv02"/>
      <point x="745" y="1230" type="line" name="sv03"/>
      <point x="745" y="0" type="line" name="ab01"/>
      <point x="439" y="0" type="line" name="dh01"/>
      <point x="439" y="1230" type="line" name="sv01"/>
    </contour>
    <contour>
      <point x="592" y="1520" type="move" name="top"/>
    </contour>
    <contour>
      <point x="592" y="-20" type="move" name="bottom"/>
    </contour>
  </outline>
</glyph>
<glyph name="U" format="1">
  <unicode hex="0055"/>
  <advance width="1544" height="1660"/>
  <outline>
    <contour>
      <point x="436" y="1500" type="line"/>
      <point x="436" y="660" type="line" smooth="yes" name="sh02"/>
      <point x="436" y="406"/>
      <point x="569" y="240"/>
      <point x="772" y="240" type="curve" smooth="yes" name="dv01"/>
      <point x="975" y="240"/>
      <point x="1108" y="406"/>
      <point x="1108" y="660" type="curve" smooth="yes" name="sh01"/>
      <point x="1108" y="1500" type="line"/>
      <point x="1414" y="1500" type="line" name="at01"/>
      <point x="1414" y="660" type="line" smooth="yes" name="sh01"/>
      <point x="1414" y="244"/>
      <point x="1159" y="-30"/>
      <point x="772" y="-30" type="curve" smooth="yes" name="dv01"/>
      <point x="385" y="-30"/>
      <point x="130" y="244"/>
      <point x="130" y="660" type="curve" smooth="yes" name="sh02"/>
      <point x="130" y="1500" type="line" name="at02"/>
    </contour>
    <contour>
      <point x="772" y="1520" type="move" name="top"/>
    </contour>
    <contour>
      <point x="772" y="-20" type="move" name="bottom"/>
    </contour>
  </outline>
</glyph>
<glyph name="V" format="1">
  <unicode hex="0056"/>
  <advance width="1608" height="1660"/>
  <outline>
    <contour>
      <point x="30" y="1500" type="line" name="at01"/>
      <point x="355" y="1500" type="line"/>
      <point x="511" y="1117"/>
      <point x="616" y="907"/>
      <point x="756" y="518" type="curve" smooth="yes"/>
      <point x="775" y="464"/>
      <point x="791" y="416"/>
      <point x="804" y="370" type="curve"/>
      <point x="817" y="416"/>
      <point x="833" y="464"/>
      <point x="852" y="518" type="curve" smooth="yes"/>
      <point x="992" y="907"/>
      <point x="1097" y="1117"/>
      <point x="1253" y="1500" type="curve" name="at02"/>
      <point x="1578" y="1500" type="line"/>
      <point x="965" y="0" type="line" name="ab02"/>
      <point x="643" y="0" type="line"/>
    </contour>
  </outline>
</glyph>
<glyph name="W" format="1">
  <unicode hex="0057"/>
  <advance width="2242" height="1660"/>
  <outline>
    <contour>
      <point x="480" y="0" type="line"/>
      <point x="825" y="0" type="line"/>
      <point x="1137" y="1085" type="line"/>
      <point x="1448" y="0" type="line"/>
      <point x="1761" y="0" type="line"/>
      <point x="2192" y="1500" type="line"/>
      <point x="1879" y="1500" type="line"/>
      <point x="1629" y="626" type="line" smooth="yes"/>
      <point x="1614" y="573"/>
      <point x="1600" y="524"/>
      <point x="1588" y="478" type="curve"/>
      <point x="1295" y="1500" type="line"/>
      <point x="979" y="1500" type="line"/>
      <point x="669" y="421" type="line"/>
      <point x="653" y="486"/>
      <point x="635" y="553"/>
      <point x="614" y="625" type="curve" smooth="yes"/>
      <point x="363" y="1500" type="line"/>
      <point x="50" y="1500" type="line"/>
    </contour>
    <contour>
      <point x="1137" y="1520" type="move" name="top"/>
    </contour>
  </outline>
</glyph>
<glyph name="X" format="1">
  <unicode hex="0058"/>
  <advance width="1572" height="1660"/>
  <outline>
    <contour>
      <point x="0" y="0" type="line"/>
      <point x="370" y="0" type="line"/>
      <point x="770" y="573" type="line"/>
      <point x="1202" y="0" type="line"/>
      <point x="1572" y="0" type="line"/>
      <point x="981" y="784" type="line"/>
      <point x="1522" y="1500" type="line"/>
      <point x="1152" y="1500" type="line"/>
      <point x="786" y="993" type="line"/>
      <point x="420" y="1500" type="line"/>
      <point x="50" y="1500" type="line"/>
      <point x="591" y="784" type="line"/>
    </contour>
  </outline>
</glyph>
<glyph name="Y" format="1">
  <unicode hex="0059"/>
  <advance width="1392" height="1660"/>
  <outline>
    <contour>
      <point x="-10" y="1500" type="line"/>
      <point x="321" y="1500" type="line" name="at01"/>
      <point x="703" y="874" type="line"/>
      <point x="1067" y="1500" type="line" name="at02"/>
      <point x="1402" y="1500" type="line"/>
      <point x="862" y="587" type="line"/>
      <point x="862" y="0" type="line" name="ab01"/>
      <point x="556" y="0" type="line" name="dh01"/>
      <point x="556" y="587" type="line"/>
    </contour>
    <contour>
      <point x="696" y="1520" type="move" name="top"/>
    </contour>
  </outline>
</glyph>
<glyph name="Z" format="1">
  <unicode hex="005A"/>
  <advance width="1338" height="1660"/>
  <outline>
    <contour>
      <point x="50" y="215" type="line"/>
      <point x="50" y="0" type="line" name="ab01"/>
      <point x="1288" y="0" type="line"/>
      <point x="1288" y="270" type="line"/>
      <point x="478" y="270" type="line"/>
      <point x="1254" y="1284" type="line"/>
      <point x="1254" y="1500" type="line" name="at01"/>
      <point x="117" y="1500" type="line"/>
      <point x="117" y="1230" type="line"/>
      <point x="827" y="1230" type="line"/>
    </contour>
    <contour>
      <point x="658" y="1520" type="move" name="top"/>
    </contour>
  </outline>
</glyph>
<glyph name="bracketleft" format="1">
  <unicode hex="005B"/>
  <advance width="697" height="1573.02"/>
  <outline>
    <contour>
      <point x="130" y="-275" type="line"/>
      <point x="130" y="1540" type="line"/>
      <point x="627" y="1540" type="line"/>
      <point x="627" y="1335" type="line"/>
      <point x="375" y="1335" type="line"/>
      <point x="375" y="-70" type="line"/>
      <point x="627" y="-70" type="line"/>
      <point x="627" y="-275" type="line"/>
    </contour>
  </outline>
</glyph>
<glyph name="backslash" format="1">
  <unicode hex="005C"/>
  <advance width="895" height="1573.02"/>
  <outline>
    <contour>
      <point x="250" y="1520" type="line"/>
      <point x="905" y="-20" type="line"/>
      <point x="645" y="-20" type="line"/>
      <point x="-10" y="1520" type="line"/>
    </contour>
  </outline>
</glyph>
<glyph name="bracketright" format="1">
  <unicode hex="005D"/>
  <advance width="697" height="1660"/>
  <outline>
    <contour>
      <point x="567" y="-275" type="line"/>
      <point x="567" y="1540" type="line"/>
      <point x="70" y="1540" type="line"/>
      <point x="70" y="1335" type="line"/>
      <point x="322" y="1335" type="line"/>
      <point x="322" y="-70" type="line"/>
      <point x="70" y="-70" type="line"/>
      <point x="70" y="-275" type="line"/>
    </contour>
  </outline>
</glyph>
<glyph name="asciicircum" format="1">
  <unicode hex="005E"/>
  <advance width="1363" height="1569.97"/>
  <outline>
    <contour>
      <point x="569" y="1483" type="line"/>
      <point x="794" y="1483" type="line"/>
      <point x="1273" y="484" type="line"/>
      <point x="1006" y="484" type="line"/>
      <point x="681" y="1182" type="line"/>
      <point x="357" y="484" type="line"/>
      <point x="90" y="484" type="line"/>
    </contour>
  </outline>
</glyph>
<glyph name="underscore" format="1">
  <unicode hex="005F"/>
  <advance width="1283" height="1569.97"/>
  <outline>
    <contour>
      <point x="90" y="205" type="line"/>
      <point x="1193" y="205" type="line"/>
      <point x="1193" y="0" type="line"/>
      <point x="90" y="0" type="line"/>
    </contour>
  </outline>
</glyph>
<glyph name="grave" format="1">
  <unicode hex="0060"/>
  <advance width="816" height="1569.97"/>
  <outline>
    <contour>
      <point x="416" y="1130" type="line" name="av01"/>
      <point x="130" y="1500" type="line" name="at01"/>
      <point x="457" y="1500" type="line"/>
      <point x="686" y="1130" type="line"/>
    </contour>
    <contour>
      <point x="551" y="1020" type="move" name="_top"/>
    </contour>
  </outline>
</glyph>
<glyph name="a" format="1">
  <unicode hex="0061"/>
  <advance width="1127" height="1660"/>
  <outline>
    <contour>
      <point x="98" y="275" type="curve" smooth="yes"/>
      <point x="98" y="475"/>
      <point x="284" y="625"/>
      <point x="545" y="625" type="curve" smooth="yes" name="dv04"/>
      <point x="600" y="625"/>
      <point x="662" y="618"/>
      <point x="723" y="607" type="curve"/>
      <point x="701" y="716"/>
      <point x="622" y="770"/>
      <point x="486" y="770" type="curve" smooth="yes"/>
      <point x="407" y="770"/>
      <point x="322" y="738"/>
      <point x="243" y="679" type="curve"/>
      <point x="144" y="922" type="line"/>
      <point x="283" y="989"/>
      <point x="419" y="1020"/>
      <point x="541" y="1020" type="curve" smooth="yes"/>
      <point x="830" y="1020"/>
      <point x="1017" y="846"/>
      <point x="1017" y="578" type="curve" smooth="yes" name="sh02"/>
      <point x="1017" y="0" type="line"/>
      <point x="775" y="0" type="line"/>
      <point x="756" y="107" type="line"/>
      <point x="681" y="28"/>
      <point x="571" y="-20"/>
      <point x="443" y="-20" type="curve" smooth="yes"/>
      <point x="240" y="-20"/>
      <point x="98" y="100"/>
    </contour>
    <contour>
      <point x="386" y="341" type="curve" smooth="yes" name="dh02"/>
      <point x="386" y="274"/>
      <point x="442" y="230"/>
      <point x="526" y="230" type="curve" smooth="yes" name="dv02"/>
      <point x="640" y="230"/>
      <point x="729" y="309"/>
      <point x="729" y="410" type="curve" smooth="yes" name="dh03"/>
      <point x="729" y="430" type="line"/>
      <point x="679" y="446"/>
      <point x="621" y="456"/>
      <point x="566" y="456" type="curve" smooth="yes" name="dv03"/>
      <point x="452" y="456"/>
      <point x="386" y="414"/>
    </contour>
    <contour>
      <point x="558" y="1020" type="move" name="top"/>
    </contour>
    <contour>
      <point x="918" y="0" type="move" name="bottom"/>
    </contour>
  </outline>
</glyph>
<glyph name="b" format="1">
  <unicode hex="0062"/>
  <advance width="1284" height="1660"/>
  <outline>
    <contour>
      <point x="130" y="0" type="line" name="dh01"/>
      <point x="130" y="1500" type="line" name="at01"/>
      <point x="418" y="1500" type="line"/>
      <point x="418" y="901" type="line"/>
      <point x="502" y="976"/>
      <point x="612" y="1020"/>
      <point x="737" y="1020" type="curve" smooth="yes" name="at01"/>
      <point x="1018" y="1020"/>
      <point x="1224" y="800"/>
      <point x="1224" y="500" type="curve" smooth="yes" name="sh03"/>
      <point x="1224" y="200"/>
      <point x="1018" y="-20"/>
      <point x="737" y="-20" type="curve" smooth="yes" name="dv01"/>
      <point x="607" y="-20"/>
      <point x="493" y="27"/>
      <point x="409" y="108" type="curve"/>
      <point x="402" y="0" type="line"/>
    </contour>
    <contour>
      <point x="672" y="230" type="curve" smooth="yes" name="dv02"/>
      <point x="819" y="230"/>
      <point x="926" y="345"/>
      <point x="926" y="500" type="curve" smooth="yes" name="ah01"/>
      <point x="926" y="655"/>
      <point x="819" y="770"/>
      <point x="672" y="770" type="curve" smooth="yes" name="sv01"/>
      <point x="525" y="770"/>
      <point x="418" y="655"/>
      <point x="418" y="500" type="curve" smooth="yes" name="sh02"/>
      <point x="418" y="345"/>
      <point x="525" y="230"/>
    </contour>
  </outline>
</glyph>
<glyph name="c" format="1">
  <unicode hex="0063"/>
  <advance width="1067" height="1660"/>
  <outline>
    <contour>
      <point x="1007" y="128" type="line"/>
      <point x="909" y="35"/>
      <point x="771" y="-20"/>
      <point x="612" y="-20" type="curve" smooth="yes" name="dv01"/>
      <point x="294" y="-20"/>
      <point x="60" y="200"/>
      <point x="60" y="500" type="curve" smooth="yes" name="sh01"/>
      <point x="60" y="800"/>
      <point x="294" y="1020"/>
      <point x="612" y="1020" type="curve" smooth="yes" name="at01"/>
      <point x="771" y="1020"/>
      <point x="909" y="965"/>
      <point x="1007" y="872" type="curve"/>
      <point x="804" y="681" type="line"/>
      <point x="759" y="737"/>
      <point x="691" y="770"/>
      <point x="612" y="770" type="curve" smooth="yes" name="sv01"/>
      <point x="465" y="770"/>
      <point x="358" y="655"/>
      <point x="358" y="500" type="curve" smooth="yes" name="sh02"/>
      <point x="358" y="345"/>
      <point x="465" y="230"/>
      <point x="612" y="230" type="curve" smooth="yes" name="dv02"/>
      <point x="691" y="230"/>
      <point x="759" y="263"/>
      <point x="804" y="319" type="curve"/>
    </contour>
    <contour>
      <point x="642" y="-20" type="move" name="bottom"/>
    </contour>
    <contour>
      <point x="642" y="1020" type="move" name="top"/>
    </contour>
  </outline>
</glyph>
<glyph name="e" format="1">
  <unicode hex="0065"/>
  <advance width="1171" height="1660"/>
  <outline>
    <contour>
      <point x="815" y="574" type="line"/>
      <point x="787" y="691"/>
      <point x="694" y="770"/>
      <point x="573" y="770" type="curve" smooth="yes" name="sv02"/>
      <point x="450" y="770"/>
      <point x="353" y="689"/>
      <point x="325" y="574" type="curve"/>
    </contour>
    <contour>
      <point x="331" y="414" type="line"/>
      <point x="367" y="303"/>
      <point x="470" y="227"/>
      <point x="600" y="227" type="curve" smooth="yes" name="dv02"/>
      <point x="738" y="227"/>
      <point x="822" y="276"/>
      <point x="897" y="347" type="curve"/>
      <point x="1071" y="139" type="line"/>
      <point x="916" y="18"/>
      <point x="762" y="-20"/>
      <point x="624" y="-20" type="curve" smooth="yes" name="dv01"/>
      <point x="293" y="-20"/>
      <point x="60" y="200"/>
      <point x="60" y="503" type="curve" smooth="yes" name="dh01"/>
      <point x="60" y="800"/>
      <point x="285" y="1020"/>
      <point x="589" y="1020" type="curve" smooth="yes" name="at01"/>
      <point x="890" y="1020"/>
      <point x="1111" y="803"/>
      <point x="1111" y="501" type="curve" name="sh01"/>
      <point x="1111" y="500" type="line" name="dh03"/>
      <point x="1111" y="414" type="line" name="dv03"/>
    </contour>
    <contour>
      <point x="570" y="1020" type="move" name="top"/>
    </contour>
    <contour>
      <point x="804" y="-20" type="move" name="bottom"/>
    </contour>
  </outline>
</glyph>
<glyph name="f" format="1">
  <unicode hex="0066"/>
  <advance width="911" height="1660"/>
  <outline>
    <contour>
      <point x="235" y="1000" type="line" name="sh02.2"/>
      <point x="235" y="1135" type="line" smooth="yes"/>
      <point x="235" y="1379"/>
      <point x="413" y="1520"/>
      <point x="616" y="1520" type="curve" smooth="yes"/>
      <point x="704" y="1520"/>
      <point x="796" y="1494"/>
      <point x="881" y="1438" type="curve"/>
      <point x="770" y="1235" type="line" name="iv01.1"/>
      <point x="736" y="1263"/>
      <point x="696" y="1270"/>
      <point x="666" y="1270" type="curve" smooth="yes"/>
      <point x="581" y="1270"/>
      <point x="523" y="1214"/>
      <point x="523" y="1096" type="curve" smooth="yes" name="sh01.2"/>
      <point x="523" y="1000" type="line" name="at02.2"/>
      <point x="766" y="1000" type="line"/>
      <point x="766" y="750" type="line" name="sv02.2"/>
      <point x="523" y="750" type="line"/>
      <point x="523" y="0" type="line" name="ab01.2"/>
      <point x="235" y="0" type="line" name="dh01.2"/>
      <point x="235" y="750" type="line" name="sv03.2"/>
      <point x="70" y="750" type="line" name="sv04.2"/>
      <point x="70" y="1000" type="line" name="at03.2"/>
    </contour>
  </outline>
</glyph>
<glyph name="g" format="1">
  <unicode hex="0067"/>
  <advance width="1284" height="1660"/>
  <outline>
    <contour>
      <point x="547" y="1020" type="curve" smooth="yes" name="dv01"/>
      <point x="677" y="1020"/>
      <point x="791" y="973"/>
      <point x="875" y="892" type="curve"/>
      <point x="882" y="1000" type="line"/>
      <point x="1154" y="1000" type="line"/>
      <point x="1154" y="117" type="line" smooth="yes" name="sh01"/>
      <point x="1154" y="-267"/>
      <point x="923" y="-520"/>
      <point x="572" y="-520" type="curve" smooth="yes"/>
      <point x="442" y="-520"/>
      <point x="295" y="-485"/>
      <point x="143" y="-409" type="curve"/>
      <point x="230" y="-170" type="line"/>
      <point x="297" y="-226"/>
      <point x="432" y="-271"/>
      <point x="543" y="-271" type="curve" smooth="yes"/>
      <point x="741" y="-271"/>
      <point x="866" y="-129"/>
      <point x="866" y="97" type="curve" name="sh01"/>
      <point x="866" y="99" type="line"/>
      <point x="782" y="24"/>
      <point x="672" y="-20"/>
      <point x="547" y="-20" type="curve" smooth="yes" name="at01"/>
      <point x="266" y="-20"/>
      <point x="60" y="200"/>
      <point x="60" y="500" type="curve" smooth="yes" name="sh03"/>
      <point x="60" y="800"/>
      <point x="266" y="1020"/>
    </contour>
    <contour>
      <point x="612" y="230" type="curve" smooth="yes" name="sv01"/>
      <point x="759" y="230"/>
      <point x="866" y="345"/>
      <point x="866" y="500" type="curve" smooth="yes" name="sh02"/>
      <point x="866" y="655"/>
      <point x="759" y="770"/>
      <point x="612" y="770" type="curve" smooth="yes" name="dv02"/>
      <point x="465" y="770"/>
      <point x="358" y="655"/>
      <point x="358" y="500" type="curve" smooth="yes" name="ah01"/>
      <point x="358" y="345"/>
      <point x="465" y="230"/>
    </contour>
    <contour>
      <point x="607" y="1020" type="move" name="top"/>
    </contour>
  </outline>
</glyph>
<glyph name="h" format="1">
  <unicode hex="0068"/>
  <advance width="1210" height="1660"/>
  <outline>
    <contour>
      <point x="130" y="0" type="line" name="ab01"/>
      <point x="130" y="1500" type="line" name="at01"/>
      <point x="418" y="1500" type="line"/>
      <point x="418" y="903" type="line"/>
      <point x="494" y="978"/>
      <point x="596" y="1020"/>
      <point x="714" y="1020" type="curve" smooth="yes" name="at02"/>
      <point x="969" y="1020"/>
      <point x="1100" y="854"/>
      <point x="1100" y="534" type="curve" smooth="yes"/>
      <point x="1100" y="0" type="line" name="ab02"/>
      <point x="812" y="0" type="line" name="dh02"/>
      <point x="812" y="536" type="line" smooth="yes"/>
      <point x="812" y="686"/>
      <point x="746" y="770"/>
      <point x="629" y="770" type="curve" smooth="yes" name="sv01"/>
      <point x="504" y="770"/>
      <point x="418" y="674"/>
      <point x="418" y="535" type="curve" smooth="yes" name="sh02"/>
      <point x="418" y="0" type="line" name="dh01"/>
    </contour>
    <contour>
      <point x="242" y="1520" type="move" name="top"/>
    </contour>
  </outline>
</glyph>
<glyph name="i" format="1">
  <unicode hex="0069"/>
  <advance width="516" height="1660"/>
  <outline>
    <contour>
      <point x="114" y="0" type="line" name="ab01"/>
      <point x="402" y="0" type="line" name="sh01"/>
      <point x="402" y="1000" type="line"/>
      <point x="114" y="1000" type="line"/>
    </contour>
    <contour>
      <point x="98" y="1340" type="curve" smooth="yes"/>
      <point x="98" y="1244"/>
      <point x="162" y="1180"/>
      <point x="258" y="1180" type="curve" smooth="yes"/>
      <point x="354" y="1180"/>
      <point x="418" y="1244"/>
      <point x="418" y="1340" type="curve" smooth="yes"/>
      <point x="418" y="1436"/>
      <point x="354" y="1500"/>
      <point x="258" y="1500" type="curve" smooth="yes"/>
      <point x="162" y="1500"/>
      <point x="98" y="1436"/>
    </contour>
    <contour>
      <point x="258" y="1020" type="move" name="top"/>
    </contour>
    <contour>
      <point x="258" y="0" type="move" name="bottom"/>
    </contour>
  </outline>
</glyph>
<glyph name="j" format="1">
  <unicode hex="006A"/>
  <advance width="529" height="1660"/>
  <outline>
    <component base="uni0237"/>
    <contour>
      <point x="111" y="1340" type="curve" smooth="yes"/>
      <point x="111" y="1436"/>
      <point x="175" y="1500"/>
      <point x="271" y="1500" type="curve" smooth="yes"/>
      <point x="367" y="1500"/>
      <point x="431" y="1436"/>
      <point x="431" y="1340" type="curve" smooth="yes"/>
      <point x="431" y="1244"/>
      <point x="367" y="1180"/>
      <point x="271" y="1180" type="curve" smooth="yes"/>
      <point x="175" y="1180"/>
      <point x="111" y="1244"/>
    </contour>
    <contour>
      <point x="271" y="1020" type="move" name="top"/>
    </contour>
  </outline>
</glyph>
<glyph name="k" format="1">
  <unicode hex="006B"/>
  <advance width="1154" height="1660"/>
  <outline>
    <contour>
      <point x="130" y="0" type="line" name="ab01"/>
      <point x="130" y="1500" type="line" name="at01"/>
      <point x="418" y="1500" type="line" name="dh01"/>
      <point x="418" y="590" type="line"/>
      <point x="458" y="652"/>
      <point x="505" y="709"/>
      <point x="563" y="776" type="curve" smooth="yes"/>
      <point x="757" y="1000" type="line"/>
      <point x="1072" y="1000" type="line" name="iv01"/>
      <point x="688" y="551" type="line"/>
      <point x="1144" y="0" type="line"/>
      <point x="791" y="0" type="line" name="ab02"/>
      <point x="505" y="338" type="line"/>
      <point x="418" y="236" type="line"/>
      <point x="418" y="0" type="line"/>
    </contour>
    <contour>
      <point x="579" y="-20" type="move" name="bottom"/>
    </contour>
  </outline>
</glyph>
<glyph name="l" format="1">
  <unicode hex="006C"/>
  <advance width="548" height="1660"/>
  <outline>
    <contour>
      <point x="418" y="1540" type="line" name="av01"/>
      <point x="130" y="1540" type="line" name="dh01"/>
      <point x="130" y="0" type="line" name="ab01"/>
      <point x="418" y="0" type="line"/>
    </contour>
    <contour>
      <point x="274" y="1520" type="move" name="top"/>
    </contour>
    <contour>
      <point x="274" y="-20" type="move" name="bottom"/>
    </contour>
  </outline>
</glyph>
<glyph name="m" format="1">
  <unicode hex="006D"/>
  <advance width="1852" height="1660"/>
  <outline>
    <contour>
      <point x="418" y="0" type="line"/>
      <point x="418" y="531" type="line" smooth="yes" name="sh02"/>
      <point x="418" y="690"/>
      <point x="502" y="770"/>
      <point x="606" y="770" type="curve" smooth="yes"/>
      <point x="709" y="770"/>
      <point x="792" y="693"/>
      <point x="792" y="538" type="curve" smooth="yes"/>
      <point x="792" y="0" type="line" name="dh02"/>
      <point x="1080" y="0" type="line" name="ab02"/>
      <point x="1080" y="531" type="line" smooth="yes" name="sh02"/>
      <point x="1080" y="690"/>
      <point x="1164" y="770"/>
      <point x="1268" y="770" type="curve" smooth="yes"/>
      <point x="1371" y="770"/>
      <point x="1454" y="693"/>
      <point x="1454" y="538" type="curve" smooth="yes"/>
      <point x="1454" y="0" type="line" name="dh02"/>
      <point x="1742" y="0" type="line" name="ab02"/>
      <point x="1742" y="538" type="line" smooth="yes"/>
      <point x="1742" y="841"/>
      <point x="1601" y="1020"/>
      <point x="1358" y="1020" type="curve" smooth="yes" name="at02"/>
      <point x="1204" y="1020"/>
      <point x="1089" y="949"/>
      <point x="1023" y="823" type="curve"/>
      <point x="961" y="950"/>
      <point x="848" y="1020"/>
      <point x="696" y="1020" type="curve" smooth="yes" name="at02"/>
      <point x="574" y="1020"/>
      <point x="477" y="975"/>
      <point x="409" y="894" type="curve"/>
      <point x="402" y="1000" type="line"/>
      <point x="130" y="1000" type="line" name="dh01"/>
      <point x="130" y="0" type="line" name="at01"/>
    </contour>
  </outline>
</glyph>
<glyph name="n" format="1">
  <unicode hex="006E"/>
  <advance width="1210" height="1660"/>
  <outline>
    <contour>
      <point x="130" y="0" type="line" name="at01"/>
      <point x="418" y="0" type="line"/>
      <point x="418" y="507" type="line" smooth="yes" name="sh02"/>
      <point x="418" y="674"/>
      <point x="504" y="770"/>
      <point x="629" y="770" type="curve" smooth="yes" name="sv01"/>
      <point x="747" y="770"/>
      <point x="811" y="685"/>
      <point x="811" y="527" type="curve" smooth="yes"/>
      <point x="811" y="0" type="line" name="dh02"/>
      <point x="1100" y="0" type="line" name="ab02"/>
      <point x="1100" y="583" type="line" smooth="yes"/>
      <point x="1100" y="858"/>
      <point x="950" y="1020"/>
      <point x="717" y="1020" type="curve" smooth="yes" name="at02"/>
      <point x="585" y="1020"/>
      <point x="473" y="968"/>
      <point x="394" y="878" type="curve"/>
      <point x="382" y="1000" type="line"/>
      <point x="130" y="1000" type="line" name="dh01"/>
    </contour>
    <contour>
      <point x="615" y="1020" type="move" name="top"/>
    </contour>
    <contour>
      <point x="615" y="-20" type="move" name="bottom"/>
    </contour>
  </outline>
</glyph>
<glyph name="o" format="1">
  <unicode hex="006F"/>
  <advance width="1187" height="1660"/>
  <outline>
    <contour>
      <point x="340" y="500" type="curve" smooth="yes" name="sh02"/>
      <point x="340" y="345"/>
      <point x="447" y="230"/>
      <point x="594" y="230" type="curve" smooth="yes" name="dv02"/>
      <point x="741" y="230"/>
      <point x="848" y="345"/>
      <point x="848" y="500" type="curve" smooth="yes" name="ah01"/>
      <point x="848" y="655"/>
      <point x="741" y="770"/>
      <point x="594" y="770" type="curve" smooth="yes" name="sv01"/>
      <point x="447" y="770"/>
      <point x="340" y="655"/>
    </contour>
    <contour>
      <point x="60" y="500" type="curve" smooth="yes" name="sh01"/>
      <point x="60" y="800"/>
      <point x="286" y="1020"/>
      <point x="594" y="1020" type="curve" smooth="yes" name="at01"/>
      <point x="901" y="1020"/>
      <point x="1127" y="800"/>
      <point x="1127" y="500" type="curve" smooth="yes" name="sh03"/>
      <point x="1127" y="200"/>
      <point x="901" y="-20"/>
      <point x="594" y="-20" type="curve" smooth="yes" name="dv01"/>
      <point x="286" y="-20"/>
      <point x="60" y="200"/>
    </contour>
    <contour>
      <point x="580" y="1020" type="move" name="top"/>
    </contour>
  </outline>
</glyph>
<glyph name="p" format="1">
  <unicode hex="0070"/>
  <advance width="1284" height="1660"/>
  <outline>
    <contour>
      <point x="130" y="1000" type="line" name="dh01"/>
      <point x="130" y="-500" type="line" name="at01"/>
      <point x="418" y="-500" type="line"/>
      <point x="418" y="99" type="line"/>
      <point x="502" y="24"/>
      <point x="612" y="-20"/>
      <point x="737" y="-20" type="curve" smooth="yes" name="at01"/>
      <point x="1018" y="-20"/>
      <point x="1224" y="200"/>
      <point x="1224" y="500" type="curve" smooth="yes" name="sh03"/>
      <point x="1224" y="800"/>
      <point x="1018" y="1020"/>
      <point x="737" y="1020" type="curve" smooth="yes" name="dv01"/>
      <point x="607" y="1020"/>
      <point x="493" y="973"/>
      <point x="409" y="892" type="curve"/>
      <point x="402" y="1000" type="line"/>
    </contour>
    <contour>
      <point x="672" y="770" type="curve" smooth="yes" name="dv02"/>
      <point x="819" y="770"/>
      <point x="926" y="655"/>
      <point x="926" y="500" type="curve" smooth="yes" name="ah01"/>
      <point x="926" y="345"/>
      <point x="819" y="230"/>
      <point x="672" y="230" type="curve" smooth="yes" name="sv01"/>
      <point x="525" y="230"/>
      <point x="418" y="345"/>
      <point x="418" y="500" type="curve" smooth="yes" name="sh02"/>
      <point x="418" y="655"/>
      <point x="525" y="770"/>
    </contour>
  </outline>
</glyph>
<glyph name="q" format="1">
  <unicode hex="0071"/>
  <advance width="1284" height="1660"/>
  <outline>
    <contour>
      <point x="60" y="500" type="curve" smooth="yes" name="sh03"/>
      <point x="60" y="800"/>
      <point x="266" y="1020"/>
      <point x="547" y="1020" type="curve" smooth="yes" name="dv01"/>
      <point x="677" y="1020"/>
      <point x="791" y="973"/>
      <point x="875" y="892" type="curve"/>
      <point x="882" y="1000" type="line"/>
      <point x="1154" y="1000" type="line" name="dh01"/>
      <point x="1154" y="-500" type="line" name="at01"/>
      <point x="866" y="-500" type="line"/>
      <point x="866" y="99" type="line"/>
      <point x="782" y="24"/>
      <point x="672" y="-20"/>
      <point x="547" y="-20" type="curve" smooth="yes" name="at01"/>
      <point x="266" y="-20"/>
      <point x="60" y="200"/>
    </contour>
    <contour>
      <point x="358" y="500" type="curve" smooth="yes" name="ah01"/>
      <point x="358" y="345"/>
      <point x="465" y="230"/>
      <point x="612" y="230" type="curve" smooth="yes" name="sv01"/>
      <point x="759" y="230"/>
      <point x="866" y="345"/>
      <point x="866" y="500" type="curve" smooth="yes" name="sh02"/>
      <point x="866" y="655"/>
      <point x="759" y="770"/>
      <point x="612" y="770" type="curve" smooth="yes" name="dv02"/>
      <point x="465" y="770"/>
      <point x="358" y="655"/>
    </contour>
  </outline>
</glyph>
<glyph name="r" format="1">
  <unicode hex="0072"/>
  <advance width="810" height="1660"/>
  <outline>
    <contour>
      <point x="130" y="0" type="line" name="at01"/>
      <point x="418" y="0" type="line"/>
      <point x="418" y="441" type="line" smooth="yes"/>
      <point x="418" y="651"/>
      <point x="521" y="770"/>
      <point x="676" y="770" type="curve" smooth="yes"/>
      <point x="712" y="770"/>
      <point x="750" y="764"/>
      <point x="790" y="751" type="curve"/>
      <point x="830" y="1000" type="line"/>
      <point x="782" y="1014"/>
      <point x="737" y="1020"/>
      <point x="696" y="1020" type="curve" smooth="yes"/>
      <point x="568" y="1020"/>
      <point x="466" y="962"/>
      <point x="396" y="857" type="curve"/>
      <point x="382" y="1000" type="line"/>
      <point x="130" y="1000" type="line" name="dh01"/>
    </contour>
    <contour>
      <point x="502" y="973" type="move" name="top"/>
    </contour>
    <contour>
      <point x="299" y="26" type="move" name="bottom"/>
    </contour>
  </outline>
</glyph>
<glyph name="s" format="1">
  <unicode hex="0073"/>
  <advance width="962" height="1349.48"/>
  <outline>
    <contour>
      <point x="70" y="127" type="line"/>
      <point x="205" y="27"/>
      <point x="358" y="-20"/>
      <point x="495" y="-20" type="curve" smooth="yes"/>
      <point x="713" y="-20"/>
      <point x="892" y="98"/>
      <point x="892" y="295" type="curve" smooth="yes"/>
      <point x="892" y="491"/>
      <point x="714" y="560"/>
      <point x="576" y="614" type="curve" smooth="yes"/>
      <point x="490" y="647"/>
      <point x="419" y="675"/>
      <point x="419" y="724" type="curve" smooth="yes"/>
      <point x="419" y="768"/>
      <point x="477" y="780"/>
      <point x="514" y="780" type="curve" smooth="yes"/>
      <point x="579" y="780"/>
      <point x="689" y="744"/>
      <point x="748" y="706" type="curve"/>
      <point x="875" y="925" type="line"/>
      <point x="766" y="991"/>
      <point x="624" y="1020"/>
      <point x="504" y="1020" type="curve" smooth="yes"/>
      <point x="259" y="1020"/>
      <point x="119" y="898"/>
      <point x="119" y="729" type="curve" smooth="yes"/>
      <point x="119" y="544"/>
      <point x="285" y="477"/>
      <point x="425" y="419" type="curve" smooth="yes"/>
      <point x="513" y="383"/>
      <point x="592" y="351"/>
      <point x="592" y="291" type="curve" smooth="yes"/>
      <point x="592" y="249"/>
      <point x="553" y="220"/>
      <point x="494" y="220" type="curve"/>
      <point x="418" y="220"/>
      <point x="320" y="268"/>
      <point x="206" y="344" type="curve"/>
    </contour>
    <contour>
      <point x="489" y="966" type="move" name="top"/>
    </contour>
    <contour>
      <point x="489" y="34" type="move" name="bottom"/>
    </contour>
  </outline>
</glyph>
<glyph name="t" format="1">
  <unicode hex="0074"/>
  <advance width="881" height="1660"/>
  <outline>
    <contour>
      <point x="70" y="1000" type="line" name="sv04"/>
      <point x="70" y="750" type="line" name="at03"/>
      <point x="235" y="750" type="line"/>
      <point x="235" y="349" type="line" smooth="yes"/>
      <point x="235" y="111"/>
      <point x="366" y="-20"/>
      <point x="604" y="-20" type="curve" smooth="yes"/>
      <point x="663" y="-20"/>
      <point x="727" y="-8"/>
      <point x="791" y="17" type="curve"/>
      <point x="791" y="253" type="line"/>
      <point x="753" y="237"/>
      <point x="717" y="230"/>
      <point x="684" y="230" type="curve" smooth="yes"/>
      <point x="591" y="230"/>
      <point x="523" y="287"/>
      <point x="523" y="382" type="curve" smooth="yes" name="sh01"/>
      <point x="523" y="750" type="line"/>
      <point x="766" y="750" type="line"/>
      <point x="766" y="1000" type="line" name="sv02"/>
      <point x="523" y="1000" type="line"/>
      <point x="523" y="1250" type="line" name="ab01"/>
      <point x="235" y="1250" type="line" name="dh01"/>
      <point x="235" y="1000" type="line" name="sv03"/>
    </contour>
    <contour>
      <point x="630" y="1020" type="move" name="top"/>
    </contour>
    <contour>
      <point x="401" y="-20" type="move" name="bottom"/>
    </contour>
  </outline>
</glyph>
<glyph name="u" format="1">
  <unicode hex="0075"/>
  <advance width="1211" height="1660"/>
  <outline>
    <contour>
      <point x="110" y="999" type="line" name="ab02"/>
      <point x="110" y="465" type="line" smooth="yes"/>
      <point x="110" y="146"/>
      <point x="242" y="-20"/>
      <point x="496" y="-20" type="curve" smooth="yes" name="at02"/>
      <point x="627" y="-20"/>
      <point x="738" y="32"/>
      <point x="817" y="123" type="curve"/>
      <point x="829" y="0" type="line"/>
      <point x="1081" y="0" type="line" name="dh01"/>
      <point x="1081" y="1000" type="line" name="at01"/>
      <point x="793" y="1000" type="line"/>
      <point x="793" y="464" type="line"/>
      <point x="792" y="464" type="line" name="sh02"/>
      <point x="792" y="326"/>
      <point x="706" y="229"/>
      <point x="581" y="229" type="curve" smooth="yes" name="sv01"/>
      <point x="464" y="229"/>
      <point x="399" y="313"/>
      <point x="399" y="463" type="curve" smooth="yes"/>
      <point x="399" y="999" type="line" name="dh02"/>
    </contour>
    <contour>
      <point x="555" y="1020" type="move" name="top"/>
    </contour>
    <contour>
      <point x="555" y="-20" type="move" name="bottom"/>
    </contour>
  </outline>
</glyph>
<glyph name="v" format="1">
  <unicode hex="0076"/>
  <advance width="1070" height="1660"/>
  <outline>
    <contour>
      <point x="-10" y="1000" type="line"/>
      <point x="303" y="1000" type="line" name="at01"/>
      <point x="484" y="513" type="line" smooth="yes"/>
      <point x="503" y="462"/>
      <point x="530" y="348"/>
      <point x="543" y="270" type="curve"/>
      <point x="547" y="270" type="line"/>
      <point x="563" y="348"/>
      <point x="591" y="459"/>
      <point x="610" y="513" type="curve" smooth="yes"/>
      <point x="777" y="1000" type="line" name="at02"/>
      <point x="1080" y="1000" type="line"/>
      <point x="685" y="0" type="line" name="ab01"/>
      <point x="405" y="0" type="line"/>
    </contour>
  </outline>
</glyph>
<glyph name="w" format="1">
  <unicode hex="0077"/>
  <advance width="1747" height="1660"/>
  <outline>
    <contour>
      <point x="30" y="1000" type="line"/>
      <point x="333" y="1000" type="line" name="at04"/>
      <point x="496" y="481" type="line" smooth="yes"/>
      <point x="512" y="429"/>
      <point x="526" y="383"/>
      <point x="538" y="340" type="curve"/>
      <point x="549" y="383"/>
      <point x="561" y="429"/>
      <point x="576" y="481" type="curve"/>
      <point x="739" y="1000" type="line" name="at03"/>
      <point x="1026" y="1000" type="line" name="at02"/>
      <point x="1189" y="481" type="line" smooth="yes"/>
      <point x="1205" y="429"/>
      <point x="1219" y="383"/>
      <point x="1231" y="339" type="curve"/>
      <point x="1242" y="383"/>
      <point x="1254" y="429"/>
      <point x="1269" y="481" type="curve"/>
      <point x="1432" y="1000" type="line" name="at01"/>
      <point x="1717" y="1000" type="line"/>
      <point x="1382" y="0" type="line"/>
      <point x="1097" y="0" type="line" name="ab02"/>
      <point x="1019" y="235"/>
      <point x="949" y="458"/>
      <point x="888" y="689" type="curve"/>
      <point x="830" y="455"/>
      <point x="754" y="227"/>
      <point x="668" y="0" type="curve"/>
      <point x="365" y="0" type="line" name="ab04"/>
    </contour>
    <contour>
      <point x="827" y="1020" type="move" name="top"/>
    </contour>
  </outline>
</glyph>
<glyph name="x" format="1">
  <unicode hex="0078"/>
  <advance width="1228" height="1660"/>
  <outline>
    <contour>
      <point x="414" y="523" type="line"/>
      <point x="54" y="1000" type="line" name="at01"/>
      <point x="405" y="1000" type="line"/>
      <point x="609" y="705" type="line"/>
      <point x="812" y="1000" type="line" name="at02"/>
      <point x="1168" y="1000" type="line"/>
      <point x="799" y="530" type="line"/>
      <point x="1208" y="0" type="line" name="ab02"/>
      <point x="857" y="0" type="line"/>
      <point x="615" y="348" type="line"/>
      <point x="376" y="0" type="line" name="ab01"/>
      <point x="20" y="0" type="line"/>
    </contour>
  </outline>
</glyph>
<glyph name="y" format="1">
  <unicode hex="0079"/>
  <advance width="1223" height="1660"/>
  <outline>
    <contour>
      <point x="361" y="1000" type="line"/>
      <point x="595" y="511" type="line" smooth="yes"/>
      <point x="616" y="468"/>
      <point x="635" y="413"/>
      <point x="649" y="348" type="curve"/>
      <point x="919" y="1000" type="line" name="at02"/>
      <point x="1223" y="1000" type="line"/>
      <point x="601" y="-500" type="line" name="ab01"/>
      <point x="298" y="-500" type="line"/>
      <point x="526" y="50" type="line"/>
      <point x="60" y="1000" type="line" name="at01"/>
    </contour>
    <contour>
      <point x="677" y="1020" type="move" name="top"/>
    </contour>
  </outline>
</glyph>
<glyph name="z" format="1">
  <unicode hex="007A"/>
  <advance width="1162" height="1615.88"/>
  <outline>
    <contour>
      <point x="100" y="0" type="line"/>
      <point x="100" y="135" type="line"/>
      <point x="583" y="750" type="line"/>
      <point x="128" y="750" type="line"/>
      <point x="128" y="1000" type="line"/>
      <point x="1039" y="1000" type="line"/>
      <point x="1039" y="864" type="line"/>
      <point x="557" y="250" type="line"/>
      <point x="1062" y="250" type="line"/>
      <point x="1062" y="0" type="line"/>
    </contour>
    <contour>
      <point x="581" y="1020" type="move" name="top"/>
    </contour>
  </outline>
</glyph>
<glyph name="braceleft" format="1">
  <unicode hex="007B"/>
  <advance width="706" height="1573.02"/>
  <outline>
    <contour>
      <point x="130" y="543" type="curve"/>
      <point x="130" y="724" type="line"/>
      <point x="237" y="731"/>
      <point x="286" y="780"/>
      <point x="286" y="878" type="curve" smooth="yes"/>
      <point x="286" y="1238" type="line" smooth="yes"/>
      <point x="286" y="1404"/>
      <point x="365" y="1541"/>
      <point x="636" y="1541" type="curve"/>
      <point x="636" y="1337" type="line"/>
      <point x="552" y="1337"/>
      <point x="526" y="1290"/>
      <point x="526" y="1201" type="curve" smooth="yes"/>
      <point x="526" y="942" type="line" smooth="yes"/>
      <point x="526" y="788"/>
      <point x="483" y="687"/>
      <point x="391" y="634" type="curve"/>
      <point x="483" y="580"/>
      <point x="526" y="479"/>
      <point x="526" y="325" type="curve" smooth="yes"/>
      <point x="526" y="66" type="line" smooth="yes"/>
      <point x="526" y="-23"/>
      <point x="552" y="-70"/>
      <point x="636" y="-70" type="curve"/>
      <point x="636" y="-274" type="line"/>
      <point x="365" y="-274"/>
      <point x="286" y="-137"/>
      <point x="286" y="29" type="curve" smooth="yes"/>
      <point x="286" y="389" type="line" smooth="yes"/>
      <point x="286" y="487"/>
      <point x="237" y="536"/>
    </contour>
  </outline>
</glyph>
<glyph name="bar" format="1">
  <unicode hex="007C"/>
  <advance width="500" height="1660"/>
  <outline>
    <contour>
      <point x="370" y="1540" type="line" name="av01"/>
      <point x="130" y="1540" type="line" name="dh01"/>
      <point x="130" y="-250" type="line" name="av02"/>
      <point x="370" y="-250" type="line"/>
    </contour>
  </outline>
</glyph>
<glyph name="braceright" format="1">
  <unicode hex="007D"/>
  <advance width="706" height="1660"/>
  <outline>
    <contour>
      <point x="70" y="-70" type="curve"/>
      <point x="70" y="-274" type="line"/>
      <point x="341" y="-274"/>
      <point x="420" y="-137"/>
      <point x="420" y="29" type="curve" smooth="yes"/>
      <point x="420" y="389" type="line" smooth="yes"/>
      <point x="420" y="487"/>
      <point x="469" y="536"/>
      <point x="576" y="543" type="curve"/>
      <point x="576" y="724" type="line"/>
      <point x="469" y="731"/>
      <point x="420" y="780"/>
      <point x="420" y="878" type="curve" smooth="yes"/>
      <point x="420" y="1238" type="line" smooth="yes"/>
      <point x="420" y="1404"/>
      <point x="341" y="1541"/>
      <point x="70" y="1541" type="curve"/>
      <point x="70" y="1337" type="line"/>
      <point x="154" y="1337"/>
      <point x="180" y="1290"/>
      <point x="180" y="1201" type="curve" smooth="yes"/>
      <point x="180" y="942" type="line" smooth="yes"/>
      <point x="180" y="788"/>
      <point x="223" y="687"/>
      <point x="315" y="634" type="curve"/>
      <point x="223" y="580"/>
      <point x="180" y="479"/>
      <point x="180" y="325" type="curve" smooth="yes"/>
      <point x="180" y="66" type="line" smooth="yes"/>
      <point x="180" y="-23"/>
      <point x="154" y="-70"/>
    </contour>
  </outline>
</glyph>
<glyph name="asciitilde" format="1">
  <unicode hex="007E"/>
  <advance width="1380" height="1573.02"/>
  <outline>
    <contour>
      <point x="1250" y="561" type="line"/>
      <point x="1135" y="454"/>
      <point x="1037" y="418"/>
      <point x="948" y="418" type="curve" smooth="yes"/>
      <point x="767" y="418"/>
      <point x="624" y="568"/>
      <point x="457" y="568" type="curve" smooth="yes"/>
      <point x="360" y="568"/>
      <point x="255" y="518"/>
      <point x="130" y="360" type="curve"/>
      <point x="130" y="600" type="line"/>
      <point x="263" y="724"/>
      <point x="374" y="765"/>
      <point x="472" y="765" type="curve" smooth="yes"/>
      <point x="660" y="765"/>
      <point x="801" y="617"/>
      <point x="960" y="617" type="curve" smooth="yes"/>
      <point x="1048" y="617"/>
      <point x="1141" y="662"/>
      <point x="1250" y="801" type="curve"/>
    </contour>
  </outline>
</glyph>
<glyph name="exclamdown" format="1">
  <unicode hex="00A1"/>
  <advance width="580"/>
  <outline>
    <contour>
      <point x="179" y="620" type="line"/>
      <point x="400" y="620" type="line"/>
      <point x="440" y="-500" type="line" name="at01"/>
      <point x="139" y="-500" type="line"/>
    </contour>
    <contour>
      <point x="130" y="860" type="curve" smooth="yes"/>
      <point x="130" y="956"/>
      <point x="194" y="1020"/>
      <point x="290" y="1020" type="curve" smooth="yes"/>
      <point x="386" y="1020"/>
      <point x="450" y="956"/>
      <point x="450" y="860" type="curve" smooth="yes"/>
      <point x="450" y="764"/>
      <point x="386" y="700"/>
      <point x="290" y="700" type="curve" smooth="yes"/>
      <point x="194" y="700"/>
      <point x="130" y="764"/>
    </contour>
  </outline>
</glyph>
<glyph name="cent" format="1">
  <unicode hex="00A2"/>
  <advance width="1067"/>
  <outline>
    <contour>
      <point x="470" y="1152" type="curve"/>
      <point x="458" y="1370" type="line"/>
      <point x="698" y="1370" type="line"/>
      <point x="687" y="1164" type="line"/>
      <point x="814" y="1149"/>
      <point x="925" y="1098"/>
      <point x="1007" y="1020" type="curve"/>
      <point x="804" y="829" type="line"/>
      <point x="759" y="885"/>
      <point x="691" y="918"/>
      <point x="612" y="918" type="curve" smooth="yes" name="sv01"/>
      <point x="465" y="918"/>
      <point x="358" y="803"/>
      <point x="358" y="648" type="curve" smooth="yes" name="sh02"/>
      <point x="358" y="493"/>
      <point x="465" y="378"/>
      <point x="612" y="378" type="curve" smooth="yes" name="dv02"/>
      <point x="691" y="378"/>
      <point x="759" y="411"/>
      <point x="804" y="467" type="curve"/>
      <point x="1007" y="276" type="line"/>
      <point x="925" y="198"/>
      <point x="815" y="147"/>
      <point x="688" y="132" type="curve"/>
      <point x="698" y="-57" type="line"/>
      <point x="458" y="-57" type="line"/>
      <point x="469" y="144" type="line"/>
      <point x="226" y="199"/>
      <point x="60" y="395"/>
      <point x="60" y="648" type="curve" smooth="yes" name="sh01"/>
      <point x="60" y="901"/>
      <point x="227" y="1097"/>
    </contour>
  </outline>
</glyph>
<glyph name="sterling" format="1">
  <unicode hex="00A3"/>
  <advance width="1232"/>
  <outline>
    <contour>
      <point x="130" y="850" type="line"/>
      <point x="264" y="850" type="line"/>
      <point x="245" y="921"/>
      <point x="236" y="989"/>
      <point x="236" y="1053" type="curve" smooth="yes"/>
      <point x="236" y="1332"/>
      <point x="408" y="1530"/>
      <point x="688" y="1530" type="curve" smooth="yes"/>
      <point x="872" y="1530"/>
      <point x="1023" y="1444"/>
      <point x="1122" y="1284" type="curve"/>
      <point x="924" y="1142" type="line"/>
      <point x="867" y="1239"/>
      <point x="784" y="1282"/>
      <point x="708" y="1282" type="curve" smooth="yes"/>
      <point x="603" y="1282"/>
      <point x="509" y="1200"/>
      <point x="509" y="1060" type="curve" smooth="yes"/>
      <point x="509" y="995"/>
      <point x="521" y="922"/>
      <point x="536" y="850" type="curve"/>
      <point x="924" y="850" type="line"/>
      <point x="924" y="645" type="line"/>
      <point x="582" y="645" type="line"/>
      <point x="591" y="602"/>
      <point x="597" y="563"/>
      <point x="597" y="533" type="curve" smooth="yes"/>
      <point x="597" y="431"/>
      <point x="573" y="326"/>
      <point x="501" y="220" type="curve"/>
      <point x="1101" y="220" type="line"/>
      <point x="1101" y="0" type="line"/>
      <point x="149" y="0" type="line"/>
      <point x="149" y="144" type="line"/>
      <point x="158" y="154" type="line" smooth="yes"/>
      <point x="282" y="292"/>
      <point x="337" y="401"/>
      <point x="337" y="530" type="curve" smooth="yes"/>
      <point x="337" y="566"/>
      <point x="333" y="604"/>
      <point x="324" y="645" type="curve"/>
      <point x="130" y="645" type="line"/>
    </contour>
  </outline>
</glyph>
<glyph name="currency" format="1">
  <unicode hex="00A4"/>
  <advance width="1371"/>
  <outline>
    <contour>
      <point x="110" y="350" type="line"/>
      <point x="262" y="497" type="line"/>
      <point x="210" y="577"/>
      <point x="190" y="666"/>
      <point x="190" y="751" type="curve" smooth="yes"/>
      <point x="190" y="836"/>
      <point x="210" y="924"/>
      <point x="262" y="1004" type="curve"/>
      <point x="110" y="1152" type="line"/>
      <point x="274" y="1311" type="line"/>
      <point x="429" y="1159" type="line"/>
      <point x="503" y="1198"/>
      <point x="591" y="1221"/>
      <point x="686" y="1221" type="curve" smooth="yes"/>
      <point x="780" y="1221"/>
      <point x="868" y="1198"/>
      <point x="942" y="1159" type="curve"/>
      <point x="1097" y="1311" type="line"/>
      <point x="1261" y="1152" type="line"/>
      <point x="1110" y="1005" type="line"/>
      <point x="1162" y="925"/>
      <point x="1182" y="836"/>
      <point x="1182" y="751" type="curve" smooth="yes"/>
      <point x="1182" y="665"/>
      <point x="1162" y="577"/>
      <point x="1110" y="496" type="curve"/>
      <point x="1261" y="350" type="line"/>
      <point x="1097" y="191" type="line"/>
      <point x="943" y="343" type="line"/>
      <point x="868" y="303"/>
      <point x="780" y="280"/>
      <point x="686" y="280" type="curve" smooth="yes"/>
      <point x="591" y="280"/>
      <point x="503" y="303"/>
      <point x="428" y="343" type="curve"/>
      <point x="274" y="191" type="line"/>
    </contour>
    <contour>
      <point x="687" y="485" type="curve" smooth="yes"/>
      <point x="840" y="485"/>
      <point x="942" y="603"/>
      <point x="942" y="750" type="curve" smooth="yes"/>
      <point x="942" y="896"/>
      <point x="840" y="1016"/>
      <point x="686" y="1016" type="curve" smooth="yes"/>
      <point x="533" y="1016"/>
      <point x="430" y="898"/>
      <point x="430" y="750" type="curve" smooth="yes"/>
      <point x="430" y="603"/>
      <point x="533" y="485"/>
    </contour>
  </outline>
</glyph>
<glyph name="yen" format="1">
  <unicode hex="00A5"/>
  <advance width="1282"/>
  <outline>
    <contour>
      <point x="240" y="1502" type="line"/>
      <point x="571" y="951" type="line"/>
      <point x="903" y="1502" type="line"/>
      <point x="1192" y="1502" type="line"/>
      <point x="755" y="778" type="line"/>
      <point x="1054" y="778" type="line"/>
      <point x="1054" y="618" type="line"/>
      <point x="704" y="618" type="line"/>
      <point x="704" y="528" type="line"/>
      <point x="1054" y="528" type="line"/>
      <point x="1054" y="368" type="line"/>
      <point x="704" y="368" type="line"/>
      <point x="704" y="1" type="line"/>
      <point x="441" y="1" type="line"/>
      <point x="441" y="368" type="line"/>
      <point x="90" y="368" type="line"/>
      <point x="90" y="528" type="line"/>
      <point x="441" y="528" type="line"/>
      <point x="441" y="618" type="line"/>
      <point x="90" y="618" type="line"/>
      <point x="90" y="778" type="line"/>
      <point x="390" y="778" type="line"/>
      <point x="-48" y="1502" type="line"/>
    </contour>
  </outline>
</glyph>
<glyph name="brokenbar" format="1">
  <unicode hex="00A6"/>
  <advance width="505"/>
  <outline>
    <contour>
      <point x="375" y="820" type="line"/>
      <point x="375" y="1540" type="line" name="av01"/>
      <point x="130" y="1540" type="line" name="dh01"/>
      <point x="130" y="820" type="line"/>
    </contour>
    <contour>
      <point x="130" y="470" type="line" name="sh02"/>
      <point x="130" y="-250" type="line" name="av02"/>
      <point x="375" y="-250" type="line"/>
      <point x="375" y="470" type="line" name="sh01"/>
    </contour>
  </outline>
</glyph>
<glyph name="section" format="1">
  <unicode hex="00A7"/>
  <advance width="1094"/>
  <outline>
    <contour>
      <point x="130" y="721" type="curve" smooth="yes"/>
      <point x="130" y="841"/>
      <point x="175" y="922"/>
      <point x="252" y="989" type="curve"/>
      <point x="196" y="1038"/>
      <point x="159" y="1102"/>
      <point x="159" y="1194" type="curve" smooth="yes"/>
      <point x="159" y="1377"/>
      <point x="307" y="1531"/>
      <point x="572" y="1531" type="curve" smooth="yes"/>
      <point x="693" y="1531"/>
      <point x="810" y="1499"/>
      <point x="951" y="1429" type="curve"/>
      <point x="847" y="1243" type="line"/>
      <point x="767" y="1294"/>
      <point x="671" y="1320"/>
      <point x="590" y="1320" type="curve" smooth="yes"/>
      <point x="497" y="1320"/>
      <point x="425" y="1285"/>
      <point x="425" y="1216" type="curve" smooth="yes"/>
      <point x="425" y="1025"/>
      <point x="964" y="1059"/>
      <point x="964" y="680" type="curve" smooth="yes"/>
      <point x="964" y="560"/>
      <point x="919" y="479"/>
      <point x="842" y="412" type="curve"/>
      <point x="898" y="363"/>
      <point x="935" y="299"/>
      <point x="935" y="207" type="curve" smooth="yes"/>
      <point x="935" y="24"/>
      <point x="787" y="-130"/>
      <point x="522" y="-130" type="curve" smooth="yes"/>
      <point x="401" y="-130"/>
      <point x="284" y="-98"/>
      <point x="143" y="-28" type="curve"/>
      <point x="247" y="158" type="line"/>
      <point x="327" y="107"/>
      <point x="423" y="81"/>
      <point x="504" y="81" type="curve" smooth="yes"/>
      <point x="597" y="81"/>
      <point x="669" y="116"/>
      <point x="669" y="185" type="curve" smooth="yes"/>
      <point x="669" y="376"/>
      <point x="130" y="342"/>
    </contour>
    <contour>
      <point x="416" y="892" type="curve"/>
      <point x="379" y="860"/>
      <point x="354" y="821"/>
      <point x="354" y="766" type="curve" smooth="yes"/>
      <point x="354" y="623"/>
      <point x="522" y="577"/>
      <point x="678" y="509" type="curve"/>
      <point x="715" y="541"/>
      <point x="740" y="580"/>
      <point x="740" y="635" type="curve" smooth="yes"/>
      <point x="740" y="778"/>
      <point x="572" y="824"/>
    </contour>
  </outline>
</glyph>
<glyph name="dieresis" format="1">
  <unicode hex="00A8"/>
  <advance width="949"/>
  <outline>
    <contour>
      <point x="130" y="1330" type="curve" smooth="yes"/>
      <point x="130" y="1414"/>
      <point x="186" y="1470"/>
      <point x="270" y="1470" type="curve" smooth="yes"/>
      <point x="354" y="1470"/>
      <point x="410" y="1414"/>
      <point x="410" y="1330" type="curve" smooth="yes"/>
      <point x="410" y="1246"/>
      <point x="354" y="1190"/>
      <point x="270" y="1190" type="curve" smooth="yes"/>
      <point x="186" y="1190"/>
      <point x="130" y="1246"/>
    </contour>
    <contour>
      <point x="539" y="1330" type="curve" smooth="yes"/>
      <point x="539" y="1414"/>
      <point x="595" y="1470"/>
      <point x="679" y="1470" type="curve" smooth="yes"/>
      <point x="763" y="1470"/>
      <point x="819" y="1414"/>
      <point x="819" y="1330" type="curve" smooth="yes"/>
      <point x="819" y="1246"/>
      <point x="763" y="1190"/>
      <point x="679" y="1190" type="curve" smooth="yes"/>
      <point x="595" y="1190"/>
      <point x="539" y="1246"/>
    </contour>
    <contour>
      <point x="484" y="1020" type="move" name="_top"/>
    </contour>
  </outline>
</glyph>
<glyph name="copyright" format="1">
  <unicode hex="00A9"/>
  <advance width="1325"/>
  <outline>
    <contour>
      <point x="200" y="500" type="curve" smooth="yes" name="dh02"/>
      <point x="200" y="769"/>
      <point x="396" y="968"/>
      <point x="663" y="968" type="curve" smooth="yes" name="dv03"/>
      <point x="928" y="968"/>
      <point x="1125" y="769"/>
      <point x="1125" y="500" type="curve" smooth="yes" name="dh05"/>
      <point x="1125" y="229"/>
      <point x="928" y="32"/>
      <point x="663" y="32" type="curve" smooth="yes" name="dv02"/>
      <point x="396" y="32"/>
      <point x="200" y="229"/>
    </contour>
    <contour>
      <point x="60" y="500" type="curve" smooth="yes" name="dh01"/>
      <point x="60" y="152"/>
      <point x="314" y="-102"/>
      <point x="663" y="-102" type="curve" smooth="yes" name="dv01"/>
      <point x="1010" y="-102"/>
      <point x="1265" y="152"/>
      <point x="1265" y="500" type="curve" smooth="yes" name="dh06"/>
      <point x="1265" y="847"/>
      <point x="1010" y="1102"/>
      <point x="663" y="1102" type="curve" smooth="yes" name="dv04"/>
      <point x="314" y="1102"/>
      <point x="60" y="847"/>
    </contour>
    <contour>
      <point x="814" y="385" type="line"/>
      <point x="785" y="350"/>
      <point x="742" y="329"/>
      <point x="692" y="329" type="curve" smooth="yes" name="dv02"/>
      <point x="599" y="329"/>
      <point x="532" y="402"/>
      <point x="532" y="500" type="curve" smooth="yes" name="sh02"/>
      <point x="532" y="598"/>
      <point x="599" y="671"/>
      <point x="692" y="671" type="curve" smooth="yes" name="sv01"/>
      <point x="742" y="671"/>
      <point x="785" y="650"/>
      <point x="814" y="615" type="curve"/>
      <point x="942" y="735" type="line"/>
      <point x="880" y="794"/>
      <point x="793" y="829"/>
      <point x="692" y="829" type="curve" smooth="yes" name="at01"/>
      <point x="491" y="829"/>
      <point x="343" y="690"/>
      <point x="343" y="500" type="curve" smooth="yes" name="sh01"/>
      <point x="343" y="310"/>
      <point x="491" y="171"/>
      <point x="692" y="171" type="curve" smooth="yes" name="dv01"/>
      <point x="793" y="171"/>
      <point x="880" y="206"/>
      <point x="942" y="265" type="curve"/>
    </contour>
  </outline>
</glyph>
<glyph name="ordfeminine" format="1">
  <unicode hex="00AA"/>
  <advance width="844"/>
  <outline>
    <contour>
      <point x="60" y="990" type="curve" smooth="yes"/>
      <point x="60" y="865"/>
      <point x="161" y="780"/>
      <point x="306" y="780" type="curve" smooth="yes"/>
      <point x="397" y="780"/>
      <point x="475" y="814"/>
      <point x="528" y="871" type="curve"/>
      <point x="542" y="794" type="line"/>
      <point x="714" y="794" type="line"/>
      <point x="714" y="1205" type="line" smooth="yes" name="sh02"/>
      <point x="714" y="1396"/>
      <point x="581" y="1520"/>
      <point x="375" y="1520" type="curve" smooth="yes"/>
      <point x="289" y="1520"/>
      <point x="192" y="1498"/>
      <point x="93" y="1450" type="curve"/>
      <point x="163" y="1277" type="line"/>
      <point x="220" y="1319"/>
      <point x="280" y="1342"/>
      <point x="336" y="1342" type="curve" smooth="yes"/>
      <point x="433" y="1342"/>
      <point x="489" y="1303"/>
      <point x="505" y="1226" type="curve"/>
      <point x="462" y="1234"/>
      <point x="417" y="1239"/>
      <point x="378" y="1239" type="curve" smooth="yes" name="dv04"/>
      <point x="193" y="1239"/>
      <point x="60" y="1132"/>
    </contour>
    <contour>
      <point x="393" y="1119" type="curve" smooth="yes" name="dv03"/>
      <point x="432" y="1119"/>
      <point x="474" y="1112"/>
      <point x="509" y="1100" type="curve"/>
      <point x="509" y="1086" type="line" smooth="yes" name="dh03"/>
      <point x="509" y="1014"/>
      <point x="446" y="958"/>
      <point x="365" y="958" type="curve" smooth="yes" name="dv02"/>
      <point x="305" y="958"/>
      <point x="265" y="989"/>
      <point x="265" y="1037" type="curve" smooth="yes" name="dh02"/>
      <point x="265" y="1089"/>
      <point x="312" y="1119"/>
    </contour>
  </outline>
</glyph>
<glyph name="guillemotleft" format="1">
  <unicode hex="00AB"/>
  <advance width="1285"/>
  <outline>
    <component base="guilsinglleft"/>
    <contour>
      <point x="1155" y="932" type="line"/>
      <point x="794" y="524" type="line"/>
      <point x="1155" y="116" type="line"/>
      <point x="871" y="116" type="line"/>
      <point x="521" y="524" type="line"/>
      <point x="871" y="932" type="line"/>
    </contour>
  </outline>
</glyph>
<glyph name="logicalnot" format="1">
  <unicode hex="00AC"/>
  <advance width="1165"/>
  <outline>
    <contour>
      <point x="130" y="631" type="line"/>
      <point x="1036" y="631" type="line"/>
      <point x="1036" y="133" type="line"/>
      <point x="791" y="133" type="line"/>
      <point x="791" y="426" type="line"/>
      <point x="130" y="426" type="line"/>
    </contour>
  </outline>
</glyph>
<glyph name="registered" format="1">
  <unicode hex="00AE"/>
  <advance width="1342"/>
  <outline>
    <contour>
      <point x="68" y="1018" type="curve" smooth="yes" name="dh01"/>
      <point x="68" y="1365"/>
      <point x="322" y="1620"/>
      <point x="671" y="1620" type="curve" smooth="yes" name="dv04"/>
      <point x="1018" y="1620"/>
      <point x="1273" y="1365"/>
      <point x="1273" y="1018" type="curve" smooth="yes" name="dh06"/>
      <point x="1273" y="670"/>
      <point x="1018" y="416"/>
      <point x="671" y="416" type="curve" smooth="yes" name="dv01"/>
      <point x="322" y="416"/>
      <point x="68" y="670"/>
    </contour>
    <contour>
      <point x="208" y="1018" type="curve" smooth="yes" name="dh02"/>
      <point x="208" y="747"/>
      <point x="404" y="550"/>
      <point x="671" y="550" type="curve" smooth="yes" name="dv02"/>
      <point x="795" y="550"/>
      <point x="903" y="593"/>
      <point x="984" y="666" type="curve"/>
      <point x="797" y="666" type="line"/>
      <point x="647" y="922" type="line"/>
      <point x="610" y="922" type="line"/>
      <point x="610" y="666" type="line"/>
      <point x="432" y="666" type="line"/>
      <point x="432" y="1364" type="line"/>
      <point x="681" y="1364" type="line" smooth="yes"/>
      <point x="859" y="1364"/>
      <point x="963" y="1275"/>
      <point x="963" y="1143" type="curve" smooth="yes"/>
      <point x="963" y="1055"/>
      <point x="916" y="985"/>
      <point x="830" y="949" type="curve"/>
      <point x="992" y="673" type="line"/>
      <point x="1080" y="757"/>
      <point x="1133" y="877"/>
      <point x="1133" y="1018" type="curve" smooth="yes" name="dh05"/>
      <point x="1133" y="1287"/>
      <point x="936" y="1486"/>
      <point x="671" y="1486" type="curve" smooth="yes" name="dv03"/>
      <point x="404" y="1486"/>
      <point x="208" y="1287"/>
    </contour>
    <contour>
      <point x="665" y="1066" type="line" smooth="yes"/>
      <point x="737" y="1066"/>
      <point x="783" y="1090"/>
      <point x="783" y="1143" type="curve" smooth="yes"/>
      <point x="783" y="1196"/>
      <point x="737" y="1219"/>
      <point x="665" y="1219" type="curve" smooth="yes"/>
      <point x="610" y="1219" type="line"/>
      <point x="610" y="1066" type="line"/>
    </contour>
  </outline>
</glyph>
<glyph name="macron" format="1">
  <unicode hex="00AF"/>
  <advance width="958"/>
  <outline>
    <contour>
      <point x="130" y="1411" type="line"/>
      <point x="828" y="1411" type="line"/>
      <point x="828" y="1206" type="line"/>
      <point x="130" y="1206" type="line"/>
    </contour>
    <contour>
      <point x="479" y="1020" type="move" name="_top"/>
    </contour>
  </outline>
</glyph>
<glyph name="degree" format="1">
  <unicode hex="00B0"/>
  <advance width="877"/>
  <outline>
    <contour>
      <point x="321" y="1210" type="curve" smooth="yes" name="sh02"/>
      <point x="321" y="1136"/>
      <point x="370" y="1082"/>
      <point x="440" y="1082" type="curve" smooth="yes"/>
      <point x="508" y="1082"/>
      <point x="558" y="1136"/>
      <point x="558" y="1210" type="curve" smooth="yes" name="ah01"/>
      <point x="558" y="1284"/>
      <point x="508" y="1338"/>
      <point x="440" y="1338" type="curve" smooth="yes"/>
      <point x="370" y="1338"/>
      <point x="321" y="1284"/>
    </contour>
    <contour>
      <point x="130" y="1210" type="curve" smooth="yes" name="sh01"/>
      <point x="130" y="1389"/>
      <point x="260" y="1520"/>
      <point x="440" y="1520" type="curve" smooth="yes" name="at01"/>
      <point x="618" y="1520"/>
      <point x="750" y="1389"/>
      <point x="750" y="1210" type="curve" smooth="yes" name="sh03"/>
      <point x="750" y="1030"/>
      <point x="618" y="900"/>
      <point x="440" y="900" type="curve" smooth="yes" name="at02"/>
      <point x="260" y="900"/>
      <point x="130" y="1030"/>
    </contour>
  </outline>
</glyph>
<glyph name="plusminus" format="1">
  <unicode hex="00B1"/>
  <advance width="1165"/>
  <outline>
    <contour>
      <point x="130" y="872" type="line"/>
      <point x="461" y="872" type="line"/>
      <point x="461" y="1190" type="line"/>
      <point x="706" y="1190" type="line"/>
      <point x="706" y="872" type="line"/>
      <point x="1036" y="872" type="line"/>
      <point x="1036" y="650" type="line"/>
      <point x="706" y="650" type="line"/>
      <point x="706" y="331" type="line"/>
      <point x="461" y="331" type="line"/>
      <point x="461" y="650" type="line"/>
      <point x="130" y="650" type="line"/>
    </contour>
    <contour>
      <point x="140" y="205" type="line"/>
      <point x="1026" y="205" type="line"/>
      <point x="1026" y="0" type="line"/>
      <point x="140" y="0" type="line"/>
    </contour>
  </outline>
</glyph>
<glyph name="twosuperior" format="1">
  <unicode hex="00B2"/>
  <advance width="809"/>
  <outline>
    <contour>
      <point x="68" y="1303" type="curve"/>
      <point x="201" y="1203" type="line"/>
      <point x="259" y="1295"/>
      <point x="322" y="1339"/>
      <point x="376" y="1339" type="curve" smooth="yes"/>
      <point x="425" y="1339"/>
      <point x="461" y="1304"/>
      <point x="461" y="1255" type="curve" smooth="yes"/>
      <point x="461" y="1169"/>
      <point x="357" y="1048"/>
      <point x="96" y="827" type="curve"/>
      <point x="96" y="682" type="line"/>
      <point x="681" y="682" type="line"/>
      <point x="681" y="853" type="line"/>
      <point x="339" y="853" type="line"/>
      <point x="478" y="955"/>
      <point x="659" y="1093"/>
      <point x="659" y="1267" type="curve" smooth="yes"/>
      <point x="659" y="1407"/>
      <point x="542" y="1510"/>
      <point x="386" y="1510" type="curve" smooth="yes"/>
      <point x="261" y="1510"/>
      <point x="159" y="1442"/>
    </contour>
  </outline>
</glyph>
<glyph name="threesuperior" format="1">
  <unicode hex="00B3"/>
  <advance width="847"/>
  <outline>
    <contour>
      <point x="68" y="816" type="line"/>
      <point x="166" y="717"/>
      <point x="275" y="663"/>
      <point x="406" y="663" type="curve" smooth="yes"/>
      <point x="590" y="663"/>
      <point x="719" y="769"/>
      <point x="719" y="913" type="curve" smooth="yes"/>
      <point x="719" y="1016"/>
      <point x="653" y="1075"/>
      <point x="571" y="1106" type="curve"/>
      <point x="642" y="1150"/>
      <point x="678" y="1221"/>
      <point x="678" y="1299" type="curve" smooth="yes"/>
      <point x="678" y="1439"/>
      <point x="561" y="1510"/>
      <point x="416" y="1510" type="curve" smooth="yes"/>
      <point x="298" y="1510"/>
      <point x="204" y="1463"/>
      <point x="106" y="1356" type="curve"/>
      <point x="233" y="1239" type="line"/>
      <point x="288" y="1309"/>
      <point x="345" y="1336"/>
      <point x="397" y="1336" type="curve" smooth="yes"/>
      <point x="448" y="1336"/>
      <point x="486" y="1311"/>
      <point x="486" y="1263" type="curve" smooth="yes"/>
      <point x="486" y="1205"/>
      <point x="432" y="1162"/>
      <point x="351" y="1162" type="curve" smooth="yes"/>
      <point x="297" y="1162" type="line"/>
      <point x="297" y="1029" type="line"/>
      <point x="351" y="1029" type="line" smooth="yes"/>
      <point x="456" y="1029"/>
      <point x="519" y="1001"/>
      <point x="519" y="931" type="curve" smooth="yes"/>
      <point x="519" y="869"/>
      <point x="471" y="837"/>
      <point x="405" y="837" type="curve" smooth="yes"/>
      <point x="337" y="837"/>
      <point x="273" y="870"/>
      <point x="202" y="952" type="curve"/>
    </contour>
  </outline>
</glyph>
<glyph name="acute" format="1">
  <unicode hex="00B4"/>
  <advance width="816"/>
  <outline>
    <contour>
      <point x="400" y="1130" type="line" name="av01"/>
      <point x="686" y="1500" type="line" name="at01"/>
      <point x="359" y="1500" type="line"/>
      <point x="130" y="1130" type="line"/>
    </contour>
    <contour>
      <point x="265" y="1020" type="move" name="_top"/>
    </contour>
  </outline>
</glyph>
<glyph name="mu" format="1">
  <unicode hex="00B5"/>
  <advance width="1275"/>
  <outline>
    <contour>
      <point x="400" y="1000" type="line" name="at01"/>
      <point x="400" y="464" type="line" smooth="yes"/>
      <point x="400" y="314"/>
      <point x="484" y="230"/>
      <point x="601" y="230" type="curve" smooth="yes" name="sv01"/>
      <point x="726" y="230"/>
      <point x="812" y="326"/>
      <point x="812" y="465" type="curve" smooth="yes" name="sh02"/>
      <point x="812" y="1000" type="line"/>
      <point x="1101" y="1000" type="line" name="at02"/>
      <point x="1101" y="325" type="line" smooth="yes"/>
      <point x="1101" y="234"/>
      <point x="1149" y="187"/>
      <point x="1238" y="167" type="curve"/>
      <point x="1211" y="-41" type="line" name="sv02"/>
      <point x="1050" y="-41"/>
      <point x="933" y="11"/>
      <point x="868" y="120" type="curve"/>
      <point x="811" y="35"/>
      <point x="725" y="-20"/>
      <point x="601" y="-20" type="curve" smooth="yes" name="at02"/>
      <point x="530" y="-20"/>
      <point x="442" y="11"/>
      <point x="400" y="62" type="curve"/>
      <point x="400" y="-501" type="line" name="dh01"/>
      <point x="166" y="-501" type="line"/>
      <point x="152" y="-334"/>
      <point x="130" y="-241"/>
      <point x="130" y="-73" type="curve" smooth="yes" name="dh02"/>
      <point x="130" y="1000" type="line"/>
    </contour>
  </outline>
</glyph>
<glyph name="paragraph" format="1">
  <unicode hex="00B6"/>
  <advance width="1293"/>
  <outline>
    <contour>
      <point x="68" y="1073" type="curve" smooth="yes"/>
      <point x="68" y="795"/>
      <point x="264" y="640"/>
      <point x="603" y="640" type="curve"/>
      <point x="603" y="-150" type="line" name="sh02"/>
      <point x="823" y="-150" type="line" name="av02"/>
      <point x="823" y="1340" type="line"/>
      <point x="953" y="1340" type="line" name="sv01"/>
      <point x="953" y="-150" type="line" name="sh01"/>
      <point x="1163" y="-150" type="line" name="av01"/>
      <point x="1163" y="1500" type="line" name="at01"/>
      <point x="615" y="1500" type="line" smooth="yes" name="sh03"/>
      <point x="332" y="1500"/>
      <point x="68" y="1396"/>
    </contour>
  </outline>
</glyph>
<glyph name="cedilla" format="1">
  <unicode hex="00B8"/>
  <advance width="688"/>
  <outline>
    <contour>
      <point x="190" y="-279" type="line"/>
      <point x="224" y="-295"/>
      <point x="258" y="-303"/>
      <point x="288" y="-303" type="curve" smooth="yes"/>
      <point x="342" y="-303"/>
      <point x="384" y="-279"/>
      <point x="384" y="-240" type="curve" smooth="yes"/>
      <point x="384" y="-200"/>
      <point x="341" y="-161"/>
      <point x="243" y="-161" type="curve"/>
      <point x="256" y="-128" type="line"/>
      <point x="255" y="-128" type="line"/>
      <point x="323" y="53" type="line"/>
      <point x="498" y="53" type="line" name="ih01"/>
      <point x="430" y="-73" type="line"/>
      <point x="519" y="-103"/>
      <point x="558" y="-164"/>
      <point x="558" y="-237" type="curve" smooth="yes"/>
      <point x="558" y="-358"/>
      <point x="454" y="-444"/>
      <point x="309" y="-444" type="curve" smooth="yes"/>
      <point x="238" y="-444"/>
      <point x="181" y="-431"/>
      <point x="130" y="-402" type="curve"/>
    </contour>
    <contour>
      <point x="455" y="33" type="move" name="_bottom"/>
    </contour>
  </outline>
</glyph>
<glyph name="onesuperior" format="1">
  <unicode hex="00B9"/>
  <advance width="590"/>
  <outline>
    <contour>
      <point x="128" y="1248" type="line"/>
      <point x="268" y="1297" type="line"/>
      <point x="268" y="672" type="line"/>
      <point x="460" y="672" type="line"/>
      <point x="460" y="1500" type="line"/>
      <point x="333" y="1500" type="line"/>
      <point x="68" y="1409" type="line"/>
    </contour>
  </outline>
</glyph>
<glyph name="ordmasculine" format="1">
  <unicode hex="00BA"/>
  <advance width="1001"/>
  <outline>
    <contour>
      <point x="500" y="1520" type="curve" smooth="yes"/>
      <point x="746" y="1520"/>
      <point x="932" y="1347"/>
      <point x="932" y="1106" type="curve" smooth="yes"/>
      <point x="932" y="865"/>
      <point x="745" y="692"/>
      <point x="501" y="692" type="curve" smooth="yes"/>
      <point x="257" y="692"/>
      <point x="68" y="864"/>
      <point x="68" y="1107" type="curve" smooth="yes"/>
      <point x="68" y="1349"/>
      <point x="255" y="1520"/>
    </contour>
    <contour>
      <point x="500" y="868" type="curve" smooth="yes"/>
      <point x="634" y="868"/>
      <point x="715" y="981"/>
      <point x="715" y="1105" type="curve" smooth="yes"/>
      <point x="715" y="1230"/>
      <point x="635" y="1344"/>
      <point x="501" y="1344" type="curve" smooth="yes"/>
      <point x="368" y="1344"/>
      <point x="284" y="1231"/>
      <point x="284" y="1106" type="curve" smooth="yes"/>
      <point x="284" y="981"/>
      <point x="367" y="868"/>
    </contour>
  </outline>
</glyph>
<glyph name="guillemotright" format="1">
  <unicode hex="00BB"/>
  <advance width="1285"/>
  <outline>
    <contour>
      <point x="580" y="105" type="line"/>
      <point x="864" y="105" type="line"/>
      <point x="1215" y="513" type="line"/>
      <point x="864" y="921" type="line"/>
      <point x="580" y="921" type="line"/>
      <point x="942" y="513" type="line"/>
    </contour>
    <contour>
      <point x="414" y="105" type="line"/>
      <point x="764" y="513" type="line"/>
      <point x="414" y="921" type="line"/>
      <point x="130" y="921" type="line"/>
      <point x="491" y="513" type="line"/>
      <point x="130" y="105" type="line"/>
    </contour>
  </outline>
</glyph>
<glyph name="onequarter" format="1">
  <unicode hex="00BC"/>
  <advance width="1751"/>
  <outline>
    <contour>
      <point x="482" y="-1" type="line"/>
      <point x="1449" y="1500" type="line"/>
      <point x="1223" y="1500" type="line"/>
      <point x="256" y="-1" type="line"/>
    </contour>
    <contour>
      <point x="963" y="321" type="line"/>
      <point x="963" y="166" type="line"/>
      <point x="1345" y="166" type="line"/>
      <point x="1345" y="0" type="line"/>
      <point x="1525" y="0" type="line"/>
      <point x="1525" y="166" type="line"/>
      <point x="1621" y="166" type="line"/>
      <point x="1621" y="341" type="line"/>
      <point x="1525" y="341" type="line"/>
      <point x="1525" y="828" type="line"/>
      <point x="1350" y="828" type="line"/>
    </contour>
    <contour>
      <point x="130" y="1409" type="line"/>
      <point x="190" y="1248" type="line"/>
      <point x="330" y="1297" type="line"/>
      <point x="330" y="672" type="line"/>
      <point x="522" y="672" type="line"/>
      <point x="522" y="1500" type="line"/>
      <point x="395" y="1500" type="line"/>
    </contour>
    <contour>
      <point x="1163" y="341" type="line"/>
      <point x="1345" y="570" type="line"/>
      <point x="1345" y="341" type="line"/>
    </contour>
  </outline>
</glyph>
<glyph name="onehalf" format="1">
  <unicode hex="00BD"/>
  <advance width="1861"/>
  <outline>
    <contour>
      <point x="271" y="-1" type="line"/>
      <point x="497" y="-1" type="line"/>
      <point x="1464" y="1500" type="line"/>
      <point x="1238" y="1500" type="line"/>
    </contour>
    <contour>
      <point x="1251" y="521" type="line"/>
      <point x="1308" y="613"/>
      <point x="1371" y="657"/>
      <point x="1426" y="657" type="curve" smooth="yes"/>
      <point x="1475" y="657"/>
      <point x="1511" y="623"/>
      <point x="1511" y="573" type="curve" smooth="yes"/>
      <point x="1511" y="487"/>
      <point x="1406" y="366"/>
      <point x="1145" y="145" type="curve"/>
      <point x="1145" y="0" type="line"/>
      <point x="1731" y="0" type="line"/>
      <point x="1731" y="171" type="line"/>
      <point x="1389" y="171" type="line"/>
      <point x="1527" y="273"/>
      <point x="1708" y="411"/>
      <point x="1708" y="585" type="curve" smooth="yes"/>
      <point x="1708" y="725"/>
      <point x="1591" y="828"/>
      <point x="1434" y="828" type="curve" smooth="yes"/>
      <point x="1306" y="828"/>
      <point x="1206" y="762"/>
      <point x="1118" y="621" type="curve"/>
    </contour>
    <contour>
      <point x="190" y="1248" type="line"/>
      <point x="330" y="1297" type="line"/>
      <point x="330" y="672" type="line"/>
      <point x="522" y="672" type="line"/>
      <point x="522" y="1500" type="line"/>
      <point x="395" y="1500" type="line"/>
      <point x="130" y="1409" type="line"/>
    </contour>
  </outline>
</glyph>
<glyph name="threequarters" format="1">
  <unicode hex="00BE"/>
  <advance width="1838"/>
  <outline>
    <contour>
      <point x="1325" y="1501" type="line"/>
      <point x="1551" y="1501" type="line"/>
      <point x="584" y="0" type="line"/>
      <point x="358" y="0" type="line"/>
    </contour>
    <contour>
      <point x="1050" y="322" type="line"/>
      <point x="1437" y="829" type="line"/>
      <point x="1612" y="829" type="line"/>
      <point x="1612" y="342" type="line"/>
      <point x="1708" y="342" type="line"/>
      <point x="1708" y="167" type="line"/>
      <point x="1612" y="167" type="line"/>
      <point x="1612" y="1" type="line"/>
      <point x="1432" y="1" type="line"/>
      <point x="1432" y="167" type="line"/>
      <point x="1050" y="167" type="line"/>
    </contour>
    <contour>
      <point x="130" y="808" type="line"/>
      <point x="260" y="928" type="line"/>
      <point x="328" y="850"/>
      <point x="369" y="826"/>
      <point x="432" y="826" type="curve" smooth="yes"/>
      <point x="512" y="826"/>
      <point x="563" y="864"/>
      <point x="563" y="924" type="curve" smooth="yes"/>
      <point x="563" y="996"/>
      <point x="488" y="1019"/>
      <point x="396" y="1019" type="curve" smooth="yes"/>
      <point x="317" y="1019" type="line"/>
      <point x="317" y="1172" type="line"/>
      <point x="416" y="1172" type="line" smooth="yes"/>
      <point x="486" y="1172"/>
      <point x="528" y="1208"/>
      <point x="528" y="1259" type="curve" smooth="yes"/>
      <point x="528" y="1307"/>
      <point x="492" y="1338"/>
      <point x="437" y="1338" type="curve" smooth="yes"/>
      <point x="375" y="1338"/>
      <point x="325" y="1299"/>
      <point x="292" y="1260" type="curve" smooth="yes"/>
      <point x="282" y="1247" type="line"/>
      <point x="160" y="1359" type="line"/>
      <point x="166" y="1365" type="line"/>
      <point x="231" y="1444"/>
      <point x="315" y="1502"/>
      <point x="444" y="1502" type="curve" smooth="yes"/>
      <point x="610" y="1502"/>
      <point x="720" y="1406"/>
      <point x="720" y="1282" type="curve" smooth="yes"/>
      <point x="720" y="1178"/>
      <point x="642" y="1117"/>
      <point x="590" y="1109" type="curve"/>
      <point x="590" y="1107" type="line"/>
      <point x="681" y="1097"/>
      <point x="755" y="1006"/>
      <point x="755" y="900" type="curve" smooth="yes"/>
      <point x="755" y="766"/>
      <point x="635" y="664"/>
      <point x="444" y="664" type="curve" smooth="yes"/>
      <point x="304" y="664"/>
      <point x="211" y="718"/>
      <point x="136" y="802" type="curve" smooth="yes"/>
    </contour>
    <contour>
      <point x="1250" y="342" type="line"/>
      <point x="1432" y="342" type="line"/>
      <point x="1432" y="571" type="line"/>
    </contour>
  </outline>
</glyph>
<glyph name="questiondown" format="1">
  <unicode hex="00BF"/>
  <advance width="940"/>
  <outline>
    <contour>
      <point x="920" y="-372" type="line"/>
      <point x="811" y="-453"/>
      <point x="663" y="-520"/>
      <point x="491" y="-520" type="curve" smooth="yes"/>
      <point x="191" y="-520"/>
      <point x="60" y="-318"/>
      <point x="60" y="-125" type="curve" smooth="yes"/>
      <point x="60" y="201"/>
      <point x="434" y="208"/>
      <point x="434" y="620" type="curve"/>
      <point x="677" y="620" type="line"/>
      <point x="677" y="134"/>
      <point x="328" y="79"/>
      <point x="328" y="-130" type="curve" smooth="yes"/>
      <point x="328" y="-220"/>
      <point x="393" y="-296"/>
      <point x="514" y="-296" type="curve" smooth="yes"/>
      <point x="623" y="-296"/>
      <point x="715" y="-233"/>
      <point x="799" y="-171" type="curve"/>
    </contour>
    <contour>
      <point x="716" y="870" type="curve" smooth="yes"/>
      <point x="716" y="774"/>
      <point x="652" y="710"/>
      <point x="556" y="710" type="curve" smooth="yes"/>
      <point x="460" y="710"/>
      <point x="396" y="774"/>
      <point x="396" y="870" type="curve" smooth="yes"/>
      <point x="396" y="966"/>
      <point x="460" y="1030"/>
      <point x="556" y="1030" type="curve" smooth="yes"/>
      <point x="652" y="1030"/>
      <point x="716" y="966"/>
    </contour>
  </outline>
</glyph>
<glyph name="AE" format="1">
  <unicode hex="00C6"/>
  <advance width="2204"/>
  <outline>
    <contour>
      <point x="-10" y="0" type="line"/>
      <point x="874" y="1500" type="line"/>
      <point x="1919" y="1500" type="line"/>
      <point x="1954" y="1259" type="line"/>
      <point x="1262" y="1259" type="line"/>
      <point x="1318" y="890" type="line"/>
      <point x="1970" y="890" type="line"/>
      <point x="2006" y="649" type="line"/>
      <point x="1354" y="649" type="line"/>
      <point x="1416" y="240" type="line"/>
      <point x="2139" y="240" type="line"/>
      <point x="2174" y="0" type="line"/>
      <point x="1175" y="0" type="line"/>
      <point x="1114" y="407" type="line"/>
      <point x="547" y="407" type="line"/>
      <point x="460" y="270"/>
      <point x="373" y="135"/>
      <point x="293" y="0" type="curve"/>
    </contour>
    <contour>
      <point x="694" y="647" type="curve"/>
      <point x="1078" y="647" type="line"/>
      <point x="986" y="1254" type="line"/>
      <point x="909" y="1041"/>
      <point x="810" y="841"/>
    </contour>
  </outline>
</glyph>
<glyph name="multiply" format="1">
  <unicode hex="00D7"/>
  <advance width="1170"/>
  <outline>
    <contour>
      <point x="423" y="523" type="line"/>
      <point x="120" y="818" type="line"/>
      <point x="282" y="976" type="line"/>
      <point x="585" y="681" type="line"/>
      <point x="888" y="976" type="line"/>
      <point x="1050" y="818" type="line"/>
      <point x="747" y="523" type="line"/>
      <point x="1050" y="228" type="line"/>
      <point x="888" y="70" type="line"/>
      <point x="585" y="365" type="line"/>
      <point x="282" y="70" type="line"/>
      <point x="120" y="228" type="line"/>
    </contour>
  </outline>
</glyph>
<glyph name="Oslash" format="1">
  <unicode hex="00D8"/>
  <advance width="1700"/>
  <outline>
    <contour>
      <point x="637" y="-4" type="curve"/>
      <point x="581" y="-140" type="line"/>
      <point x="411" y="-70" type="line"/>
      <point x="466" y="62" type="line"/>
      <point x="224" y="190"/>
      <point x="70" y="442"/>
      <point x="70" y="750" type="curve" smooth="yes" name="sh01"/>
      <point x="70" y="1200"/>
      <point x="399" y="1530"/>
      <point x="850" y="1530" type="curve" smooth="yes" name="at01"/>
      <point x="924" y="1530"/>
      <point x="995" y="1521"/>
      <point x="1062" y="1504" type="curve"/>
      <point x="1121" y="1646" type="line"/>
      <point x="1291" y="1576" type="line"/>
      <point x="1234" y="1438" type="line"/>
      <point x="1476" y="1310"/>
      <point x="1630" y="1058"/>
      <point x="1630" y="750" type="curve" smooth="yes" name="sh03"/>
      <point x="1630" y="300"/>
      <point x="1300" y="-30"/>
      <point x="850" y="-30" type="curve" smooth="yes" name="dv01"/>
      <point x="775" y="-30"/>
      <point x="704" y="-21"/>
    </contour>
    <contour>
      <point x="850" y="240" type="curve" smooth="yes" name="dv02"/>
      <point x="1121" y="240"/>
      <point x="1320" y="456"/>
      <point x="1320" y="750" type="curve" smooth="yes" name="ah01"/>
      <point x="1320" y="931"/>
      <point x="1245" y="1082"/>
      <point x="1124" y="1172" type="curve"/>
      <point x="743" y="252" type="line"/>
      <point x="777" y="244"/>
      <point x="813" y="240"/>
    </contour>
    <contour>
      <point x="576" y="328" type="curve"/>
      <point x="956" y="1248" type="line"/>
      <point x="923" y="1256"/>
      <point x="887" y="1260"/>
      <point x="850" y="1260" type="curve" smooth="yes" name="sv01"/>
      <point x="578" y="1260"/>
      <point x="380" y="1044"/>
      <point x="380" y="750" type="curve" smooth="yes" name="sh02"/>
      <point x="380" y="569"/>
      <point x="455" y="418"/>
    </contour>
  </outline>
</glyph>
<glyph name="Thorn" format="1">
  <unicode hex="00DE"/>
  <advance width="1252"/>
  <outline>
    <contour>
      <point x="418" y="1500" type="line" name="dh01"/>
      <point x="418" y="1210" type="line"/>
      <point x="665" y="1210" type="line" smooth="yes" name="sv02"/>
      <point x="989" y="1210"/>
      <point x="1182" y="1020"/>
      <point x="1182" y="752" type="curve" smooth="yes" name="dh03"/>
      <point x="1182" y="483"/>
      <point x="988" y="290"/>
      <point x="665" y="290" type="curve" smooth="yes" name="dv01"/>
      <point x="418" y="290" type="line"/>
      <point x="418" y="0" type="line" name="ab01"/>
      <point x="130" y="0" type="line"/>
      <point x="130" y="1500" type="line" name="at01"/>
    </contour>
    <contour>
      <point x="418" y="960" type="line"/>
      <point x="418" y="540" type="line"/>
      <point x="593" y="540" type="line" smooth="yes" name="dv02"/>
      <point x="781" y="540"/>
      <point x="882" y="613"/>
      <point x="882" y="750" type="curve" smooth="yes" name="dh02"/>
      <point x="882" y="887"/>
      <point x="782" y="960"/>
      <point x="593" y="960" type="curve" smooth="yes" name="sv01"/>
    </contour>
  </outline>
</glyph>
<glyph name="germandbls" format="1">
  <unicode hex="00DF"/>
  <advance width="1136"/>
  <outline>
    <contour>
      <point x="390" y="0" type="line"/>
      <point x="390" y="1084" type="line" smooth="yes" name="dh02"/>
      <point x="390" y="1279"/>
      <point x="472" y="1343"/>
      <point x="565" y="1343" type="curve" smooth="yes" name="sv01"/>
      <point x="662" y="1343"/>
      <point x="725" y="1272"/>
      <point x="725" y="1169" type="curve" smooth="yes" name="dh05"/>
      <point x="725" y="968"/>
      <point x="481" y="954"/>
      <point x="481" y="781" type="curve" smooth="yes" name="dh03"/>
      <point x="481" y="581"/>
      <point x="807" y="582"/>
      <point x="807" y="368" type="curve" smooth="yes" name="ih01"/>
      <point x="807" y="226"/>
      <point x="661" y="150"/>
      <point x="480" y="150" type="curve" name="dv02"/>
      <point x="510" y="-43" type="line" name="dv01"/>
      <point x="846" y="-43"/>
      <point x="1066" y="150"/>
      <point x="1066" y="372" type="curve" smooth="yes" name="sh01"/>
      <point x="1066" y="646"/>
      <point x="729" y="670"/>
      <point x="729" y="785" type="curve" smooth="yes" name="dh04"/>
      <point x="729" y="886"/>
      <point x="986" y="907"/>
      <point x="986" y="1157" type="curve" smooth="yes" name="dh06"/>
      <point x="986" y="1373"/>
      <point x="795" y="1520"/>
      <point x="565" y="1520" type="curve" smooth="yes" name="at01"/>
      <point x="285" y="1520"/>
      <point x="130" y="1368"/>
      <point x="130" y="1127" type="curve" smooth="yes" name="dh01"/>
      <point x="130" y="0" type="line"/>
    </contour>
  </outline>
</glyph>
<glyph name="ae" format="1">
  <unicode hex="00E6"/>
  <advance width="1853"/>
  <outline>
    <contour>
      <point x="711" y="410" type="line" name="dh03"/>
      <point x="711" y="309"/>
      <point x="622" y="230"/>
      <point x="508" y="230" type="curve" smooth="yes" name="dv02"/>
      <point x="424" y="230"/>
      <point x="368" y="274"/>
      <point x="368" y="341" type="curve" smooth="yes" name="dh02"/>
      <point x="368" y="414"/>
      <point x="434" y="456"/>
      <point x="548" y="456" type="curve" smooth="yes" name="dv03"/>
      <point x="603" y="456"/>
      <point x="661" y="446"/>
      <point x="711" y="430" type="curve"/>
    </contour>
    <contour>
      <point x="1007" y="574" type="line"/>
      <point x="1035" y="689"/>
      <point x="1132" y="770"/>
      <point x="1255" y="770" type="curve" smooth="yes" name="sv02"/>
      <point x="1376" y="770"/>
      <point x="1469" y="691"/>
      <point x="1497" y="574" type="curve"/>
    </contour>
    <contour>
      <point x="1793" y="414" type="line" name="dv03"/>
      <point x="1793" y="500" type="line" name="dh03"/>
      <point x="1793" y="501" type="line" name="sh01"/>
      <point x="1793" y="803"/>
      <point x="1570" y="1020"/>
      <point x="1260" y="1020" type="curve" smooth="yes" name="at01"/>
      <point x="1102" y="1020"/>
      <point x="963" y="964"/>
      <point x="865" y="869" type="curve"/>
      <point x="797" y="965"/>
      <point x="685" y="1020"/>
      <point x="523" y="1020" type="curve" smooth="yes"/>
      <point x="401" y="1020"/>
      <point x="265" y="989"/>
      <point x="126" y="922" type="curve"/>
      <point x="225" y="679" type="line"/>
      <point x="304" y="738"/>
      <point x="389" y="770"/>
      <point x="468" y="770" type="curve" smooth="yes"/>
      <point x="604" y="770"/>
      <point x="683" y="716"/>
      <point x="705" y="607" type="curve"/>
      <point x="644" y="618"/>
      <point x="582" y="625"/>
      <point x="527" y="625" type="curve" smooth="yes" name="dv04"/>
      <point x="266" y="625"/>
      <point x="80" y="475"/>
      <point x="80" y="275" type="curve" smooth="yes"/>
      <point x="80" y="100"/>
      <point x="222" y="-20"/>
      <point x="425" y="-20" type="curve" smooth="yes"/>
      <point x="600" y="-20"/>
      <point x="741" y="69"/>
      <point x="805" y="207" type="curve"/>
      <point x="907" y="67"/>
      <point x="1085" y="-20"/>
      <point x="1301" y="-20" type="curve" smooth="yes" name="dv01"/>
      <point x="1444" y="-20"/>
      <point x="1598" y="18"/>
      <point x="1753" y="139" type="curve"/>
      <point x="1579" y="347" type="line"/>
      <point x="1504" y="276"/>
      <point x="1420" y="227"/>
      <point x="1282" y="227" type="curve" smooth="yes" name="dv02"/>
      <point x="1152" y="227"/>
      <point x="1049" y="303"/>
      <point x="1013" y="414" type="curve"/>
    </contour>
  </outline>
</glyph>
<glyph name="eth" format="1">
  <unicode hex="00F0"/>
  <advance width="1263"/>
  <outline>
    <contour>
      <point x="90" y="468" type="curve" smooth="yes"/>
      <point x="90" y="177"/>
      <point x="316" y="-30"/>
      <point x="628" y="-30" type="curve" smooth="yes"/>
      <point x="952" y="-30"/>
      <point x="1163" y="192"/>
      <point x="1163" y="530" type="curve" smooth="yes"/>
      <point x="1163" y="774"/>
      <point x="1053" y="1029"/>
      <point x="867" y="1242" type="curve"/>
      <point x="1032" y="1314" type="line"/>
      <point x="984" y="1424" type="line"/>
      <point x="779" y="1335" type="line"/>
      <point x="692" y="1418"/>
      <point x="593" y="1493"/>
      <point x="484" y="1556" type="curve"/>
      <point x="300" y="1347" type="line"/>
      <point x="371" y="1306"/>
      <point x="436" y="1261"/>
      <point x="496" y="1212" type="curve"/>
      <point x="321" y="1136" type="line" name="dv04"/>
      <point x="369" y="1026" type="line" name="dv03"/>
      <point x="593" y="1124" type="line"/>
      <point x="651" y="1065"/>
      <point x="700" y="1004"/>
      <point x="739" y="941" type="curve"/>
      <point x="701" y="950"/>
      <point x="659" y="956"/>
      <point x="607" y="956" type="curve" smooth="yes"/>
      <point x="306" y="956"/>
      <point x="90" y="752"/>
    </contour>
    <contour>
      <point x="623" y="720" type="curve" smooth="yes"/>
      <point x="754" y="720"/>
      <point x="850" y="619"/>
      <point x="850" y="480" type="curve" smooth="yes"/>
      <point x="850" y="341"/>
      <point x="755" y="240"/>
      <point x="625" y="240" type="curve" smooth="yes"/>
      <point x="495" y="240"/>
      <point x="400" y="342"/>
      <point x="400" y="482" type="curve" smooth="yes"/>
      <point x="400" y="621"/>
      <point x="493" y="720"/>
    </contour>
  </outline>
</glyph>
<glyph name="oslash" format="1">
  <unicode hex="00F8"/>
  <advance width="1224"/>
  <outline>
    <contour>
      <point x="612" y="1020" type="curve" smooth="yes" name="at01"/>
      <point x="652" y="1020"/>
      <point x="691" y="1016"/>
      <point x="728" y="1010" type="curve"/>
      <point x="776" y="1125" type="line"/>
      <point x="937" y="1059" type="line"/>
      <point x="893" y="953" type="line"/>
      <point x="1059" y="867"/>
      <point x="1164" y="701"/>
      <point x="1164" y="500" type="curve" smooth="yes" name="sh03"/>
      <point x="1164" y="200"/>
      <point x="930" y="-20"/>
      <point x="612" y="-20" type="curve" smooth="yes" name="dv01"/>
      <point x="571" y="-20"/>
      <point x="532" y="-16"/>
      <point x="495" y="-10" type="curve"/>
      <point x="447" y="-125" type="line"/>
      <point x="287" y="-58" type="line"/>
      <point x="330" y="47" type="line"/>
      <point x="165" y="134"/>
      <point x="60" y="299"/>
      <point x="60" y="500" type="curve" smooth="yes" name="sh01"/>
      <point x="60" y="800"/>
      <point x="294" y="1020"/>
    </contour>
    <contour>
      <point x="612" y="230" type="curve" smooth="yes" name="dv02"/>
      <point x="759" y="230"/>
      <point x="866" y="345"/>
      <point x="866" y="500" type="curve" smooth="yes" name="ah01"/>
      <point x="866" y="581"/>
      <point x="837" y="651"/>
      <point x="788" y="699" type="curve"/>
      <point x="594" y="231" type="line"/>
      <point x="600" y="230"/>
      <point x="606" y="230"/>
    </contour>
    <contour>
      <point x="629" y="769" type="line"/>
      <point x="623" y="770"/>
      <point x="618" y="770"/>
      <point x="612" y="770" type="curve" smooth="yes" name="sv01"/>
      <point x="465" y="770"/>
      <point x="358" y="655"/>
      <point x="358" y="500" type="curve" smooth="yes" name="sh02"/>
      <point x="358" y="419"/>
      <point x="387" y="350"/>
      <point x="435" y="301" type="curve"/>
    </contour>
  </outline>
</glyph>
<glyph name="thorn" format="1">
  <unicode hex="00FE"/>
  <advance width="1287"/>
  <outline>
    <contour>
      <point x="130" y="-500" type="line"/>
      <point x="418" y="-500" type="line" name="ab01"/>
      <point x="418" y="65" type="line"/>
      <point x="501" y="1"/>
      <point x="605" y="-35"/>
      <point x="722" y="-35" type="curve" smooth="yes" name="dv01"/>
      <point x="1013" y="-35"/>
      <point x="1227" y="191"/>
      <point x="1227" y="500" type="curve" smooth="yes" name="dh03"/>
      <point x="1227" y="809"/>
      <point x="1013" y="1035"/>
      <point x="722" y="1035" type="curve" smooth="yes" name="at02"/>
      <point x="605" y="1035"/>
      <point x="501" y="999"/>
      <point x="418" y="935" type="curve"/>
      <point x="418" y="1500" type="line" name="at01"/>
      <point x="130" y="1500" type="line" name="dh01"/>
    </contour>
    <contour>
      <point x="418" y="500" type="curve" smooth="yes" name="sh02"/>
      <point x="418" y="665"/>
      <point x="526" y="785"/>
      <point x="673" y="785" type="curve" smooth="yes" name="at02"/>
      <point x="820" y="785"/>
      <point x="928" y="665"/>
      <point x="928" y="500" type="curve" smooth="yes" name="dh03"/>
      <point x="928" y="335"/>
      <point x="820" y="215"/>
      <point x="673" y="215" type="curve" smooth="yes" name="dv01"/>
      <point x="526" y="215"/>
      <point x="418" y="335"/>
    </contour>
  </outline>
</glyph>
<glyph name="dcroat" format="1">
  <unicode hex="0111"/>
  <advance width="1298"/>
  <outline>
    <contour>
      <point x="547" y="-20" type="curve" smooth="yes" name="dv01"/>
      <point x="677" y="-20"/>
      <point x="791" y="27"/>
      <point x="875" y="108" type="curve"/>
      <point x="882" y="0" type="line"/>
      <point x="1154" y="0" type="line" name="dh01"/>
      <point x="1154" y="1150" type="line"/>
      <point x="1278" y="1150" type="line" name="sv02"/>
      <point x="1278" y="1310" type="line" name="sv03"/>
      <point x="1154" y="1310" type="line"/>
      <point x="1154" y="1500" type="line" name="at01"/>
      <point x="866" y="1500" type="line"/>
      <point x="866" y="1310" type="line"/>
      <point x="578" y="1310" type="line"/>
      <point x="578" y="1150" type="line"/>
      <point x="866" y="1150" type="line"/>
      <point x="866" y="901" type="line"/>
      <point x="782" y="976"/>
      <point x="672" y="1020"/>
      <point x="547" y="1020" type="curve" smooth="yes" name="at01"/>
      <point x="266" y="1020"/>
      <point x="60" y="800"/>
      <point x="60" y="500" type="curve" smooth="yes" name="sh03"/>
      <point x="60" y="200"/>
      <point x="266" y="-20"/>
    </contour>
    <contour>
      <point x="612" y="770" type="curve" smooth="yes" name="sv01"/>
      <point x="759" y="770"/>
      <point x="866" y="655"/>
      <point x="866" y="500" type="curve" smooth="yes" name="sh02"/>
      <point x="866" y="345"/>
      <point x="759" y="230"/>
      <point x="612" y="230" type="curve" smooth="yes" name="dv02"/>
      <point x="465" y="230"/>
      <point x="358" y="345"/>
      <point x="358" y="500" type="curve" smooth="yes" name="ah01"/>
      <point x="358" y="655"/>
      <point x="465" y="770"/>
    </contour>
  </outline>
</glyph>
<glyph name="dotlessi" format="1">
  <unicode hex="0131"/>
  <advance width="548"/>
  <outline>
    <contour>
      <point x="130" y="0" type="line" name="ab01"/>
      <point x="418" y="0" type="line" name="sh01"/>
      <point x="418" y="1000" type="line"/>
      <point x="130" y="1000" type="line"/>
    </contour>
  </outline>
</glyph>
<glyph name="kgreenlandic" format="1">
  <unicode hex="0138"/>
  <advance width="1154"/>
  <outline>
    <contour>
      <point x="130" y="0" type="line" name="ab01"/>
      <point x="418" y="0" type="line"/>
      <point x="418" y="236" type="line"/>
      <point x="505" y="338" type="line"/>
      <point x="791" y="0" type="line" name="ab02"/>
      <point x="1144" y="0" type="line"/>
      <point x="688" y="551" type="line"/>
      <point x="1072" y="1000" type="line" name="iv01"/>
      <point x="757" y="1000" type="line"/>
      <point x="563" y="776" type="line" smooth="yes"/>
      <point x="505" y="709"/>
      <point x="458" y="652"/>
      <point x="418" y="590" type="curve"/>
      <point x="418" y="1000" type="line" name="dh01"/>
      <point x="130" y="1000" type="line" name="at01"/>
    </contour>
    <contour>
      <point x="569" y="-20" type="move" name="bottom"/>
    </contour>
  </outline>
</glyph>
<glyph name="Lslash" format="1">
  <unicode hex="0141"/>
  <advance width="1226"/>
  <outline>
    <component base="L" xOffset="72.064"/>
    <contour>
      <point x="0" y="605" type="line"/>
      <point x="83" y="463" type="line"/>
      <point x="832" y="896" type="line"/>
      <point x="750" y="1038" type="line"/>
    </contour>
  </outline>
</glyph>
<glyph name="lslash" format="1">
  <unicode hex="0142"/>
  <advance width="812"/>
  <outline>
    <component base="l" xOffset="132.256"/>
    <contour>
      <point x="-10" y="625" type="line"/>
      <point x="73" y="483" type="line"/>
      <point x="822" y="916" type="line"/>
      <point x="740" y="1058" type="line"/>
    </contour>
  </outline>
</glyph>
<glyph name="OE" format="1">
  <unicode hex="0152"/>
  <advance width="2321"/>
  <outline>
    <component base="E" xOffset="1147.06"/>
    <contour>
      <point x="1277" y="750" type="curve" smooth="yes" name="sh02"/>
      <point x="1277" y="456"/>
      <point x="1079" y="240"/>
      <point x="807" y="240" type="curve" smooth="yes" name="dv02"/>
      <point x="536" y="240"/>
      <point x="337" y="456"/>
      <point x="337" y="750" type="curve" smooth="yes" name="ah01"/>
      <point x="337" y="1044"/>
      <point x="536" y="1260"/>
      <point x="807" y="1260" type="curve" smooth="yes" name="sv01"/>
      <point x="1079" y="1260"/>
      <point x="1277" y="1044"/>
    </contour>
    <contour>
      <point x="1563" y="750" type="curve" smooth="yes" name="sh01"/>
      <point x="1563" y="1200"/>
      <point x="1244" y="1530"/>
      <point x="806" y="1530" type="curve" smooth="yes" name="at01"/>
      <point x="370" y="1530"/>
      <point x="50" y="1200"/>
      <point x="50" y="750" type="curve" smooth="yes" name="sh03"/>
      <point x="50" y="300"/>
      <point x="370" y="-30"/>
      <point x="806" y="-30" type="curve" smooth="yes" name="dv01"/>
      <point x="1244" y="-30"/>
      <point x="1563" y="300"/>
    </contour>
  </outline>
</glyph>
<glyph name="oe" format="1">
  <unicode hex="0153"/>
  <advance width="2070"/>
  <outline>
    <component base="o"/>
    <contour>
      <point x="1714" y="574" type="line"/>
      <point x="1686" y="691"/>
      <point x="1593" y="770"/>
      <point x="1472" y="770" type="curve" smooth="yes" name="sv02"/>
      <point x="1349" y="770"/>
      <point x="1252" y="689"/>
      <point x="1224" y="574" type="curve"/>
    </contour>
    <contour>
      <point x="1230" y="414" type="line"/>
      <point x="1266" y="303"/>
      <point x="1369" y="227"/>
      <point x="1499" y="227" type="curve" smooth="yes" name="dv02"/>
      <point x="1637" y="227"/>
      <point x="1721" y="276"/>
      <point x="1796" y="347" type="curve"/>
      <point x="1970" y="139" type="line"/>
      <point x="1815" y="18"/>
      <point x="1661" y="-20"/>
      <point x="1523" y="-20" type="curve" smooth="yes" name="dv01"/>
      <point x="1192" y="-20"/>
      <point x="959" y="200"/>
      <point x="959" y="503" type="curve" smooth="yes" name="dh01"/>
      <point x="959" y="800"/>
      <point x="1184" y="1020"/>
      <point x="1488" y="1020" type="curve" smooth="yes" name="at01"/>
      <point x="1789" y="1020"/>
      <point x="2010" y="803"/>
      <point x="2010" y="501" type="curve" name="sh01"/>
      <point x="2010" y="500" type="line" name="dh03"/>
      <point x="2010" y="414" type="line" name="dv03"/>
    </contour>
  </outline>
</glyph>
<glyph name="Tbar" format="1">
  <unicode hex="0166"/>
  <advance width="1184"/>
  <outline>
    <component base="T"/>
    <contour>
      <point x="149" y="670" type="line"/>
      <point x="149" y="830" type="line"/>
      <point x="1035" y="830" type="line"/>
      <point x="1035" y="670" type="line"/>
    </contour>
  </outline>
</glyph>
<glyph name="tbar" format="1">
  <unicode hex="0167"/>
  <advance width="881"/>
  <outline>
    <component base="t"/>
    <contour>
      <point x="100" y="580" type="line" name="sh07"/>
      <point x="734" y="580" type="line" name="dv04"/>
      <point x="734" y="460" type="line" name="dv03"/>
      <point x="100" y="460" type="line"/>
    </contour>
  </outline>
</glyph>
<glyph name="longs" format="1">
  <unicode hex="017F"/>
  <advance width="655"/>
  <outline>
    <contour>
      <point x="598" y="1270" type="curve"/>
      <point x="615" y="1520" type="line"/>
      <point x="330" y="1520"/>
      <point x="130" y="1349"/>
      <point x="130" y="1038" type="curve"/>
      <point x="130" y="0" type="line" name="dh01.3"/>
      <point x="418" y="0" type="line" name="ab01.3"/>
      <point x="418" y="1076" type="line" name="sh01.3"/>
      <point x="418" y="1187"/>
      <point x="483" y="1270"/>
    </contour>
  </outline>
</glyph>
<glyph name="florin" format="1">
  <unicode hex="0192"/>
  <advance width="1022"/>
  <outline>
    <contour>
      <point x="62" y="142" type="line" name="iv01"/>
      <point x="98" y="107"/>
      <point x="142" y="90"/>
      <point x="183" y="90" type="curve" smooth="yes"/>
      <point x="260" y="90"/>
      <point x="330" y="146"/>
      <point x="336" y="241" type="curve" smooth="yes" name="sh01"/>
      <point x="372" y="760" type="line" name="sv03"/>
      <point x="207" y="760" type="line" name="sv04"/>
      <point x="225" y="1010" type="line" name="at03"/>
      <point x="390" y="1010" type="line" name="sh02"/>
      <point x="399" y="1145" type="line" smooth="yes"/>
      <point x="418" y="1413"/>
      <point x="603" y="1530"/>
      <point x="798" y="1530" type="curve" smooth="yes"/>
      <point x="904" y="1530"/>
      <point x="1001" y="1496"/>
      <point x="1082" y="1430" type="curve"/>
      <point x="961" y="1228" type="line" name="iv01"/>
      <point x="925" y="1263"/>
      <point x="881" y="1280"/>
      <point x="840" y="1280" type="curve" smooth="yes"/>
      <point x="763" y="1280"/>
      <point x="693" y="1224"/>
      <point x="686" y="1129" type="curve" smooth="yes" name="sh01"/>
      <point x="678" y="1010" type="line" name="at02"/>
      <point x="921" y="1010" type="line"/>
      <point x="903" y="760" type="line" name="sv02"/>
      <point x="660" y="760" type="line"/>
      <point x="623" y="225" type="line" smooth="yes"/>
      <point x="605" y="-43"/>
      <point x="419" y="-160"/>
      <point x="224" y="-160" type="curve" smooth="yes"/>
      <point x="118" y="-160"/>
      <point x="22" y="-126"/>
      <point x="-60" y="-60" type="curve"/>
    </contour>
  </outline>
</glyph>
<glyph name="uni021A" format="1">
  <unicode hex="021A"/>
  <advance width="1184"/>
  <outline>
    <component base="T"/>
    <contour>
      <point x="729" y="-46" type="line"/>
      <point x="747" y="-97"/>
      <point x="756" y="-150"/>
      <point x="756" y="-201" type="curve" smooth="yes"/>
      <point x="756" y="-352"/>
      <point x="681" y="-493"/>
      <point x="554" y="-559" type="curve"/>
      <point x="426" y="-448" type="line"/>
      <point x="479" y="-403"/>
      <point x="506" y="-331"/>
      <point x="506" y="-258" type="curve" smooth="yes"/>
      <point x="506" y="-202"/>
      <point x="490" y="-146"/>
      <point x="457" y="-101" type="curve"/>
    </contour>
    <contour>
      <point x="592" y="1520" type="move" name="top"/>
    </contour>
    <contour>
      <point x="592" y="-20" type="move" name="bottom"/>
    </contour>
  </outline>
</glyph>
<glyph name="uni0237" format="1">
  <unicode hex="0237"/>
  <advance width="497"/>
  <outline>
    <contour>
      <point x="127" y="-118" type="curve" smooth="yes" name="sh01"/>
      <point x="127" y="1000" type="line" name="ab01"/>
      <point x="415" y="1000" type="line" name="dh01"/>
      <point x="415" y="-151" type="line" smooth="yes"/>
      <point x="415" y="-389"/>
      <point x="284" y="-520"/>
      <point x="46" y="-520" type="curve" smooth="yes"/>
      <point x="-13" y="-520"/>
      <point x="-77" y="-508"/>
      <point x="-141" y="-483" type="curve"/>
      <point x="-141" y="-247" type="line"/>
      <point x="-103" y="-263"/>
      <point x="-67" y="-270"/>
      <point x="-34" y="-270" type="curve" smooth="yes"/>
      <point x="59" y="-270"/>
      <point x="127" y="-213"/>
    </contour>
    <contour>
      <point x="302" y="1020" type="move" name="top"/>
    </contour>
  </outline>
</glyph>
<glyph name="circumflex" format="1">
  <unicode hex="02C6"/>
  <advance width="1051"/>
  <outline>
    <contour>
      <point x="130" y="1130" type="line"/>
      <point x="380" y="1130" type="line" name="av01"/>
      <point x="526" y="1318" type="line"/>
      <point x="671" y="1130" type="line" name="av01"/>
      <point x="921" y="1130" type="line"/>
      <point x="692" y="1500" type="line" name="at01"/>
      <point x="359" y="1500" type="line" name="at01"/>
    </contour>
    <contour>
      <point x="525" y="1020" type="move" name="_top"/>
    </contour>
  </outline>
</glyph>
<glyph name="caron" format="1">
  <unicode hex="02C7"/>
  <advance width="1051"/>
  <outline>
    <contour>
      <point x="130" y="1500" type="line"/>
      <point x="380" y="1500" type="line" name="av01"/>
      <point x="526" y="1312" type="line"/>
      <point x="671" y="1500" type="line" name="av01"/>
      <point x="921" y="1500" type="line"/>
      <point x="692" y="1130" type="line" name="at01"/>
      <point x="359" y="1130" type="line" name="at01"/>
    </contour>
    <contour>
      <point x="526" y="1020" type="move" name="_top"/>
    </contour>
  </outline>
</glyph>
<glyph name="uni02C9" format="1">
  <unicode hex="02C9"/>
  <advance width="860"/>
  <outline>
    <contour>
      <point x="130" y="1417" type="line" name="av01"/>
      <point x="730" y="1417" type="line"/>
      <point x="730" y="1297" type="line" name="av02"/>
      <point x="130" y="1297" type="line"/>
    </contour>
    <contour>
      <point x="430" y="1020" type="move" name="_top"/>
    </contour>
  </outline>
</glyph>
<glyph name="breve" format="1">
  <unicode hex="02D8"/>
  <advance width="907"/>
  <outline>
    <contour>
      <point x="130" y="1500" type="line" name="at02"/>
      <point x="130" y="1312"/>
      <point x="267" y="1170"/>
      <point x="454" y="1170" type="curve" smooth="yes" name="av01"/>
      <point x="640" y="1170"/>
      <point x="777" y="1312"/>
      <point x="777" y="1500" type="curve" name="at01"/>
      <point x="594" y="1500" type="line" name="ah01"/>
      <point x="594" y="1415"/>
      <point x="534" y="1353"/>
      <point x="454" y="1353" type="curve" smooth="yes"/>
      <point x="373" y="1353"/>
      <point x="313" y="1415"/>
      <point x="313" y="1500" type="curve" name="sh01"/>
    </contour>
    <contour>
      <point x="454" y="1020" type="move" name="_top"/>
    </contour>
  </outline>
</glyph>
<glyph name="dotaccent" format="1">
  <unicode hex="02D9"/>
  <advance width="580"/>
  <outline>
    <contour>
      <point x="130" y="1395" type="curve" smooth="yes"/>
      <point x="130" y="1491"/>
      <point x="194" y="1555"/>
      <point x="290" y="1555" type="curve" smooth="yes"/>
      <point x="386" y="1555"/>
      <point x="450" y="1491"/>
      <point x="450" y="1395" type="curve" smooth="yes"/>
      <point x="450" y="1299"/>
      <point x="386" y="1235"/>
      <point x="290" y="1235" type="curve" smooth="yes"/>
      <point x="194" y="1235"/>
      <point x="130" y="1299"/>
    </contour>
    <contour>
      <point x="290" y="1020" type="move" name="_top"/>
    </contour>
  </outline>
</glyph>
<glyph name="ring" format="1">
  <unicode hex="02DA"/>
  <advance width="810"/>
  <outline>
    <contour>
      <point x="287" y="1265" type="curve" smooth="yes" name="sh02"/>
      <point x="287" y="1192"/>
      <point x="337" y="1137"/>
      <point x="405" y="1137" type="curve" smooth="yes"/>
      <point x="473" y="1137"/>
      <point x="523" y="1192"/>
      <point x="523" y="1265" type="curve" smooth="yes" name="ah01"/>
      <point x="523" y="1339"/>
      <point x="473" y="1394"/>
      <point x="405" y="1394" type="curve" smooth="yes"/>
      <point x="337" y="1394"/>
      <point x="287" y="1339"/>
    </contour>
    <contour>
      <point x="130" y="1265" type="curve" smooth="yes" name="sh01"/>
      <point x="130" y="1424"/>
      <point x="246" y="1540"/>
      <point x="405" y="1540" type="curve" smooth="yes" name="at01"/>
      <point x="564" y="1540"/>
      <point x="680" y="1424"/>
      <point x="680" y="1265" type="curve" smooth="yes" name="sh03"/>
      <point x="680" y="1106"/>
      <point x="564" y="990"/>
      <point x="405" y="990" type="curve" smooth="yes" name="av01"/>
      <point x="246" y="990"/>
      <point x="130" y="1106"/>
    </contour>
    <contour>
      <point x="405" y="1020" type="move" name="_top"/>
    </contour>
  </outline>
</glyph>
<glyph name="ogonek" format="1">
  <unicode hex="02DB"/>
  <advance width="688"/>
  <outline>
    <contour>
      <point x="396" y="-437" type="line" name="av01"/>
      <point x="242" y="-437"/>
      <point x="132" y="-355"/>
      <point x="132" y="-245" type="curve" smooth="yes"/>
      <point x="132" y="-154"/>
      <point x="208" y="-37"/>
      <point x="330" y="1" type="curve" name="ab01"/>
      <point x="528" y="1" type="line"/>
      <point x="453" y="-16"/>
      <point x="355" y="-117"/>
      <point x="355" y="-200" type="curve" smooth="yes"/>
      <point x="355" y="-252"/>
      <point x="392" y="-296"/>
      <point x="494" y="-310" type="curve"/>
    </contour>
    <contour>
      <point x="388" y="-10" type="move" name="_bottom"/>
    </contour>
  </outline>
</glyph>
<glyph name="tilde" format="1">
  <unicode hex="02DC"/>
  <advance width="1085"/>
  <outline>
    <contour>
      <point x="361" y="1520" type="curve" smooth="yes" name="av01"/>
      <point x="543" y="1520"/>
      <point x="601" y="1355"/>
      <point x="723" y="1355" type="curve" smooth="yes"/>
      <point x="787" y="1355"/>
      <point x="823" y="1399"/>
      <point x="827" y="1481" type="curve"/>
      <point x="955" y="1481" type="line"/>
      <point x="955" y="1317"/>
      <point x="903" y="1158"/>
      <point x="718" y="1158" type="curve" smooth="yes" name="av02"/>
      <point x="530" y="1158"/>
      <point x="488" y="1323"/>
      <point x="364" y="1323" type="curve" smooth="yes"/>
      <point x="300" y="1323"/>
      <point x="262" y="1277"/>
      <point x="258" y="1196" type="curve"/>
      <point x="130" y="1196" type="line"/>
      <point x="130" y="1355"/>
      <point x="178" y="1520"/>
    </contour>
    <contour>
      <point x="543" y="1020" type="move" name="_top"/>
    </contour>
  </outline>
</glyph>
<glyph name="hungarumlaut" format="1">
  <unicode hex="02DD"/>
  <advance width="943"/>
  <outline>
    <contour>
      <point x="630" y="1500" type="line" name="at00.1"/>
      <point x="895" y="1500" type="line"/>
      <point x="640" y="1170" type="line" name="av00.1"/>
      <point x="425" y="1170" type="line"/>
    </contour>
    <contour>
      <point x="255" y="1500" type="line" name="at00.1"/>
      <point x="520" y="1500" type="line"/>
      <point x="265" y="1170" type="line" name="av00.1"/>
      <point x="50" y="1170" type="line"/>
    </contour>
    <contour>
      <point x="472" y="1020" type="move" name="_top"/>
    </contour>
  </outline>
</glyph>
<glyph name="uni0394" format="1">
  <unicode hex="0394"/>
  <advance width="1559"/>
  <outline>
    <contour>
      <point x="0" y="0" type="line" name="ab01"/>
      <point x="1559" y="0" type="line" name="ab01"/>
      <point x="946" y="1500" type="line" name="at01"/>
      <point x="613" y="1500" type="line" name="at01"/>
    </contour>
    <contour>
      <point x="431" y="260" type="line"/>
      <point x="780" y="1112" type="line"/>
      <point x="1128" y="260" type="line"/>
    </contour>
  </outline>
</glyph>
<glyph name="pi" format="1">
  <unicode hex="03C0"/>
  <advance width="1329"/>
  <outline>
    <contour>
      <point x="25" y="685" type="line"/>
      <point x="90" y="729"/>
      <point x="154" y="750"/>
      <point x="225" y="750" type="curve" smooth="yes" name="sv01"/>
      <point x="265" y="750" type="line"/>
      <point x="267" y="666"/>
      <point x="268" y="583"/>
      <point x="268" y="500" type="curve" smooth="yes" name="dh01"/>
      <point x="268" y="334"/>
      <point x="264" y="168"/>
      <point x="255" y="0" type="curve" name="sh01"/>
      <point x="543" y="0" type="line" name="sh02"/>
      <point x="552" y="168"/>
      <point x="556" y="334"/>
      <point x="556" y="500" type="curve" smooth="yes" name="dh02"/>
      <point x="556" y="583"/>
      <point x="555" y="666"/>
      <point x="553" y="750" type="curve"/>
      <point x="722" y="750" type="line"/>
      <point x="722" y="340" type="line" smooth="yes"/>
      <point x="722" y="86"/>
      <point x="857" y="-20"/>
      <point x="1019" y="-20" type="curve" smooth="yes" name="dv01"/>
      <point x="1151" y="-20"/>
      <point x="1243" y="50"/>
      <point x="1269" y="149" type="curve" name="sh04"/>
      <point x="1208" y="223" type="line"/>
      <point x="1192" y="204"/>
      <point x="1154" y="171"/>
      <point x="1108" y="171" type="curve" smooth="yes" name="dv02"/>
      <point x="1049" y="171"/>
      <point x="1010" y="224"/>
      <point x="1010" y="305" type="curve" smooth="yes"/>
      <point x="1010" y="750" type="line"/>
      <point x="1260" y="750" type="line" name="sv02"/>
      <point x="1260" y="1000" type="line" name="at01"/>
      <point x="225" y="1000" type="line" smooth="yes" name="sh03"/>
      <point x="130" y="1000"/>
      <point x="44" y="973"/>
      <point x="-40" y="916" type="curve"/>
    </contour>
  </outline>
</glyph>
<glyph name="endash" format="1">
  <unicode hex="2013"/>
  <advance width="1280"/>
  <outline>
    <contour>
      <point x="130" y="645" type="line"/>
      <point x="1150" y="645" type="line" name="dv02"/>
      <point x="1150" y="440" type="line" name="dv01"/>
      <point x="130" y="440" type="line"/>
    </contour>
  </outline>
</glyph>
<glyph name="emdash" format="1">
  <unicode hex="2014"/>
  <advance width="2300"/>
  <outline>
    <contour>
      <point x="130" y="645" type="line"/>
      <point x="2170" y="645" type="line" name="dv02"/>
      <point x="2170" y="440" type="line" name="dv01"/>
      <point x="130" y="440" type="line"/>
    </contour>
  </outline>
</glyph>
<glyph name="quotesinglbase" format="1">
  <unicode hex="201A"/>
  <advance width="637" height="1660"/>
  <outline>
    <contour>
      <point x="242" y="225" type="line" name="av01"/>
      <point x="507" y="225" type="line"/>
      <point x="337" y="-274" type="line"/>
      <point x="130" y="-274" type="line"/>
    </contour>
  </outline>
</glyph>
<glyph name="quotedblbase" format="1">
  <unicode hex="201E"/>
  <advance width="1058" height="1660"/>
  <outline>
    <contour>
      <point x="541" y="-274" type="line"/>
      <point x="653" y="225" type="line" name="av01"/>
      <point x="928" y="225" type="line"/>
      <point x="758" y="-274" type="line"/>
    </contour>
    <contour>
      <point x="242" y="225" type="line" name="av01"/>
      <point x="517" y="225" type="line"/>
      <point x="347" y="-274" type="line"/>
      <point x="130" y="-274" type="line"/>
    </contour>
  </outline>
</glyph>
<glyph name="dagger" format="1">
  <unicode hex="2020"/>
  <advance width="1040"/>
  <outline>
    <contour>
      <point x="610" y="1070" type="line"/>
      <point x="640" y="1500" type="line" name="at01"/>
      <point x="400" y="1500" type="line"/>
      <point x="430" y="1070" type="line"/>
      <point x="120" y="1100" type="line"/>
      <point x="120" y="900" type="line"/>
      <point x="430" y="930" type="line"/>
      <point x="400" y="0" type="line" name="ab01"/>
      <point x="640" y="0" type="line"/>
      <point x="610" y="930" type="line"/>
      <point x="920" y="900" type="line"/>
      <point x="920" y="1100" type="line"/>
    </contour>
  </outline>
</glyph>
<glyph name="daggerdbl" format="1">
  <unicode hex="2021"/>
  <advance width="1060"/>
  <outline>
    <contour>
      <point x="130" y="900" type="line"/>
      <point x="130" y="1100" type="line"/>
      <point x="440" y="1070" type="line"/>
      <point x="410" y="1500" type="line"/>
      <point x="650" y="1500" type="line" name="at01.1"/>
      <point x="620" y="1070" type="line"/>
      <point x="930" y="1100" type="line"/>
      <point x="930" y="900" type="line"/>
      <point x="620" y="930" type="line"/>
      <point x="622" y="860"/>
      <point x="626" y="820"/>
      <point x="626" y="750" type="curve" smooth="yes"/>
      <point x="626" y="680"/>
      <point x="622" y="640"/>
      <point x="620" y="570" type="curve"/>
      <point x="930" y="600" type="line"/>
      <point x="930" y="400" type="line"/>
      <point x="620" y="430" type="line"/>
      <point x="650" y="0" type="line" name="at01"/>
      <point x="410" y="0" type="line"/>
      <point x="440" y="430" type="line"/>
      <point x="130" y="400" type="line"/>
      <point x="130" y="600" type="line"/>
      <point x="440" y="570" type="line"/>
      <point x="438" y="640"/>
      <point x="434" y="680"/>
      <point x="434" y="750" type="curve" smooth="yes"/>
      <point x="434" y="820"/>
      <point x="438" y="860"/>
      <point x="440" y="930" type="curve"/>
    </contour>
  </outline>
</glyph>
<glyph name="perthousand" format="1">
  <unicode hex="2030"/>
  <advance width="2763"/>
  <outline>
    <contour>
      <point x="1312" y="1502" type="line"/>
      <point x="1585" y="1502" type="line"/>
      <point x="628" y="-1" type="line"/>
      <point x="356" y="-1" type="line"/>
    </contour>
    <contour>
      <point x="501" y="1004" type="curve" smooth="yes"/>
      <point x="580" y="1004"/>
      <point x="626" y="1069"/>
      <point x="626" y="1152" type="curve" smooth="yes"/>
      <point x="626" y="1235"/>
      <point x="580" y="1300"/>
      <point x="501" y="1300" type="curve" smooth="yes"/>
      <point x="423" y="1300"/>
      <point x="377" y="1235"/>
      <point x="377" y="1152" type="curve" smooth="yes"/>
      <point x="377" y="1069"/>
      <point x="423" y="1004"/>
    </contour>
    <contour>
      <point x="501" y="1510" type="curve" smooth="yes"/>
      <point x="784" y="1510"/>
      <point x="883" y="1308"/>
      <point x="883" y="1152" type="curve" smooth="yes"/>
      <point x="883" y="996"/>
      <point x="784" y="794"/>
      <point x="501" y="794" type="curve" smooth="yes"/>
      <point x="219" y="794"/>
      <point x="120" y="996"/>
      <point x="120" y="1152" type="curve" smooth="yes"/>
      <point x="120" y="1308"/>
      <point x="219" y="1510"/>
    </contour>
    <contour>
      <point x="1438" y="200" type="curve" smooth="yes"/>
      <point x="1517" y="200"/>
      <point x="1563" y="264"/>
      <point x="1563" y="347" type="curve" smooth="yes"/>
      <point x="1563" y="431"/>
      <point x="1517" y="496"/>
      <point x="1438" y="496" type="curve" smooth="yes"/>
      <point x="1359" y="496"/>
      <point x="1314" y="431"/>
      <point x="1314" y="347" type="curve" smooth="yes"/>
      <point x="1314" y="264"/>
      <point x="1359" y="200"/>
    </contour>
    <contour>
      <point x="1438" y="706" type="curve" smooth="yes"/>
      <point x="1720" y="706"/>
      <point x="1820" y="503"/>
      <point x="1820" y="348" type="curve" smooth="yes"/>
      <point x="1820" y="192"/>
      <point x="1720" y="-10"/>
      <point x="1438" y="-10" type="curve" smooth="yes"/>
      <point x="1156" y="-10"/>
      <point x="1057" y="192"/>
      <point x="1057" y="348" type="curve" smooth="yes"/>
      <point x="1057" y="503"/>
      <point x="1156" y="706"/>
    </contour>
    <contour>
      <point x="2261" y="200" type="curve" smooth="yes"/>
      <point x="2340" y="200"/>
      <point x="2386" y="264"/>
      <point x="2386" y="347" type="curve" smooth="yes"/>
      <point x="2386" y="431"/>
      <point x="2340" y="496"/>
      <point x="2261" y="496" type="curve" smooth="yes"/>
      <point x="2182" y="496"/>
      <point x="2137" y="431"/>
      <point x="2137" y="347" type="curve" smooth="yes"/>
      <point x="2137" y="264"/>
      <point x="2182" y="200"/>
    </contour>
    <contour>
      <point x="2261" y="706" type="curve" smooth="yes"/>
      <point x="2543" y="706"/>
      <point x="2643" y="503"/>
      <point x="2643" y="348" type="curve" smooth="yes"/>
      <point x="2643" y="192"/>
      <point x="2543" y="-10"/>
      <point x="2261" y="-10" type="curve" smooth="yes"/>
      <point x="1979" y="-10"/>
      <point x="1880" y="192"/>
      <point x="1880" y="348" type="curve" smooth="yes"/>
      <point x="1880" y="503"/>
      <point x="1979" y="706"/>
    </contour>
  </outline>
</glyph>
<glyph name="guilsinglleft" format="1">
  <unicode hex="2039"/>
  <advance width="835"/>
  <outline>
    <contour>
      <point x="705" y="932" type="line"/>
      <point x="343" y="524" type="line"/>
      <point x="705" y="116" type="line"/>
      <point x="421" y="116" type="line"/>
      <point x="70" y="524" type="line"/>
      <point x="421" y="932" type="line"/>
    </contour>
  </outline>
</glyph>
<glyph name="fraction" format="1">
  <unicode hex="2044"/>
  <advance width="1177"/>
  <outline>
    <contour>
      <point x="1013" y="1694" type="line"/>
      <point x="1177" y="1600" type="line"/>
      <point x="164" y="-155" type="line"/>
      <point x="0" y="-61" type="line"/>
    </contour>
  </outline>
</glyph>
<glyph name="uni2074" format="1">
  <unicode hex="2074"/>
  <advance width="840"/>
  <outline>
    <contour>
      <point x="50" y="810" type="line"/>
      <point x="50" y="939" type="line"/>
      <point x="468" y="1501" type="line"/>
      <point x="659" y="1501" type="line"/>
      <point x="659" y="983" type="line"/>
      <point x="770" y="983" type="line"/>
      <point x="770" y="810" type="line"/>
      <point x="659" y="810" type="line"/>
      <point x="659" y="656" type="line"/>
      <point x="473" y="656" type="line"/>
      <point x="473" y="810" type="line"/>
    </contour>
    <contour>
      <point x="473" y="983" type="line"/>
      <point x="473" y="1166" type="line" smooth="yes"/>
      <point x="473" y="1196"/>
      <point x="475" y="1228"/>
      <point x="479" y="1260" type="curve"/>
      <point x="468" y="1261" type="line"/>
      <point x="455" y="1231"/>
      <point x="434" y="1196"/>
      <point x="411" y="1163" type="curve" smooth="yes"/>
      <point x="285" y="983" type="line"/>
    </contour>
  </outline>
</glyph>
<glyph name="franc" format="1">
  <unicode hex="20A3"/>
  <advance width="1202"/>
  <outline>
    <component base="F" xOffset="48.32"/>
    <contour>
      <point x="30" y="266" type="line" name="dv01"/>
      <point x="806" y="266" type="line"/>
      <point x="806" y="426" type="line" name="sv02"/>
      <point x="30" y="426" type="line" name="dv02"/>
    </contour>
  </outline>
</glyph>
<glyph name="uni20A8" format="1">
  <unicode hex="20A8"/>
  <advance width="1220"/>
  <outline>
    <contour>
      <point x="130" y="1117" type="line"/>
      <point x="670" y="1117" type="line"/>
      <point x="643" y="1236"/>
      <point x="536" y="1340"/>
      <point x="351" y="1340" type="curve" smooth="yes"/>
      <point x="130" y="1340" type="line"/>
      <point x="130" y="1500" type="line"/>
      <point x="1120" y="1500" type="line" name="dv02"/>
      <point x="1120" y="1340" type="line" name="dv01"/>
      <point x="836" y="1340" type="line"/>
      <point x="907" y="1279"/>
      <point x="952" y="1200"/>
      <point x="969" y="1117" type="curve"/>
      <point x="1120" y="1117" type="line" name="dv02"/>
      <point x="1120" y="957" type="line" name="dv01"/>
      <point x="969" y="957" type="line"/>
      <point x="937" y="803"/>
      <point x="812" y="663"/>
      <point x="595" y="628" type="curve"/>
      <point x="957" y="0" type="line" name="ab01"/>
      <point x="614" y="0" type="line"/>
      <point x="257" y="619" type="line"/>
      <point x="130" y="619" type="line"/>
      <point x="130" y="769" type="line"/>
      <point x="351" y="769" type="line" smooth="yes"/>
      <point x="518" y="769"/>
      <point x="620" y="853"/>
      <point x="659" y="957" type="curve"/>
      <point x="130" y="957" type="line"/>
    </contour>
  </outline>
</glyph>
<glyph name="Euro" format="1">
  <unicode hex="20AC"/>
  <advance width="1175"/>
  <outline>
    <contour>
      <point x="80" y="680" type="line"/>
      <point x="221" y="680" type="line"/>
      <point x="220" y="703"/>
      <point x="219" y="726"/>
      <point x="219" y="750" type="curve" smooth="yes" name="dh01"/>
      <point x="219" y="774"/>
      <point x="220" y="797"/>
      <point x="221" y="820" type="curve"/>
      <point x="80" y="820" type="line"/>
      <point x="80" y="980" type="line"/>
      <point x="244" y="980" type="line"/>
      <point x="326" y="1336"/>
      <point x="611" y="1530"/>
      <point x="1055" y="1530" type="curve" name="at01"/>
      <point x="1037" y="1280" type="line" name="sv02"/>
      <point x="800" y="1280"/>
      <point x="631" y="1169"/>
      <point x="558" y="980" type="curve"/>
      <point x="910" y="980" type="line"/>
      <point x="910" y="820" type="line"/>
      <point x="522" y="820" type="line"/>
      <point x="520" y="797"/>
      <point x="519" y="774"/>
      <point x="519" y="750" type="curve" smooth="yes" name="dh02"/>
      <point x="519" y="726"/>
      <point x="520" y="703"/>
      <point x="522" y="680" type="curve"/>
      <point x="910" y="680" type="line"/>
      <point x="910" y="520" type="line"/>
      <point x="558" y="520" type="line"/>
      <point x="631" y="331"/>
      <point x="800" y="220"/>
      <point x="1037" y="220" type="curve"/>
      <point x="1055" y="-30" type="line" name="sv03"/>
      <point x="611" y="-30"/>
      <point x="326" y="164"/>
      <point x="244" y="520" type="curve"/>
      <point x="80" y="520" type="line"/>
    </contour>
  </outline>
</glyph>
<glyph name="uni2113" format="1">
  <unicode hex="2113"/>
  <advance width="1100"/>
  <outline>
    <contour>
      <point x="30" y="628" type="curve"/>
      <point x="99" y="410" type="line"/>
      <point x="158" y="426"/>
      <point x="214" y="443"/>
      <point x="268" y="462" type="curve"/>
      <point x="268" y="437" type="line" smooth="yes" name="sh01"/>
      <point x="268" y="129"/>
      <point x="417" y="-30"/>
      <point x="656" y="-30" type="curve" smooth="yes" name="dv01"/>
      <point x="863" y="-30"/>
      <point x="976" y="90"/>
      <point x="1003" y="300" type="curve"/>
      <point x="781" y="365" type="line"/>
      <point x="769" y="282"/>
      <point x="712" y="210"/>
      <point x="656" y="210" type="curve" smooth="yes" name="dv02"/>
      <point x="568" y="210"/>
      <point x="548" y="304"/>
      <point x="548" y="462" type="curve" smooth="yes"/>
      <point x="548" y="578" type="line"/>
      <point x="858" y="735"/>
      <point x="1030" y="940"/>
      <point x="1030" y="1169" type="curve" smooth="yes" name="sh03"/>
      <point x="1030" y="1375"/>
      <point x="892" y="1530"/>
      <point x="661" y="1530" type="curve" smooth="yes" name="at01"/>
      <point x="427" y="1530"/>
      <point x="268" y="1372"/>
      <point x="268" y="1060" type="curve" smooth="yes"/>
      <point x="268" y="704" type="line"/>
      <point x="193" y="676"/>
      <point x="113" y="651"/>
    </contour>
    <contour>
      <point x="548" y="842" type="curve"/>
      <point x="548" y="1099" type="line" smooth="yes"/>
      <point x="548" y="1219"/>
      <point x="582" y="1290"/>
      <point x="656" y="1290" type="curve" smooth="yes" name="sv01"/>
      <point x="722" y="1290"/>
      <point x="750" y="1232"/>
      <point x="750" y="1156" type="curve" smooth="yes" name="ah01"/>
      <point x="750" y="1029"/>
      <point x="672" y="926"/>
    </contour>
  </outline>
</glyph>
<glyph name="trademark" format="1">
  <unicode hex="2122"/>
  <advance width="1710"/>
  <outline>
    <contour>
      <point x="766" y="761" type="line"/>
      <point x="766" y="1501" type="line" name="at01"/>
      <point x="962" y="1501" type="line"/>
      <point x="1125" y="1152" type="line"/>
      <point x="1141" y="1114"/>
      <point x="1155" y="1075"/>
      <point x="1169" y="1036" type="curve"/>
      <point x="1183" y="1076"/>
      <point x="1199" y="1117"/>
      <point x="1215" y="1152" type="curve" smooth="yes"/>
      <point x="1377" y="1501" type="line"/>
      <point x="1570" y="1501" type="line" name="at03"/>
      <point x="1570" y="761" type="line" name="ab02"/>
      <point x="1419" y="761" type="line" name="ah01"/>
      <point x="1419" y="941"/>
      <point x="1421" y="1111"/>
      <point x="1431" y="1283" type="curve"/>
      <point x="1414" y="1238"/>
      <point x="1395" y="1193"/>
      <point x="1375" y="1149" type="curve" smooth="yes"/>
      <point x="1251" y="882" type="line"/>
      <point x="1085" y="882" type="line"/>
      <point x="960" y="1149" type="line"/>
      <point x="940" y="1198"/>
      <point x="921" y="1246"/>
      <point x="903" y="1294" type="curve"/>
      <point x="914" y="1123"/>
      <point x="917" y="983"/>
      <point x="917" y="761" type="curve" name="ab01"/>
    </contour>
    <contour>
      <point x="100" y="1501" type="line" name="at01"/>
      <point x="674" y="1501" type="line"/>
      <point x="674" y="1368" type="line" name="sv02"/>
      <point x="463" y="1368" type="line" name="sv03"/>
      <point x="463" y="761" type="line" name="ab01"/>
      <point x="312" y="761" type="line" name="dh01"/>
      <point x="312" y="1368" type="line" name="sv01"/>
      <point x="100" y="1368" type="line"/>
    </contour>
    <contour>
      <point x="-35" y="1520" type="move" name="top"/>
    </contour>
    <contour>
      <point x="-35" y="-20" type="move" name="bottom"/>
    </contour>
  </outline>
</glyph>
<glyph name="Omega" format="1">
  <unicode hex="2126"/>
  <advance width="1718"/>
  <outline>
    <contour>
      <point x="60" y="0" type="line" name="ab02"/>
      <point x="744" y="0" type="line"/>
      <point x="744" y="206" type="line" name="iv02"/>
      <point x="742" y="207"/>
      <point x="741" y="207"/>
      <point x="739" y="208" type="curve" smooth="yes"/>
      <point x="514" y="285"/>
      <point x="384" y="554"/>
      <point x="384" y="779" type="curve" smooth="yes" name="sh03"/>
      <point x="384" y="1069"/>
      <point x="582" y="1270"/>
      <point x="859" y="1270" type="curve" smooth="yes" name="sv04"/>
      <point x="1136" y="1270"/>
      <point x="1334" y="1069"/>
      <point x="1334" y="779" type="curve" smooth="yes" name="ah01"/>
      <point x="1334" y="554"/>
      <point x="1204" y="285"/>
      <point x="979" y="208" type="curve" smooth="yes"/>
      <point x="977" y="207"/>
      <point x="976" y="207"/>
      <point x="974" y="206" type="curve" name="iv01"/>
      <point x="974" y="0" type="line"/>
      <point x="1658" y="0" type="line" name="ab02"/>
      <point x="1658" y="260" type="line" name="sv03"/>
      <point x="1377" y="260" type="line"/>
      <point x="1546" y="415"/>
      <point x="1634" y="630"/>
      <point x="1634" y="835" type="curve" smooth="yes"/>
      <point x="1634" y="1234"/>
      <point x="1300" y="1530"/>
      <point x="859" y="1530" type="curve" smooth="yes" name="at01"/>
      <point x="418" y="1530"/>
      <point x="84" y="1234"/>
      <point x="84" y="835" type="curve" smooth="yes"/>
      <point x="84" y="630"/>
      <point x="172" y="415"/>
      <point x="341" y="260" type="curve"/>
      <point x="60" y="260" type="line" name="sv03"/>
    </contour>
  </outline>
</glyph>
<glyph name="estimated" format="1">
  <unicode hex="212E"/>
  <advance width="1142"/>
  <outline>
    <contour>
      <point x="576" y="1020" type="curve" smooth="yes" name="at01"/>
      <point x="871" y="1020"/>
      <point x="1082" y="803"/>
      <point x="1082" y="500" type="curve" smooth="yes" name="sh01"/>
      <point x="1082" y="464" type="line" name="dv03"/>
      <point x="319" y="464" type="line" name="sh04"/>
      <point x="319" y="295" type="line" smooth="yes"/>
      <point x="319" y="170"/>
      <point x="466" y="80"/>
      <point x="646" y="80" type="curve" smooth="yes" name="dv02"/>
      <point x="753" y="80"/>
      <point x="873" y="111"/>
      <point x="995" y="211" type="curve"/>
      <point x="1044" y="139" type="line"/>
      <point x="898" y="18"/>
      <point x="752" y="-20"/>
      <point x="617" y="-20" type="curve" smooth="yes" name="dv01"/>
      <point x="293" y="-20"/>
      <point x="60" y="200"/>
      <point x="60" y="505" type="curve" smooth="yes" name="sh02"/>
      <point x="60" y="801"/>
      <point x="279" y="1020"/>
    </contour>
    <contour>
      <point x="319" y="744" type="curve" smooth="yes"/>
      <point x="319" y="564" type="line" name="sh03"/>
      <point x="823" y="564" type="line" name="dv04"/>
      <point x="823" y="744" type="line" smooth="yes"/>
      <point x="823" y="853"/>
      <point x="697" y="920"/>
      <point x="571" y="920" type="curve" smooth="yes" name="sv01"/>
      <point x="446" y="920"/>
      <point x="319" y="853"/>
    </contour>
  </outline>
</glyph>
<glyph name="partialdiff" format="1">
  <unicode hex="2202"/>
  <advance width="1216"/>
  <outline>
    <contour>
      <point x="919" y="733" type="curve"/>
      <point x="607" y="733"/>
      <point x="369" y="580"/>
      <point x="369" y="387" type="curve" smooth="yes"/>
      <point x="369" y="279"/>
      <point x="443" y="209"/>
      <point x="554" y="209" type="curve" smooth="yes"/>
      <point x="753" y="209"/>
      <point x="911" y="432"/>
    </contour>
    <contour>
      <point x="260" y="1278" type="line"/>
      <point x="329" y="1433"/>
      <point x="453" y="1521"/>
      <point x="641" y="1521" type="curve" smooth="yes"/>
      <point x="939" y="1521"/>
      <point x="1173" y="1190"/>
      <point x="1173" y="768" type="curve" smooth="yes"/>
      <point x="1173" y="293"/>
      <point x="932" y="-20"/>
      <point x="543" y="-20" type="curve" smooth="yes"/>
      <point x="286" y="-20"/>
      <point x="90" y="157"/>
      <point x="90" y="398" type="curve" smooth="yes"/>
      <point x="90" y="707"/>
      <point x="412" y="935"/>
      <point x="897" y="961" type="curve"/>
      <point x="846" y="1158"/>
      <point x="734" y="1293"/>
      <point x="620" y="1293" type="curve" smooth="yes"/>
      <point x="552" y="1293"/>
      <point x="500" y="1245"/>
      <point x="488" y="1174" type="curve"/>
    </contour>
  </outline>
</glyph>
<glyph name="Delta" format="1">
  <unicode hex="2206"/>
  <advance width="1198"/>
  <outline>
    <contour>
      <point x="377" y="250" type="curve"/>
      <point x="821" y="250" type="line"/>
      <point x="763" y="399"/>
      <point x="726" y="480"/>
      <point x="671" y="631" type="curve" smooth="yes"/>
      <point x="639" y="719"/>
      <point x="627" y="770"/>
      <point x="599" y="859" type="curve"/>
      <point x="571" y="770"/>
      <point x="559" y="719"/>
      <point x="527" y="631" type="curve" smooth="yes"/>
      <point x="473" y="481"/>
      <point x="436" y="399"/>
    </contour>
    <contour>
      <point x="108" y="0" type="line"/>
      <point x="30" y="130" type="line"/>
      <point x="476" y="1130" type="line"/>
      <point x="722" y="1130" type="line"/>
      <point x="1168" y="130" type="line"/>
      <point x="1090" y="0" type="line"/>
    </contour>
  </outline>
</glyph>
<glyph name="product" format="1">
  <unicode hex="220F"/>
  <advance width="1640"/>
  <outline>
    <contour>
      <point x="60" y="1260" type="line"/>
      <point x="60" y="1500" type="line" name="at01"/>
      <point x="1580" y="1500" type="line"/>
      <point x="1580" y="1260" type="line" name="sv02"/>
      <point x="1440" y="1250" type="line" name="sv03"/>
      <point x="1440" y="-400" type="line" name="av02"/>
      <point x="1140" y="-400" type="line" name="ah01"/>
      <point x="1140" y="1250" type="line" name="sv04"/>
      <point x="500" y="1250" type="line" name="sv05"/>
      <point x="500" y="-400" type="line" name="sh01"/>
      <point x="200" y="-400" type="line" name="av01"/>
      <point x="200" y="1250" type="line" name="sv01"/>
    </contour>
  </outline>
</glyph>
<glyph name="summation" format="1">
  <unicode hex="2211"/>
  <advance width="1200"/>
  <outline>
    <contour>
      <point x="130" y="1500" type="line" name="at01"/>
      <point x="1100" y="1500" type="line"/>
      <point x="1100" y="1250" type="line"/>
      <point x="507" y="1250" type="line"/>
      <point x="857" y="750" type="line"/>
      <point x="507" y="250" type="line"/>
      <point x="1095" y="250" type="line"/>
      <point x="1095" y="0" type="line"/>
      <point x="144" y="0" type="line"/>
      <point x="144" y="220" type="line"/>
      <point x="555" y="750" type="line"/>
      <point x="130" y="1300" type="line"/>
    </contour>
  </outline>
</glyph>
<glyph name="minus" format="1">
  <unicode hex="2212"/>
  <advance width="1166"/>
  <outline>
    <contour>
      <point x="130" y="635" type="line"/>
      <point x="1036" y="635" type="line"/>
      <point x="1036" y="413" type="line"/>
      <point x="130" y="413" type="line"/>
    </contour>
  </outline>
</glyph>
<glyph name="uni2219" format="1">
  <unicode hex="2219"/>
  <advance width="660"/>
  <outline>
    <contour>
      <point x="130" y="700" type="curve" smooth="yes" name="dh01"/>
      <point x="130" y="584"/>
      <point x="216" y="500"/>
      <point x="330" y="500" type="curve" smooth="yes" name="dv01"/>
      <point x="446" y="500"/>
      <point x="530" y="584"/>
      <point x="530" y="700" type="curve" smooth="yes" name="dh02"/>
      <point x="530" y="814"/>
      <point x="446" y="900"/>
      <point x="330" y="900" type="curve" smooth="yes" name="dv02"/>
      <point x="216" y="900"/>
      <point x="130" y="814"/>
    </contour>
  </outline>
</glyph>
<glyph name="radical" format="1">
  <unicode hex="221A"/>
  <advance width="1139"/>
  <outline>
    <contour>
      <point x="222" y="640" type="line"/>
      <point x="487" y="0" type="line" name="ab01"/>
      <point x="772" y="0" type="line" name="ab01"/>
      <point x="1119" y="1560" type="line"/>
      <point x="883" y="1560" type="line" name="at02"/>
      <point x="658" y="548" type="line"/>
      <point x="638" y="449"/>
      <point x="624" y="369"/>
      <point x="612" y="291" type="curve"/>
      <point x="596" y="354"/>
      <point x="575" y="416"/>
      <point x="548" y="481" type="curve" smooth="yes"/>
      <point x="395" y="850" type="line" name="at02"/>
      <point x="80" y="850" type="line"/>
      <point x="80" y="640" type="line"/>
    </contour>
  </outline>
</glyph>
<glyph name="infinity" format="1">
  <unicode hex="221E"/>
  <advance width="1967"/>
  <outline>
    <contour>
      <point x="514" y="934" type="curve" smooth="yes"/>
      <point x="684" y="934"/>
      <point x="836" y="834"/>
      <point x="978" y="675" type="curve"/>
      <point x="1117" y="837"/>
      <point x="1270" y="934"/>
      <point x="1449" y="934" type="curve" smooth="yes"/>
      <point x="1759" y="934"/>
      <point x="1907" y="728"/>
      <point x="1907" y="519" type="curve" smooth="yes"/>
      <point x="1907" y="304"/>
      <point x="1751" y="87"/>
      <point x="1453" y="87" type="curve" smooth="yes"/>
      <point x="1285" y="87"/>
      <point x="1135" y="185"/>
      <point x="988" y="345" type="curve"/>
      <point x="853" y="185"/>
      <point x="698" y="87"/>
      <point x="517" y="87" type="curve" smooth="yes"/>
      <point x="208" y="87"/>
      <point x="60" y="293"/>
      <point x="60" y="502" type="curve" smooth="yes"/>
      <point x="60" y="716"/>
      <point x="216" y="934"/>
    </contour>
    <contour>
      <point x="1457" y="299" type="curve" smooth="yes"/>
      <point x="1581" y="299"/>
      <point x="1647" y="406"/>
      <point x="1647" y="512" type="curve" smooth="yes"/>
      <point x="1647" y="618"/>
      <point x="1582" y="723"/>
      <point x="1441" y="723" type="curve" smooth="yes"/>
      <point x="1298" y="723"/>
      <point x="1193" y="615"/>
      <point x="1113" y="514" type="curve"/>
      <point x="1221" y="375"/>
      <point x="1353" y="299"/>
    </contour>
    <contour>
      <point x="526" y="299" type="curve" smooth="yes"/>
      <point x="670" y="299"/>
      <point x="776" y="408"/>
      <point x="855" y="508" type="curve"/>
      <point x="774" y="607"/>
      <point x="653" y="723"/>
      <point x="517" y="723" type="curve" smooth="yes"/>
      <point x="387" y="723"/>
      <point x="318" y="616"/>
      <point x="318" y="509" type="curve" smooth="yes"/>
      <point x="318" y="404"/>
      <point x="385" y="299"/>
    </contour>
  </outline>
</glyph>
<glyph name="integral" format="1">
  <unicode hex="222B"/>
  <advance width="682"/>
  <outline>
    <contour>
      <point x="-20" y="-70" type="line" name="dv02"/>
      <point x="153" y="-70"/>
      <point x="231" y="27"/>
      <point x="231" y="213" type="curve" smooth="yes"/>
      <point x="231" y="710"/>
      <point x="190" y="794"/>
      <point x="190" y="1291" type="curve" smooth="yes"/>
      <point x="190" y="1642"/>
      <point x="353" y="1820"/>
      <point x="702" y="1820" type="curve"/>
      <point x="702" y="1570" type="line" name="dv02"/>
      <point x="529" y="1570"/>
      <point x="451" y="1473"/>
      <point x="451" y="1287" type="curve" smooth="yes"/>
      <point x="451" y="790"/>
      <point x="492" y="706"/>
      <point x="492" y="209" type="curve" smooth="yes"/>
      <point x="492" y="-142"/>
      <point x="329" y="-320"/>
      <point x="-20" y="-320" type="curve"/>
    </contour>
  </outline>
</glyph>
